<svg xmlns="http://www.w3.org/2000/svg" width="816.689" height="969.956" viewBox="0 0 816.689 969.956">
  <defs>
    <style>
      .cls-1, .cls-2, .cls-3 {
        fill: #fff;
      }

      .cls-1 {
        opacity: 0.13;
      }

      .cls-2 {
        opacity: 0.29;
      }

      .cls-4 {
        fill: #494422;
      }

      .cls-5 {
        fill: #1a1a1a;
      }

      .cls-6 {
        fill: #ffd7b6;
      }

      .cls-7 {
        fill: #ffe2c7;
      }

      .cls-8 {
        fill: #54351f;
      }

      .cls-9 {
        fill: #ad6632;
      }

      .cls-10 {
        fill: #827f50;
      }

      .cls-11 {
        fill: #9b6831;
      }

      .cls-12 {
        fill: #3a2212;
      }
    </style>
  </defs>
  <g id="Group_349" data-name="Group 349" transform="translate(-1103.311 -1723.162)">
    <g id="Group_348" data-name="Group 348">
      <circle id="Ellipse_27" data-name="Ellipse 27" class="cls-1" cx="326.491" cy="326.491" r="326.491" transform="translate(1103.311 2664.915) rotate(-90)"/>
      <circle id="Ellipse_28" data-name="Ellipse 28" class="cls-1" cx="247.901" cy="247.901" r="247.901" transform="translate(1181.901 2090.522)"/>
      <circle id="Ellipse_29" data-name="Ellipse 29" class="cls-2" cx="202.962" cy="202.962" r="202.962" transform="translate(1226.84 2135.461)"/>
    </g>
    <g id="Group_263" data-name="Group 263" transform="translate(1115.24 1723.162)">
      <path id="Path_1252" data-name="Path 1252" class="cls-3" d="M248.447,212.451a72.705,72.705,0,0,0-9.873-1.394c-2.711-.211-5.422-.311-8.137-.346-.035-2.711-.134-5.422-.349-8.133a73.307,73.307,0,0,0-1.386-9.873,73.319,73.319,0,0,0-1.39,9.873c-.215,2.711-.311,5.422-.349,8.133-2.711.038-5.422.138-8.133.353a73.291,73.291,0,0,0-9.873,1.386,73.315,73.315,0,0,0,9.873,1.39c2.711.215,5.422.311,8.133.349.035,2.711.131,5.422.346,8.133A72.11,72.11,0,0,0,228.7,232.2a72.71,72.71,0,0,0,1.394-9.873c.211-2.711.311-5.422.346-8.133,2.711-.035,5.422-.131,8.133-.346A72.107,72.107,0,0,0,248.447,212.451Z" transform="translate(161.195 -192.706)"/>
      <path id="Path_1253" data-name="Path 1253" class="cls-3" d="M216.731,261.228a90,90,0,0,0-12.2-1.724c-3.352-.265-6.7-.384-10.053-.426-.046-3.352-.169-6.7-.434-10.053a90.611,90.611,0,0,0-1.717-12.2,91.229,91.229,0,0,0-1.713,12.2c-.265,3.352-.388,6.7-.434,10.053-3.352.046-6.7.169-10.053.434a90.609,90.609,0,0,0-12.2,1.716,91.209,91.209,0,0,0,12.2,1.716c3.352.265,6.7.384,10.053.43.042,3.352.161,6.7.426,10.053a90.009,90.009,0,0,0,1.72,12.2,89.417,89.417,0,0,0,1.724-12.2c.265-3.348.384-6.7.426-10.049,3.352-.042,6.7-.165,10.053-.43A89.412,89.412,0,0,0,216.731,261.228Z" transform="translate(44.675 -67.408)"/>
      <path id="Path_1254" data-name="Path 1254" class="cls-3" d="M297.715,296.333a123.146,123.146,0,0,0-16.758-2.366c-4.6-.365-9.2-.53-13.8-.587-.065-4.6-.23-9.2-.6-13.8a124.421,124.421,0,0,0-2.358-16.758,125.03,125.03,0,0,0-2.358,16.758c-.361,4.6-.53,9.2-.591,13.8-4.6.061-9.2.23-13.809.6a124.488,124.488,0,0,0-16.758,2.358,124.49,124.49,0,0,0,16.758,2.354c4.6.365,9.2.534,13.8.6.058,4.6.226,9.2.587,13.809a123.3,123.3,0,0,0,2.365,16.758,122.712,122.712,0,0,0,2.365-16.758c.365-4.6.53-9.2.588-13.8,4.6-.058,9.2-.227,13.8-.587A123.179,123.179,0,0,0,297.715,296.333Z" transform="translate(222.903 6.409)"/>
      <g id="Group_262" data-name="Group 262" transform="translate(0 4.535)">
        <g id="Group_261" data-name="Group 261">
          <g id="Group_259" data-name="Group 259">
            <path id="Path_1255" data-name="Path 1255" class="cls-4" d="M176.614,337.475h86.465l136.089,27.819-72.556-91.728L253.3,257.51l-50.751,27.242Z" transform="translate(69.343 -13.197)"/>
            <path id="Path_1256" data-name="Path 1256" class="cls-3" d="M180.725,223.51l20.3,197.743H301.777L345.386,237.8Z" transform="translate(81.02 -109.756)"/>
            <path id="Path_1257" data-name="Path 1257" class="cls-5" d="M323.243,671.73l20.183,4.362L334.4,524.628l-13.534-37.594-9.022-171.427-3.007-40.6H208.089v40.6l-29.85,334.466,20.827,4.458L226.885,532.9l-2.256-47.829,34.829-130.831Z" transform="translate(73.958 36.49)"/>
            <path id="Path_1258" data-name="Path 1258" class="cls-5" d="M206.209,225.721,248.2,469.861l66.917-14.285-45.864-66.917L260.5,284.148l12.511-52.631Z" transform="translate(153.392 -103.478)"/>
            <path id="Path_1259" data-name="Path 1259" class="cls-5" d="M244.965,228.07,203.681,403.208l-6.029,55.638-21.038-24.812L192.4,386.667v-5.355l5.249-6.675V367.87l5.277-13.8-5.277-79.431L192.4,223.51Z" transform="translate(69.343 -109.756)"/>
            <path id="Path_1260" data-name="Path 1260" class="cls-5" d="M247.208,227.231,234.7,279.862l47.656,47.562h0l-4.935,1.122-.887,2.819-3.008,1.128-9.612,14.429h0l-48.616,51.4,11.988,15.749,92.856-81.578Z" transform="translate(179.198 -99.191)"/>
            <path id="Path_1261" data-name="Path 1261" class="cls-6" d="M194.413,224.7,211.4,251.874l28.307-23.246Z" transform="translate(119.894 -106.384)"/>
            <path id="Path_1262" data-name="Path 1262" class="cls-6" d="M194.413,242.76l7.118-24.422,35.808,3.383,2.367,24.968Z" transform="translate(119.894 -124.446)"/>
            <path id="Path_1263" data-name="Path 1263" class="cls-7" d="M201.055,209.747l-7.246,64.4,13.569,1.963,31.8,3,22.288-55.595-5.509-17.78-45.327-6.511Z" transform="translate(118.179 -178.715)"/>
            <path id="Path_1264" data-name="Path 1264" class="cls-5" d="M335.558,267.213l-3.933,3.947-3.947-5.513-9.022,1.284-4.135-2.256-22.468-3.091-164-56.088v17.45L219.032,267.9l13.534.752L335.558,325.8l47.313-46.569Z" transform="translate(-68.563 -160.915)"/>
            <path id="Path_1265" data-name="Path 1265" class="cls-7" d="M172.054,228.249l-59.492-30.764v6.485l21.146,14.943-.564,14.944,9.164,11.278L155.7,242.88l5.921,2.256,10.432.564Z" transform="translate(-112.563 -183.668)"/>
            <path id="Path_1266" data-name="Path 1266" class="cls-8" d="M258.227,220.913l-63.149-27.026,5.641,14.665-7.707-1.882,5.38,10.764-5.38,1.832,9.638,11.6,41.038,6.635,2.857,15.921a3.937,3.937,0,0,1,3.229-1.064c2.834.526,4.389,4.927,3.479,9.827a11.444,11.444,0,0,1-3.863,7.085l.645,3.6,13.7-34.172Z" transform="translate(115.914 -193.887)"/>
            <path id="Path_1267" data-name="Path 1267" class="cls-9" d="M140.946,222.776a20.554,20.554,0,0,1-3.706-4.4,19.155,19.155,0,0,0-2.653-3.886,1.649,1.649,0,0,0-2.684.71.678.678,0,0,0-.035.127,1.392,1.392,0,0,0-.061.415c0,.061-.027.108-.023.173.084,1.444,0,3.068-1.352,3.625a38.95,38.95,0,0,1-2.15-4.293c-.7-1.743-1.405-3.083.876-3.667,3.022-.772,6.167-.292,9.231-1.156a1.629,1.629,0,0,0-.868-3.137c-2.492.7-4.842.488-7.354.795-1.7.207-4.1.6-5.28,2.02a6.686,6.686,0,0,1-1.079-1.363,10.283,10.283,0,0,1-.753-3.771c-.25-2.051-3.51-2.074-3.252,0,.2,1.64.2,3.548.945,5.05a15.361,15.361,0,0,0,3.007,3.537,1.6,1.6,0,0,0,.5.342,13.5,13.5,0,0,0,.833,2.527,3.386,3.386,0,0,1-1.64-.422,12.627,12.627,0,0,1-2.715-3.041c-1.321-1.628-3.61.687-2.3,2.3,1.114,1.375,2.147,3.03,3.79,3.817a8.4,8.4,0,0,0,4.458.5c.23.407.449.787.664,1.156-.349.545-1.559.388-2.066.365-2.093-.092-2.089,3.164,0,3.256a5.366,5.366,0,0,0,4.328-1.313c.015,0,.023.008.038.008a5.155,5.155,0,0,0,4.785-3.168c.25.438.491.891.772,1.286a22.4,22.4,0,0,0,3.445,3.909C140.2,226.462,142.517,224.17,140.946,222.776Z" transform="translate(-97.015 -166.815)"/>
            <path id="Path_1268" data-name="Path 1268" class="cls-9" d="M216.182,219.716c-1.528-.614-2.219-3.383-2.419-4.792-.227-1.6-2.657-.918-2.435.672a11.56,11.56,0,0,0,.58,2.266,1.066,1.066,0,0,0-.265.027c-3.974,1.29-10.364,2.285-13.978-.465-1.29-.987-2.55,1.206-1.275,2.177,4.132,3.145,11.347,2.208,15.925.722a1.2,1.2,0,0,0,.6-.445,5.733,5.733,0,0,0,2.592,2.269C217.019,222.749,217.672,220.311,216.182,219.716Z" transform="translate(124.002 -136.737)"/>
            <path id="Path_1269" data-name="Path 1269" class="cls-9" d="M207.7,210.622c-1.49.572-.841,2.991.668,2.415.607-.23,1.148-.4,1.448.265a2.8,2.8,0,0,1-.085,1.521,2.914,2.914,0,0,1-1.663,2.12c-1.49.564-.845,2.984.668,2.415a5.765,5.765,0,0,0,3.636-5.468C212.417,210.99,210.378,209.6,207.7,210.622Z" transform="translate(155.238 -147.308)"/>
            <path id="Path_1270" data-name="Path 1270" class="cls-9" d="M202.042,219.539c-1,.514-2.792.6-3.54-.476-1.375-1.981,1.916-1.544,2.788-1.655,2.12-.261,2.216-3.99,2.431-5.56.242-1.743-2.431-2.5-2.677-.737a17.522,17.522,0,0,1-.653,3.533,4.963,4.963,0,0,0-3.671.968,3.612,3.612,0,0,0-1.137,3.932c1.14,3.16,5.2,3.759,7.86,2.392C205.03,221.118,203.628,218.721,202.042,219.539Z" transform="translate(122.655 -147.823)"/>
            <path id="Path_1271" data-name="Path 1271" class="cls-9" d="M213.608,210.327c-2.957-3.606-7.6-4.224-12-4.136-2.035.042-2.043,3.206,0,3.168,3.621-.073,7.308.215,9.761,3.206C212.663,214.141,214.894,211.89,213.608,210.327Z" transform="translate(135.984 -158.964)"/>
            <path id="Path_1272" data-name="Path 1272" class="cls-9" d="M201.859,206.162a8.857,8.857,0,0,0-5.787-.334,1.585,1.585,0,0,0,.822,3.061,6.1,6.1,0,0,1,4.128.326C202.9,209.991,203.717,206.927,201.859,206.162Z" transform="translate(121.394 -160.916)"/>
            <path id="Path_1273" data-name="Path 1273" class="cls-9" d="M204,211.864c-.422,2.154-1.475,3.759-2.35,3.587s-1.24-2.054-.818-4.209,1.475-3.756,2.35-3.583S204.426,209.714,204,211.864Z" transform="translate(137.635 -154.809)"/>
            <path id="Path_1274" data-name="Path 1274" class="cls-9" d="M199.1,211.117c-.422,2.15-1.475,3.756-2.346,3.587s-1.24-2.058-.818-4.209,1.475-3.756,2.346-3.587S199.518,208.966,199.1,211.117Z" transform="translate(123.708 -156.942)"/>
            <path id="Path_1275" data-name="Path 1275" class="cls-3" d="M335.558,312.892,234.633,252.742,222.791,241.9v6.508l-94.736-38.369L219.032,255l13.534.752Z" transform="translate(-68.563 -148.01)"/>
            <path id="Path_1276" data-name="Path 1276" class="cls-3" d="M258.395,540.283,325.312,526l-39.235-57.244L356.139,407.2,283.207,301.939l-66.8-5.8-2.24-21.843,22.288-55.595-5.509-17.78,3.019,17.556-22.675,55.547-8.665,3.256,9.16,1.348.233,21.116,67.367,6.053,70.745,99.52-70.745,66.784,6.083,3.3,32.707,47.587-57.142,12.563L248.954,485.4l2.34,22.713-10.223-2.817L239.6,485.4H229.435l18.81,215.944L261.4,735.927l12.781,150.555-9.022-151.463-13.534-37.594-8.744-166.138-1.55-22.455L253.41,511.3Z" transform="translate(143.199 -173.9)"/>
          </g>
          <g id="Group_260" data-name="Group 260" transform="translate(387.107 391.493)">
            <path id="Path_1277" data-name="Path 1277" class="cls-10" d="M243.135,616.96,234.12,465.568,220.58,427.9l-7.208-132.06,1.034.12L221.6,427.766l13.538,37.666L244.16,616.9Z" transform="translate(-213.372 -295.838)"/>
          </g>
        </g>
        <path id="Path_1278" data-name="Path 1278" class="cls-3" d="M234.609,330.918l-16.629-74.627,9.095-15.355Z" transform="translate(186.821 -60.266)"/>
      </g>
    </g>
    <g id="Group_267" data-name="Group 267" transform="translate(63.677 2253.331)">
      <g id="Group_266" data-name="Group 266" transform="translate(1200.953)">
        <g id="Group_265" data-name="Group 265">
          <g id="Group_264" data-name="Group 264">
            <path id="Path_1280" data-name="Path 1280" class="cls-8" d="M312.895,805.453,115.6,507.489V406.465l60.705-40.8,251.925,54.4,33.388-23.313L762.111,515.26l8.863-15.542V805.453Z" transform="translate(-115.604 -365.667)"/>
            <path id="Path_1281" data-name="Path 1281" class="cls-11" d="M115.6,406.465l62.167-22.2,116.078,33.29,11.306,34.737,97.988,26.053L443.289,449.4l183.718,68.027L688.815,669.4l82.159-21.711V499.718l-8.863,15.542L461.622,396.751l-33.388,23.313-251.925-54.4Z" transform="translate(-115.604 -365.667)"/>
            <path id="Path_1282" data-name="Path 1282" class="cls-12" d="M556.94,661.848,442.37,514.216l-89.7,11.579L206.445,428.822l8.291,43.421L372.271,661.848Z" transform="translate(-51.567 -222.062)"/>
            <path id="Path_1283" data-name="Path 1283" class="cls-12" d="M413.711,531.259l70.1,98.421H595.365V506.653L480.041,535.6l-89.7-92.632-25.628,18.816Z" transform="translate(60.005 -189.893)"/>
            <path id="Path_1284" data-name="Path 1284" class="cls-12" d="M211.038,474.661l-6.251-40.377L192,424.037l5.683,35.346Z" transform="translate(-61.749 -232.942)"/>
            <path id="Path_1285" data-name="Path 1285" class="cls-12" d="M325.506,683.645H306.662L154.4,472.436,172.542,385.5,154.4,436.245l-38.8,26.147L312.895,760.355h81.2Z" transform="translate(-115.604 -320.569)"/>
          </g>
        </g>
      </g>
    </g>
  </g>
</svg>
