<svg xmlns="http://www.w3.org/2000/svg" width="1919.632" height="294.563" viewBox="0 0 1919.632 294.563">
  <defs>
    <style>
      .cls-1 {
        fill: #fff;
      }
    </style>
  </defs>
  <path id="Path_1453" data-name="Path 1453" class="cls-1" d="M1650.086,732.865c-9.56-28.033-60.092-29.367-64.189,9.343-73.751-56.064-174.813,4-196.817,68.609-71.381-51.714-115.853-1.831-126.435,67.269-3.387-44.946-86.121-52.822-89.411,5.236-33.937-81.494-31.128-82.222-51.75-101.134-15.955-14.632-57.328-4.268-63.494-14.948-8.428-14.6,15.914-67.808,15.914-67.808l-38.534,17.812-10.6-51.119c-1.886,34.11-68.374,116.063-68.374,116.063s-28.328-93.351-106.637-82.756-83.846,111.384-83.846,111.384-44.232-68.839-83.8-59.991-68.1,34.136-74.474,95.382c-14.862-20.907-61.08-64.352-99.114,12.506-27.706-63.636-117.445-75.878-197.144,19.372s-500.145,10.576-522,5.236v61.344H1709.019V650.1C1687.167,655.444,1652.818,694.154,1650.086,732.865Z" transform="translate(210.613 -650.104)"/>
</svg>
