<svg xmlns="http://www.w3.org/2000/svg" width="1090.22" height="711.609" viewBox="0 0 1090.22 711.609">
  <defs>
    <style>
      .cls-1 {
        fill: #333;
      }

      .cls-2 {
        fill: #f9cbc2;
      }

      .cls-3 {
        fill: #4d4d4d;
      }

      .cls-4 {
        fill: #ffc951;
      }

      .cls-5 {
        fill: #edae9f;
      }

      .cls-6 {
        fill: #8c4542;
      }

      .cls-7 {
        fill: #3baac4;
      }

      .cls-8 {
        fill: #e55577;
      }

      .cls-9 {
        fill: #5bbadc;
      }

      .cls-10 {
        fill: #fff;
      }

      .cls-11 {
        fill: #ebae41;
      }

      .cls-12 {
        fill: #f2bdb6;
      }

      .cls-13 {
        fill: #bc6c6c;
      }

      .cls-14 {
        fill: #d13f69;
      }

      .cls-15 {
        fill: #365156;
      }

      .cls-16 {
        fill: #405a60;
      }

      .cls-17 {
        fill: #516b72;
      }
    </style>
  </defs>
  <g id="Group_103" data-name="Group 103" transform="translate(-38.503 -171.262)">
    <path id="Path_509" data-name="Path 509" class="cls-1" d="M301.641,304.271,291.43,540.783l-9.537.473-8.87-235.566Z" transform="translate(383.649 217.588)"/>
    <path id="Path_510" data-name="Path 510" class="cls-1" d="M235.229,306.712l-6.464,229.017-9.527.645-12.6-227.727Z" transform="translate(275.056 221.581)"/>
    <g id="Group_64" data-name="Group 64" transform="translate(321.699 580.582)">
      <path id="Path_511" data-name="Path 511" class="cls-2" d="M229.279,414.845l-3.415-19.454-13.8,1.709.649,19.858,11.02,3.706Z" transform="translate(-37.771 -213.93)"/>
      <path id="Path_512" data-name="Path 512" class="cls-3" d="M211.669,416.606s50.7,5.865,66.725.245c0,0-.583-14.576-17.689-12.55a81.422,81.422,0,0,1-31.241-2.536s-4.368,9.584-16.511,1.4A62.747,62.747,0,0,0,211.669,416.606Z" transform="translate(-38.422 -203.502)"/>
      <path id="Path_513" data-name="Path 513" class="cls-4" d="M200.628,326.549s145.781,17.724,137.138,187.2l-21.1.6c.8-.026-.672-29.19-3.424-42.375-4.328-20.737-10.127-35.69-22.745-52.915-7.41-10.117-18.2-12-30.023-16.082-17.21-5.936-31.04-4.961-47.841-2.781-11.846,1.534-24.113,3.229-35.732.34-30.961-7.7-30.961-49.692-30.961-49.692Z" transform="translate(-145.941 -326.549)"/>
    </g>
    <g id="Group_75" data-name="Group 75" transform="translate(244.818 230.545)">
      <g id="Group_71" data-name="Group 71" transform="translate(0)">
        <g id="Group_69" data-name="Group 69">
          <g id="Group_67" data-name="Group 67">
            <g id="Group_66" data-name="Group 66">
              <g id="Group_65" data-name="Group 65">
                <path id="Path_514" data-name="Path 514" class="cls-1" d="M158.544,315.394a50.911,50.911,0,0,1-20.112-26.148c-.833-2.42-1.521-4.934-3.008-7.061-1.529-2.188-3.8-3.812-5.841-5.591-8.464-7.365-13.469-18.256-12.739-29.055a32.727,32.727,0,0,1,17.534-26.42c9.982-5.124,22.658-5.285,31.383-12.13,4.323-3.392,7.3-8.179,11.941-11.174,5.277-3.4,12.006-4.043,18.412-4.062,10.863-.029,23.4,2.491,28.352,11.545,2.921,5.335,2.385,11.922-.25,17.386s-7.159,9.948-12.057,13.809c-5.973,4.713-12.921,9.023-15.886,15.786-4.328,9.874,1.35,20.784,3.759,31.217,2.454,10.631,2.836,29.44-7.52,37.024C183.509,327.111,166.494,320.542,158.544,315.394Z" transform="translate(-116.774 -193.753)"/>
                <path id="Path_515" data-name="Path 515" class="cls-2" d="M166.567,344.6s.59-19.234,30.674-37.978C217.764,293.84,216.612,267.5,211.609,255c0,0,12.961-1.521,12.961-3.6S205.62,216.445,188.1,203.94l-29.045,7.3-30.028,20.837s37.535,60.43,22.521,106.274C151.553,338.352,154.054,346.687,166.567,344.6Z" transform="translate(-96.722 -177.088)"/>
                <path id="Path_516" data-name="Path 516" class="cls-1" d="M158.039,220.1a2.571,2.571,0,0,1-2.61,2.53c-1.442,0-1.856-1.133-1.856-2.53a2.484,2.484,0,0,1,2.507-2.533C157.523,217.57,158.039,218.7,158.039,220.1Z" transform="translate(-56.574 -154.791)"/>
                <path id="Path_517" data-name="Path 517" class="cls-5" d="M162.009,225.613c0,1.727-3.2,3.126-7.149,3.126s-7.149-1.4-7.149-3.126,4.987-3.126,8.936-3.126S162.009,223.887,162.009,225.613Z" transform="translate(-66.164 -146.747)"/>
                <path id="Path_518" data-name="Path 518" class="cls-1" d="M171.744,242.212c.411-4.149.954-10.525,5.694-11.187,20-2.791,27.229-8.807,29.019-11.382,2.573-3.706-3.337-9.186-5.823-12.932-2.009-3.031-6.389-4.312-10.451-5.048a85.652,85.652,0,0,0-51.115,6.558c-4.154,1.98-8.153,4.373-10.881,7.649-4.594,5.514-4.955,12.879-2.849,19.358,3.353,10.306,14.271,30.8,27.171,34.741C169.954,275.3,170.808,251.728,171.744,242.212Z" transform="translate(-104.788 -183.007)"/>
              </g>
            </g>
            <path id="Path_519" data-name="Path 519" class="cls-2" d="M153.207,232.42s-22.521-12.5-25.025-4.167,25.025,12.5,25.025,12.5Z" transform="translate(-98.376 -142.004)"/>
          </g>
          <g id="Group_68" data-name="Group 68" transform="translate(96.696 89.295)">
            <path id="Path_520" data-name="Path 520" class="cls-6" d="M163.566,229.942c-2.04.6-3.954,1.289-6.026.38-1.328-.583-1.914-1.589-2.928-2.5a.691.691,0,0,0-1.144.667c.232,1.592,2.409,2.918,3.764,3.411a6.319,6.319,0,0,0,6.708-1.318.387.387,0,0,0-.374-.643Z" transform="translate(-153.459 -227.63)"/>
          </g>
        </g>
        <g id="Group_70" data-name="Group 70" transform="translate(92.068 49.313)">
          <path id="Path_521" data-name="Path 521" class="cls-1" d="M154.471,220.115c2.185-.807,4.75-2.425,5.662-4.613.785-1.89-1.41-3.295-3-3a6.456,6.456,0,0,0-2.955,1.916,10.591,10.591,0,0,0-2.183,2.478c-.973,1.539.664,3.891,2.478,3.221Z" transform="translate(-151.703 -212.461)"/>
        </g>
      </g>
      <g id="Group_74" data-name="Group 74" transform="translate(5.57 157.488)">
        <g id="Group_73" data-name="Group 73">
          <path id="Path_522" data-name="Path 522" class="cls-7" d="M163.766,255.418s62.99,174.631,66.846,189.212l-64.4,33.832s-59.081-83.133-20.528-223.529Z" transform="translate(-96.42 -251.157)"/>
          <g id="Group_72" data-name="Group 72" transform="translate(0 53.89)">
            <path id="Path_523" data-name="Path 523" class="cls-1" d="M202.949,365.906s-70.942,152.133-71.285,156.738c2.428,4.476,5.709.7,5.709.7l76.193-152.42Z" transform="translate(-97.987 -123.507)"/>
            <path id="Path_524" data-name="Path 524" class="cls-1" d="M206.158,365.734s51.985,159.609,51.766,164.221c-2.617,4.354-5.752,0-5.752,0L195.013,369.424Z" transform="translate(5.645 -123.788)"/>
            <path id="Path_525" data-name="Path 525" class="cls-1" d="M132.631,334.524S285,318.954,303.8,325.417s18.8,90.77,18.8,90.77H291.747s.8-68.2-5.533-76.815-153.583,3.751-153.583,3.751Z" transform="translate(-96.405 -192.312)"/>
            <path id="Path_526" data-name="Path 526" class="cls-8" d="M119.875,273.945h28.1s-36.33,237.365,212.806,206.8c0,0,5.978,39.557,0,49.673C360.785,530.417,100.938,638.977,119.875,273.945Z" transform="translate(-118.888 -273.945)"/>
          </g>
          <path id="Path_527" data-name="Path 527" class="cls-9" d="M318.361,380.346c-6.031-1.605-58.319-3.761-100.053-49.963-18.275-20.23-31.57-57.117-55.33-72.622-11.6-7.565-24.619-5.177-28.692,8.121-1.708,5.578-1.386,11.88-.174,17.911,7.238,35.975,50.578,75.985,82.514,90.34,22.924,10.3,74.343,15.623,99.869,12.56Z" transform="translate(-95.632 -253.5)"/>
        </g>
      </g>
    </g>
    <g id="Group_89" data-name="Group 89" transform="translate(519.415 171.262)">
      <g id="Group_77" data-name="Group 77" transform="translate(0 503.446)">
        <g id="Group_76" data-name="Group 76" transform="translate(0.428)">
          <path id="Path_528" data-name="Path 528" class="cls-2" d="M240.009,386.112l10.054-23.854,14.043,6.675-10.438,31.931-13.018-5.123Z" transform="translate(-190.2 -362.259)"/>
          <path id="Path_529" data-name="Path 529" class="cls-3" d="M280.268,406.068s-63.211-29.778-58.949-39.22c0,0-1.542-7.486,22.381.04,19.785,6.221,28.568,13.949,28.568,13.949s-3.369,10.5,14.131,12.386C286.4,393.223,286.513,402.409,280.268,406.068Z" transform="translate(-221.113 -360.174)"/>
        </g>
        <path id="Path_530" data-name="Path 530" class="cls-10" d="M221.585,364.791s15.731,15.837,60.457,38.107l-2.03,2.678s-49.6-22.587-58.635-37.493C220.559,366.734,221.081,365.9,221.585,364.791Z" transform="translate(-220.95 -358.116)"/>
      </g>
      <g id="Group_79" data-name="Group 79" transform="translate(43.71 593.939)">
        <g id="Group_78" data-name="Group 78">
          <path id="Path_531" data-name="Path 531" class="cls-2" d="M257.287,427.221l-.452-26.067,14.373-4.564,4.6,34.788-12.641,3.5Z" transform="translate(-205.956 -396.59)"/>
          <path id="Path_532" data-name="Path 532" class="cls-3" d="M308.871,423.238s-69.11,10.312-70.805.095c0,0-5.469-5.493,18.638-12.391,20.188-5.775,32.116-3.4,32.116-3.4s2.42,9.753,18.019,1.605A25.481,25.481,0,0,1,308.871,423.238Z" transform="translate(-237.533 -379.46)"/>
        </g>
        <path id="Path_533" data-name="Path 533" class="cls-10" d="M237.735,414.348s21.393,4.5,70.958-1.795l.282,3.295s-49.821,7.9-67.951,2.225C238.4,417.25,237.735,415.647,237.735,414.348Z" transform="translate(-237.202 -370.475)"/>
      </g>
      <path id="Path_534" data-name="Path 534" class="cls-10" d="M404.367,321.094s-156.551-10.6-147.6,211.791l18.989,1.342s4.66-161.949,123.278-164.712l8.082-43.9" transform="translate(-162.97 73.715)"/>
      <path id="Path_535" data-name="Path 535" class="cls-10" d="M404.329,321.566S270.2,302.93,241.8,447.045l19.023,8.7s30.078-117.1,173.11-58.788l61.34-14.59-4.447-41.6-39.541-27.553Z" transform="translate(-186.839 60.954)"/>
      <path id="Path_536" data-name="Path 536" class="cls-2" d="M330.631,294.879s-44.744,4.191-46.816,18.994h38.742l15.7-12.56Z" transform="translate(-118.111 30.962)"/>
      <path id="Path_537" data-name="Path 537" class="cls-1" d="M450.764,243.086S349.1,360.868,300.12,377.907l9.286,16.493S420.074,350.9,454.878,280.213Z" transform="translate(-91.437 -53.766)"/>
      <path id="Path_538" data-name="Path 538" class="cls-1" d="M467.024,245.455s22.405,201.124-78.713,245.852l-83.843-58.617s101.189-82.638,143.3-188.978Z" transform="translate(-84.323 -52.74)"/>
      <g id="Group_80" data-name="Group 80" transform="translate(149.107 231.587)">
        <path id="Path_539" data-name="Path 539" class="cls-1" d="M348.865,347.233s55.275,158.5,55.153,163.114c-2.868,4.21-5.751.121-5.751.121L337.8,351.153Z" transform="translate(-178.909 -114.979)"/>
        <path id="Path_540" data-name="Path 540" class="cls-1" d="M325.875,352.545S277.206,513.2,277.52,517.8c2.707,4.3,5.751-.119,5.751-.119L337.094,356Z" transform="translate(-277.518 -106.289)"/>
        <path id="Path_541" data-name="Path 541" class="cls-1" d="M478.529,318.07s-152.663-12.415-171.323-5.562-16.917,91.139-16.917,91.139l30.848-.64s-2.209-68.167,3.941-76.913,153.628.572,153.628.572Z" transform="translate(-256.697 -175.16)"/>
        <path id="Path_542" data-name="Path 542" class="cls-8" d="M522,259.121l-28.1.58S535.14,496.262,285.423,470.86c0,0-5.156,39.673,1.028,49.665C286.451,520.525,548.491,623.681,522,259.121Z" transform="translate(-267.883 -259.121)"/>
      </g>
      <g id="Group_84" data-name="Group 84" transform="translate(247.094)">
        <path id="Path_543" data-name="Path 543" class="cls-1" d="M401.739,244.374s78.676,71.285,65.758,140.108c-8.213,43.758-123.12,34.048-123.12,34.048l2.148-14.537s90.683-4.128,91.06-26.691c.751-44.987-45.672-73.736-45.672-73.736l-9.434-20.32Z" transform="translate(-266.132 -51.659)"/>
        <path id="Path_544" data-name="Path 544" class="cls-11" d="M326.671,195.878s14.69,70.948,36.431,61.83l-17.154-64.284Z" transform="translate(-295.097 -135.008)"/>
        <path id="Path_545" data-name="Path 545" class="cls-11" d="M384.009,192.1s10.167,63.7-14.59,65.945c-15.591,1.415-6.134-13.894-6.134-13.894l12.953-48.569Z" transform="translate(-239.848 -137.169)"/>
        <g id="Group_81" data-name="Group 81" transform="translate(31.576 22.998)">
          <path id="Path_546" data-name="Path 546" class="cls-12" d="M350.182,212.2s-23.053-8.8-23.5.358,25.312,8.332,25.312,8.332Z" transform="translate(-326.672 -133.524)"/>
          <path id="Path_547" data-name="Path 547" class="cls-2" d="M334.351,201.393s-18.628,68.515,40.121,111.322c0,0,17.914,9.133,27.943,32.063,0,0,8.6,7.164,14.329,0,0,0,0-42.891,3.585-58.345s10.747-51.276,5.013-70.621a273.6,273.6,0,0,0-13.612-35.824Z" transform="translate(-318.698 -179.987)"/>
          <path id="Path_548" data-name="Path 548" class="cls-2" d="M371.3,217.962s24.118-5.227,19.492-13.145-25.755,6.859-25.755,6.859Z" transform="translate(-263.914 -143.184)"/>
        </g>
        <path id="Path_549" data-name="Path 549" class="cls-11" d="M357.5,246.053a62.706,62.706,0,0,1-11.508-2c-6.537-1.771-12.961-4.513-17.964-9.078-18.37-16.759-20.115-58.04,9.829-63.256,12-2.093,23.778,3.558,35.49,6.888a95.139,95.139,0,0,0,34.388,3.24c12.858-1.149,27.54-4.412,37.353,3.975,4.753,4.059,7.241,10.119,9.286,16.024,4.4,12.718,4.394,27.782,6.192,41.12.438,3.24.045,10.52-3.021,11.653a4.256,4.256,0,0,0-2.852,3.677c-9.423,14.223-7.905-19.253-9.009-23.7-.891-3.582-3.83-10.7-6.6-12.078-4.89-2.422-18.4,7.354-23.673,9.294C395.829,239,377.829,247.653,357.5,246.053Z" transform="translate(-314.693 -171.262)"/>
        <g id="Group_82" data-name="Group 82" transform="translate(80.024 81.532)">
          <path id="Path_550" data-name="Path 550" class="cls-13" d="M349.849,202.609c-1.75,6.519-3.6,13.082-4.368,19.806-.419,3.672-1.255,10.678,1.8,13.775,3.337,3.387,7.03-2.839,7.771-5.912.127-.532-.588-1.052-.988-.575-1.1,1.315-1.89,3.411-3.2,4.415-3.891,2.976-4.03-5.2-3.949-8.01.229-7.85,2.182-15.6,4.065-23.188a.585.585,0,0,0-1.128-.311Z" transform="translate(-345.052 -202.193)"/>
        </g>
        <g id="Group_83" data-name="Group 83" transform="translate(91.229 120.581)">
          <path id="Path_551" data-name="Path 551" class="cls-6" d="M349.5,220.253a7.693,7.693,0,0,0,7.141,1.626c2.159-.5,4.971-1.887,5.293-4.307.063-.467-.527-.68-.872-.5-1.682.886-2.7,2.351-4.645,2.881a9.4,9.4,0,0,1-6.184-.654c-.577-.253-1.286.448-.733.954Z" transform="translate(-349.303 -217.008)"/>
        </g>
        <path id="Path_552" data-name="Path 552" class="cls-1" d="M361.309,204.737a2.965,2.965,0,0,1-.037,4.194c-1.168,1.186-2.433.606-3.582-.527a2.866,2.866,0,0,1-.047-4.109C358.813,203.111,360.159,203.6,361.309,204.737Z" transform="translate(-245.813 -118.341)"/>
        <path id="Path_553" data-name="Path 553" class="cls-1" d="M345.536,209.732a2.968,2.968,0,0,1-3.674,2.024c-1.605-.438-1.721-1.824-1.3-3.379a2.865,2.865,0,0,1,3.558-2.059C345.728,206.756,345.96,208.174,345.536,209.732Z" transform="translate(-272.713 -114.089)"/>
        <path id="Path_554" data-name="Path 554" class="cls-1" d="M344.377,204.647l13.57-1.08v3.486l-13.57,1.089Z" transform="translate(-266.132 -118.415)"/>
        <path id="Path_555" data-name="Path 555" class="cls-1" d="M351.667,201.361H348.9s.221,31.749,17.676,28.557,17.945-28.557,17.945-28.557S353,201.53,351.667,201.361Zm14.943,24.68c-12.676,2.32-12.837-20.739-12.837-20.739h2.011c.965.121,23.86,0,23.86,0S379.286,223.721,366.61,226.041Z" transform="translate(-258.738 -122.024)"/>
        <path id="Path_556" data-name="Path 556" class="cls-1" d="M331.17,208.62s4.861,24.9,22.605,25.033,12.481-31.177,12.481-31.177l-2.728.477C362.247,203.346,331.17,208.62,331.17,208.62Zm5.483,3.039s22.571-3.83,23.5-4.117l1.98-.345s3.822,22.74-9.065,22.642S336.653,211.659,336.653,211.659Z" transform="translate(-287.737 -120.2)"/>
        <path id="Path_557" data-name="Path 557" class="cls-1" d="M362.206,202.006l24.01,2.378-5.226,2.188H361.439Z" transform="translate(-238.22 -120.968)"/>
        <path id="Path_558" data-name="Path 558" class="cls-10" d="M361.791,244.28a13.277,13.277,0,0,0,14.344-2.86l5.97,7.786-5.353,19.068-8.619-20.057-11.754,14.571,2.351-16.978Z" transform="translate(-246.498 -56.491)"/>
      </g>
      <g id="Group_86" data-name="Group 86" transform="translate(244.141 382.107)">
        <g id="Group_85" data-name="Group 85">
          <path id="Path_559" data-name="Path 559" class="cls-3" d="M347.342,316.225l-19.5,314.141H313.572L315,316.225Z" transform="translate(-313.572 -316.225)"/>
        </g>
      </g>
      <path id="Path_560" data-name="Path 560" class="cls-1" d="M302.964,325.172l-12.016-44.133-6.192,1.935,12.492,44.587Z" transform="translate(-116.57 8.321)"/>
      <path id="Path_561" data-name="Path 561" class="cls-10" d="M270,312.155l.23-12.788,121.865,2.417,2.025,12.24" transform="translate(-140.715 38.304)"/>
      <path id="Path_562" data-name="Path 562" class="cls-5" d="M370.834,215.484c0,1.763-2.95,3.192-6.59,3.192s-6.587-1.429-6.587-3.192,4.6-3.195,8.234-3.195S370.834,213.72,370.834,215.484Z" transform="translate(2.687 -104.147)"/>
      <path id="Path_563" data-name="Path 563" class="cls-5" d="M339.03,220.861c-.572-1.669,1.755-3.978,5.2-5.156s6.7-.78,7.267.888-3.313,4.51-6.756,5.688S339.6,222.53,339.03,220.861Z" transform="translate(-27.927 -99.666)"/>
      <g id="Group_87" data-name="Group 87" transform="translate(351.524 65.975)">
        <path id="Path_564" data-name="Path 564" class="cls-11" d="M355.748,200.963a31.768,31.768,0,0,0,5.733.683c1.856.061,4.054.556,5.343-1.091a2.259,2.259,0,0,0,0-3.058c-1.289-1.645-3.49-1.149-5.343-1.089a31.8,31.8,0,0,0-5.733.683,2.023,2.023,0,0,0,0,3.872Z" transform="translate(-354.311 -196.292)"/>
      </g>
      <g id="Group_88" data-name="Group 88" transform="translate(303.454 75.985)">
        <path id="Path_565" data-name="Path 565" class="cls-11" d="M337.834,205.626a16.55,16.55,0,0,0,6.292-.786,2.449,2.449,0,0,0,1.729-2.652,2.39,2.39,0,0,0-2.372-2.093,17.509,17.509,0,0,0-6.542,2.23c-1.6.846-.8,3.268.893,3.3Z" transform="translate(-336.074 -200.089)"/>
      </g>
    </g>
    <g id="Group_90" data-name="Group 90" transform="translate(574.186 454.787)">
      <path id="Path_566" data-name="Path 566" class="cls-8" d="M247.167,347.634l-5.438-66.665,60.147-2.144-1.7,66.919Z" transform="translate(-241.729 -278.825)"/>
      <path id="Path_567" data-name="Path 567" class="cls-8" d="M262.139,296.488s22.381-25.157,34.757-12.065-33.737,40.719-33.737,40.719l-.385-10.812s25.658-16.893,25.742-25.278-23.971,14.236-23.971,14.236Z" transform="translate(-208.34 -275.844)"/>
      <path id="Path_568" data-name="Path 568" class="cls-14" d="M241.729,279.874l10.652-.38s-.011,59.793,28.476,65.684l-33.689,1.363Z" transform="translate(-241.729 -277.731)"/>
    </g>
    <path id="Path_569" data-name="Path 569" class="cls-1" d="M160.466,406.777,157.4,374.324H286.62L346.44,255.7l9.242,2.35L294.953,415.106Z" transform="translate(194.505 138.128)"/>
    <g id="Group_91" data-name="Group 91" transform="translate(574.703 355.204)">
      <path id="Path_570" data-name="Path 570" class="cls-10" d="M271.844,298.118a18.962,18.962,0,0,1-5.6-13.772c.029-1.307.169-2.715-.53-3.819-1.307-2.061-4.336-1.626-6.774-1.769-5.306-.306-9.552-4.431-12.834-8.614-2.351-3-4.592-6.785-3.435-10.417,1.112-3.474,4.879-5.3,8.372-6.353,7.154-2.164,14.917-2.768,22.11-.735s13.736,6.9,16.909,13.667c2,4.257,2.151,10.219-1.787,12.787-2.019,1.318-4.581,1.373-6.993,1.387l-7.752.04a1.492,1.492,0,0,0-1.819,1.732c-.3,4.584-.878,10.148.137,15.868" transform="translate(-241.226 -224.119)"/>
      <path id="Path_571" data-name="Path 571" class="cls-10" d="M242.47,252.431c2.056-6.511,9.468-9.632,16.213-10.691a59.916,59.916,0,0,1,21.564.625,32.5,32.5,0,0,1,12.035,4.739,16.633,16.633,0,0,1,7.149,10.475c.872,5.087-1.342,10.3-4.634,14.271-7.1,8.567-22.969,13.918-33.086,7.47-4.125-2.631-7.61-6.748-11.574-9.7C244.921,265.727,240.311,259.266,242.47,252.431Z" transform="translate(-241.925 -241.046)"/>
    </g>
    <g id="Group_95" data-name="Group 95" transform="translate(786.052 241.739)">
      <g id="Group_93" data-name="Group 93">
        <path id="Path_572" data-name="Path 572" class="cls-12" d="M364.481,368.031s-92.87,63.283,34.6,171.807l9.125-3.226-1.128-6.252s-90.973-98.208-15.757-153.369l-5.633-30.11Z" transform="translate(-306.214 45.554)"/>
        <path id="Path_573" data-name="Path 573" class="cls-15" d="M388.2,416.489s20.86,17.784,17.695,22.89-12-5.008-12-5.008-13.973,31.217-40.685,35.084,8.648-21.91,15.267-29.651a34.976,34.976,0,0,0,7.536-17.473S382.839,427.947,388.2,416.489Z" transform="translate(-287.334 159.426)"/>
        <path id="Path_574" data-name="Path 574" class="cls-2" d="M374.877,352.479s-108.319,60.478-9.827,195.849l8.337-.445,1.658-6.9S309.618,424.2,395.664,388.2l1.581-30.589Z" transform="translate(-319.522 54.712)"/>
        <path id="Path_575" data-name="Path 575" class="cls-2" d="M355.841,281.126s-18.066-51.255-19.421-58.029-9.033-6.324-8.129,2.259,8.129,24.514,8.129,24.514-17.065,2.132-12.37,12.07,23.662,23.486,23.662,23.486Z" transform="translate(-320.265 -164.59)"/>
        <path id="Path_576" data-name="Path 576" class="cls-7" d="M347.325,239.86c9.858,14.107,27.619,50.324,88.442,63.625,26.633,5.825,65.254-.938,90.506,11.993,12.323,6.31,16.714,18.8,7.191,28.937-4,4.252-9.626,7.1-15.462,9.041-34.825,11.572-96.568,1.336-135.643-33.861-18.675-16.822-42.483-47.422-52.494-71.1Z" transform="translate(-309.414 -129.521)"/>
        <path id="Path_577" data-name="Path 577" class="cls-7" d="M418.066,268.842s-63.622,102.652-22.329,97.76c0,0-8.24,73.934-12.1,88.516l68.823,24.709s44.191-90.722,26.174-211.227Z" transform="translate(-224.453 -82.505)"/>
        <path id="Path_578" data-name="Path 578" class="cls-1" d="M381.876,247.553c-2.291,16.187,15.373,41.21,14.073,57.52-3.5,43.864-2.855,111.928,57.721,87.825,4.771-1.9,9.632-4.557,14.716-3.825,4.953.714,8.923,4.584,11.482,8.886s3.777,9.3,6.342,13.6c17.06,28.581,83.518.482,81.059-41.895-1.806-31.077-26.122-32.29-44.937-52.019-21.472-22.516-18.135-50.335-29.825-77.218a71.3,71.3,0,0,0-44.033-39.217c-14.9-4.523-38.887-5.33-52.151,4.615-10.051,7.536-13.672,19.619-13.024,30.479.134,2.254-.5,4.484-.8,6.69Q382.2,245.275,381.876,247.553Z" transform="translate(-224.665 -198)"/>
        <path id="Path_579" data-name="Path 579" class="cls-2" d="M408.225,206.821s-38.368,63.559-36.518,67.26,12.457,4.32,12.457,4.32S379.531,332.134,411,335.837l38.877-77.192Z" transform="translate(-241.071 -183.569)"/>
        <path id="Path_580" data-name="Path 580" class="cls-1" d="M382.334,225.544c1.031,7.417,4.257,10.2,10.636,17.37,23.987,26.986,8.538,60.792-.09,84.38-5.106,13.952-8.543,30.421-.575,42.96,7.467,11.753,22.587,16.05,36.489,16.851q14.02-25.23,28.041-50.454c2.293-4.125,4.629-8.387,5.19-13.074a36.528,36.528,0,0,0-.651-9.99L446.4,218.83q-25.688-7.129-51.376-14.255C386.129,207.485,381.482,219.412,382.334,225.544Z" transform="translate(-223.744 -187.243)"/>
        <path id="Path_581" data-name="Path 581" class="cls-1" d="M386.068,225.885a2.969,2.969,0,0,1-1.031,4.067c-1.415.872-2.507.01-3.355-1.363a2.866,2.866,0,0,1,.93-4C384.028,223.714,385.222,224.512,386.068,225.885Z" transform="translate(-225.386 -155.103)"/>
        <path id="Path_582" data-name="Path 582" class="cls-6" d="M387.158,239.041c1.479-.812,2.789-2.3,4.339-2.739,2.241-.635,4.586,1.381,5.533,4.394,1.289,4.109-1.392,7.6-4.771,9.676a10.108,10.108,0,0,1-4.945,1.695c-5.506.134-10.467-6.258-7.945-11.406C381.014,237.3,384.612,240.436,387.158,239.041Z" transform="translate(-229.536 -135.532)"/>
        <path id="Path_583" data-name="Path 583" class="cls-3" d="M525.057,364.07s-57.789,87.541-159.664,72.558l-27.967-53.875s48.843-41.779,118.808-43.392C456.234,339.361,508.936,353.437,525.057,364.07Z" transform="translate(-297.045 33.252)"/>
        <path id="Path_584" data-name="Path 584" class="cls-16" d="M377.63,423.995s16.113,22.178,11.835,26.4-10.491-7.681-10.491-7.681-20.9,27.073-47.77,24.574,13.541-19.274,21.788-25.252a34.955,34.955,0,0,0,11.421-15.22S369.733,433.88,377.63,423.995Z" transform="translate(-322.106 171.705)"/>
        <g id="Group_92" data-name="Group 92" transform="translate(29.807 233.03)">
          <path id="Path_585" data-name="Path 585" class="cls-1" d="M400.945,378.195S452.93,537.8,452.711,542.416c-2.952,4.149-5.752,0-5.752,0L389.8,381.885Z" transform="translate(-241.174 -136.249)"/>
          <path id="Path_586" data-name="Path 586" class="cls-1" d="M385.182,378.195S333.2,537.8,333.415,542.416c2.62,4.354,5.754,0,5.754,0l57.159-160.531Z" transform="translate(-333.415 -136.249)"/>
          <path id="Path_587" data-name="Path 587" class="cls-1" d="M533.043,346.985s-152.373-15.57-171.172-9.107-8.917,93.9-8.917,93.9H383.81s-10.681-71.335-4.352-79.949,153.586,3.751,153.586,3.751Z" transform="translate(-305.697 -204.773)"/>
          <path id="Path_588" data-name="Path 588" class="cls-8" d="M584.2,286.406h-28.1s36.328,237.365-212.809,206.8c0,0-5.976,39.557,0,49.673C343.285,542.878,603.132,651.438,584.2,286.406Z" transform="translate(-321.612 -286.406)"/>
        </g>
        <path id="Path_589" data-name="Path 589" class="cls-2" d="M382.257,332.059s-25.626,2.512-23.955,11.548,16.511,9.381,19.54,4.921a49.945,49.945,0,0,0,4.415-7.76l8.074-2.755Z" transform="translate(-263.023 21.307)"/>
        <path id="Path_590" data-name="Path 590" class="cls-2" d="M364.949,334.917s-9.334,12.088-9.869,15.554,2.934,12.534,4.934,12.267,1.806-6.716-.026-12.8l8.962-9.737Z" transform="translate(-268.255 25.983)"/>
        <path id="Path_591" data-name="Path 591" class="cls-2" d="M376.153,334.1s-15.243.941-18.2,2.823-7.5,10.465-5.981,11.8,6.245-3.068,9.613-8.456l13.232.327Z" transform="translate(-273.745 24.644)"/>
        <path id="Path_592" data-name="Path 592" class="cls-2" d="M360.086,337.028s-2.185,13.359-1.215,15.786,6.558,8.016,8.988,6.8-.422-8-4.795-9.471l2.428-10.591-6.869-3.622" transform="translate(-262.37 27.643)"/>
        <path id="Path_593" data-name="Path 593" class="cls-9" d="M366.844,436.94c5.188-3.469,55.949-16.622,80.521-73.829,10.757-25.049,11.424-64.253,28.9-86.6,8.527-10.9,21.625-12.853,29.775-1.582,3.419,4.726,5.15,10.794,5.952,16.893,4.771,36.383-23.317,88.25-48.9,112.152-18.367,17.16-65.312,38.8-90.456,44.151Z" transform="translate(-248.921 -84.549)"/>
      </g>
      <path id="Path_594" data-name="Path 594" class="cls-5" d="M395.411,233.113c0,1.763-2.949,3.195-6.587,3.195s-6.59-1.431-6.59-3.195,4.6-3.192,8.237-3.192S395.411,231.35,395.411,233.113Z" transform="translate(-223.744 -145.78)"/>
      <g id="Group_94" data-name="Group 94" transform="translate(156.181 57.019)">
        <path id="Path_595" data-name="Path 595" class="cls-1" d="M382,223.481a13.531,13.531,0,0,0,3.88,2.364c1.6.73,3.253,1.595,4.926.6a2.436,2.436,0,0,0,1.091-2.686c-.464-1.866-2.241-2.417-3.859-3.031a13.59,13.59,0,0,0-4.444-1.091A2.277,2.277,0,0,0,382,223.481Z" transform="translate(-381.358 -219.632)"/>
      </g>
    </g>
    <path id="Path_596" data-name="Path 596" class="cls-3" d="M155.642,312.607c.111,0,483.162-10.422,483.162-10.422v55.264l-483.162-9.321Z" transform="translate(191.628 214.176)"/>
    <g id="Group_101" data-name="Group 101" transform="translate(38.503 202.095)">
      <path id="Path_597" data-name="Path 597" class="cls-2" d="M147.957,322.125s17.755-4,20.146-4.531c0,0-10.625-33.742,1.595-35.6s17.27,3.722,16.741,6.113-14.35-.266-14.35-.266l1.328,14.036s15.146-13.733,21.256-4.452,3.189,15.923,0,15.923-3.453-9.12-6.11-10.8-12.223,4.692-12.223,4.692S197.064,317.889,196,322.125s-4.515,9.286-7.971,8.754,1.861-9.3.8-10.628-10.628-4.262-10.628-4.262,1.595,8.78.266,10.639-30.51,1.861-30.51,1.861Z" transform="translate(140.553 -21.563)"/>
      <g id="Group_96" data-name="Group 96" transform="translate(280.884 594.82)">
        <path id="Path_598" data-name="Path 598" class="cls-2" d="M164.241,431.813,160.1,408.621l-14.734,2.436,1.193,23.754,11.892,4.124Z" transform="translate(-144.573 -408.621)"/>
        <path id="Path_599" data-name="Path 599" class="cls-8" d="M145.247,434.489s54.434,5.585,71.446-1.592c0,0-.986-17.434-19.253-14.526a78.343,78.343,0,0,1-33.513-2.151s-4.436,11.6-17.642,2.143A83.6,83.6,0,0,0,145.247,434.489Z" transform="translate(-144.826 -396.191)"/>
        <path id="Path_600" data-name="Path 600" class="cls-10" d="M216.932,431.8s.672-16.018-15.272-14.84c0,0-1.919,11.7-2.7,15.979,0,0-48.247,2.246-53.891-.78l.208,4.186S200.681,442.1,216.932,431.8Z" transform="translate(-145.064 -395.089)"/>
      </g>
      <g id="Group_97" data-name="Group 97" transform="translate(343.445 603.941)">
        <path id="Path_601" data-name="Path 601" class="cls-2" d="M189.892,435.5l-3.344-23.418-16.673,1.5v23.792l13.114,4.871Z" transform="translate(-167.036 -412.081)"/>
        <path id="Path_602" data-name="Path 602" class="cls-8" d="M168.951,436.811s60.778,9.025,80.279,2.934c0,0-.127-17.468-20.792-15.72a98.5,98.5,0,0,1-37.49-4.27s-5.633,11.3-19.922,1.023A74.569,74.569,0,0,0,168.951,436.811Z" transform="translate(-168.548 -399.53)"/>
        <path id="Path_603" data-name="Path 603" class="cls-10" d="M249.48,437.133s1.653-15.95-16.306-15.781c0,0-2.812,11.553-3.938,15.781,0,0-54.276-.812-60.438-4.194v4.194S230.66,446.4,249.48,437.133Z" transform="translate(-168.798 -396.918)"/>
      </g>
      <path id="Path_604" data-name="Path 604" class="cls-7" d="M148.651,347.023s85.743,50.939,62.758,174.325H192.175s1.207-118.718-76.164-146.308Z" transform="translate(88.293 85.431)"/>
      <path id="Path_605" data-name="Path 605" class="cls-9" d="M173.614,329.576s177.912,21.143,160.842,223.629h-21.82c.965,0-4.17-41-4.608-43.416-4.513-24.967-12.217-50.667-26.72-71.783-8.519-12.4-20.088-23.1-34.151-28.449-20.476-7.786-38.5.851-58.8,2.794-14.313,1.368-28.8,1.376-43.01-1.007a117.277,117.277,0,0,1-45.121-18.082c-8.756-21.693-11.553-46.207-19.427-65.713l29.25,23.1Z" transform="translate(30.69 53.574)"/>
      <path id="Path_606" data-name="Path 606" class="cls-11" d="M105.246,250.767s-102.323,104.645,20.4,268.1c0,0,39.241-41.808,73.389-63.686,0,0-62.262-62.539-75.458-201.514Z" transform="translate(5.27 -72.034)"/>
      <g id="Group_98" data-name="Group 98" transform="translate(52.033)">
        <path id="Path_607" data-name="Path 607" class="cls-8" d="M164.894,186.15c-7.41-4.08-16.888-4.154-24.661-.754a32.778,32.778,0,0,0-16.9,17.689c-1.582,3.9-2.472,8.1-4.763,11.656-4.676,7.265-13.912,10.2-22.215,13.248-11.7,4.291-23.251,10.056-31.23,19.334a28.326,28.326,0,0,0-5.754,9.742,29.822,29.822,0,0,0-1.078,10.277,58.555,58.555,0,0,0,23.138,43.508c5.607,4.244,12.5,8.227,14.02,14.927.353,1.547.382,3.155.807,4.684a9.231,9.231,0,0,0,2.62,4.2l-.011.026s13.433,14.231,25.315-6.637l3.624-11.065-5.035-2.9c.013-.878.029-1.745.061-2.588.385-10.478,5.875-20.644,7.154-31.225,1.323-10.971,2.71-23.262,11.59-30.271,3.738-2.95,8.393-4.56,12.7-6.669,10.989-5.377,20.3-14.766,23.159-26.293S175.593,192.044,164.894,186.15Z" transform="translate(-58.243 -182.959)"/>
        <path id="Path_608" data-name="Path 608" class="cls-2" d="M129.16,207.079s34.92,44.676,34.92,51.062c0,2.13-12.771,6.418-12.771,6.418s13.29,44.707-28.794,55.351c-14.144,3.577-20.781,11.482-23.362,20.4,0,0-5.433.888-18.723-7.628,0,0,13.29-25.547,4.431-51.094L80.43,268.817l4.431-55.351,35.44-12.774Z" transform="translate(-21.947 -153.951)"/>
        <path id="Path_609" data-name="Path 609" class="cls-2" d="M95.947,231S76.012,218.222,73.8,226.739s22.152,12.774,22.152,12.774Z" transform="translate(-33.034 -116.13)"/>
        <path id="Path_610" data-name="Path 610" class="cls-8" d="M100.6,262.41c.266-4.658-2.093-9.178-1.832-13.836.369-6.592,5.881-11.914,11.854-15.172s12.708-5.153,18.459-8.762,14.74-12.173,13.836-18.715c-.662-4.774-8.488-6.379-12.966-8.538s-9.639-2.652-14.645-2.459a57.724,57.724,0,0,0-14.714,2.507,33.318,33.318,0,0,0-9.531,4.436,31.793,31.793,0,0,0-7.375,7.715c-8.588,12.149-10.918,27.856-7.33,42.027,1.629,6.434,7.921,20.157,13.4,24.566C96.351,281.486,100.21,269.25,100.6,262.41Z" transform="translate(-31.271 -163.442)"/>
        <path id="Path_611" data-name="Path 611" class="cls-5" d="M105.813,226.542c0,1.763-2.95,3.195-6.587,3.195s-6.59-1.431-6.59-3.195,4.6-3.192,8.235-3.192S105.813,224.779,105.813,226.542Z" transform="translate(-1.979 -116.885)"/>
        <path id="Path_612" data-name="Path 612" class="cls-1" d="M103.044,219.245a2.968,2.968,0,0,1-3.013,2.918c-1.663,0-2.14-1.307-2.14-2.918a2.864,2.864,0,0,1,2.892-2.921C102.448,216.324,103.044,217.631,103.044,219.245Z" transform="translate(6.617 -128.379)"/>
        <path id="Path_613" data-name="Path 613" class="cls-6" d="M109.113,229.258c-1.479-.548-2.789-1.555-4.339-1.853a5.241,5.241,0,0,0-5.533,2.973,3.67,3.67,0,0,0,.108,3.437,5.38,5.38,0,0,0,1.784,1.584,16.626,16.626,0,0,0,7.3,2.71c3.506.311,12.009-2.86,8.466-7.752C115.257,228.083,111.659,230.2,109.113,229.258Z" transform="translate(8.216 -110.381)"/>
      </g>
      <path id="Path_614" data-name="Path 614" class="cls-4" d="M273.107,357.14c-26.5-3.914-91.476-13.562-109.382-35.113-17.547-21.119-29.725-49.141-55.615-61.722-12.747-6.194-27.1-2.085-31.633,12.27-1.927,6.118-1.558,12.76-.166,19.023,8.5,38.173,50.464,65.657,85.975,75.128,24.949,6.656,86.882,10.754,111.28,2.3Z" transform="translate(21.447 -61.001)"/>
      <path id="Path_615" data-name="Path 615" class="cls-17" d="M88.169,352.479" transform="translate(42.746 94.356)"/>
      <path id="Path_616" data-name="Path 616" class="cls-4" d="M84.961,247.16c.538-.48,23.069,4.191,25.376,10.675,1.342,3.777-7.22,14.374-7.228,14.313s-22.033-10.074-23.976-13.606C79.133,258.542,81.893,249.888,84.961,247.16Z" transform="translate(27.964 -77.99)"/>
      <g id="Group_99" data-name="Group 99" transform="translate(0 238.911)">
        <path id="Path_617" data-name="Path 617" class="cls-1" d="M110.01,367.285S58.025,526.894,58.243,531.506c2.955,4.149,5.754,0,5.754,0l57.159-160.531Z" transform="translate(-6.21 -120.333)"/>
        <path id="Path_618" data-name="Path 618" class="cls-1" d="M126.687,366.938s64.677,154.9,64.83,159.516c-2.259,4.552-5.733.464-5.733.464l-69.909-155.4Z" transform="translate(88.07 -120.901)"/>
        <path id="Path_619" data-name="Path 619" class="cls-1" d="M52.245,334.177s152.373-15.573,171.172-9.11,18.8,90.772,18.8,90.772H211.361s.8-68.2-5.53-76.818-153.586,3.751-153.586,3.751Z" transform="translate(-16.022 -191.966)"/>
        <path id="Path_620" data-name="Path 620" class="cls-8" d="M39.489,273.6h28.1S31.263,510.959,280.4,480.393c0,0,5.978,39.557,0,49.676C280.4,530.069,20.553,638.626,39.489,273.6Z" transform="translate(-38.503 -273.597)"/>
      </g>
      <g id="Group_100" data-name="Group 100" transform="translate(149.013 76.287)">
        <path id="Path_621" data-name="Path 621" class="cls-8" d="M97.094,220.4a8.777,8.777,0,0,0,3.978-1.9c1.249-1.017,2.546-1.871,3.034-3.471a2.532,2.532,0,0,0-3.079-3.079c-1.531.285-2.675,1.7-3.74,2.765a8.818,8.818,0,0,0-2.169,3.709,1.623,1.623,0,0,0,1.977,1.977Z" transform="translate(-95.035 -211.901)"/>
      </g>
    </g>
    <g id="Group_102" data-name="Group 102" transform="translate(418.362 553.369)">
      <path id="Path_622" data-name="Path 622" class="cls-3" d="M182.613,316.225l21.95,318.387,14.174-1.206-9.285-317.181Z" transform="translate(-182.613 -316.225)"/>
    </g>
  </g>
</svg>
