<svg xmlns="http://www.w3.org/2000/svg" width="1920" height="1698.856" viewBox="0 0 1920 1698.856">
  <defs>
    <style>
      .cls-1 {
        fill: #4734ff;
      }
    </style>
  </defs>
  <path id="Intersection_1" data-name="Intersection 1" class="cls-1" d="M4710.3-5457.275c-35.531-2.149-92.846-6.043-164.124-12.4-80.07-7.139-161.01-15.859-240.568-25.919-99.5-12.58-197.079-27.294-290.035-43.734-236.7-41.856-445.484-95.047-620.557-158.1-24.949-8.986-49.557-18.3-73.143-27.693-24.238-9.65-48.044-19.636-70.758-29.678-23.3-10.3-46.16-20.976-67.944-31.729-22.3-11.009-44.076-22.4-64.712-33.849-21.136-11.726-41.677-23.849-61.059-36.032-19.829-12.467-39-25.348-56.983-38.285-18.383-13.229-36.043-26.89-52.487-40.6-16.794-14.008-32.8-28.47-47.566-42.986s-29.02-29.6-42.381-44.858c-6.4-7.308-12.757-14.841-18.891-22.393l-.5-.615V-7153.014l.285-.487H4758.093l.5,68.015v1630.841C4748.237-5455.135,4731.774-5455.976,4710.3-5457.275Z" transform="translate(-2838.589 7153.501)"/>
</svg>
