<svg xmlns="http://www.w3.org/2000/svg" xmlns:xlink="http://www.w3.org/1999/xlink" width="1043.113" height="494.499" viewBox="0 0 1043.113 494.499">
  <defs>
    <style>
      .cls-1 {
        fill: #1e4174;
      }

      .cls-13, .cls-19, .cls-2, .cls-23, .cls-32, .cls-34, .cls-36, .cls-9 {
        fill: none;
      }

      .cls-3 {
        fill: #228c7e;
      }

      .cls-4 {
        fill: #03aa99;
      }

      .cls-5 {
        fill: #ffc253;
      }

      .cls-6 {
        fill: #e09736;
      }

      .cls-7 {
        fill: #ffc854;
      }

      .cls-8 {
        fill: #40c7a7;
      }

      .cls-9 {
        stroke: #3b55ce;
        stroke-width: 1.05px;
      }

      .cls-13, .cls-23, .cls-32, .cls-34, .cls-9 {
        stroke-linecap: round;
      }

      .cls-13, .cls-19, .cls-23, .cls-32, .cls-34, .cls-36, .cls-9 {
        stroke-miterlimit: 10;
      }

      .cls-10 {
        fill: #3b55ce;
      }

      .cls-11 {
        fill: #aaeeed;
      }

      .cls-12 {
        clip-path: url(#clip-path);
      }

      .cls-13, .cls-34 {
        stroke: #aaeeed;
      }

      .cls-13, .cls-19 {
        stroke-width: 0.551px;
      }

      .cls-14 {
        fill: #ff9a8d;
      }

      .cls-15 {
        clip-path: url(#clip-path-2);
      }

      .cls-16 {
        fill: #85b8ed;
      }

      .cls-17 {
        fill: #4e7eac;
      }

      .cls-18 {
        clip-path: url(#clip-path-3);
      }

      .cls-19, .cls-36 {
        stroke: #274d79;
      }

      .cls-20 {
        fill: #001c45;
      }

      .cls-21 {
        fill: #3ed9c7;
      }

      .cls-22 {
        fill: #ba5964;
      }

      .cls-23 {
        stroke: #001c45;
        stroke-width: 0.788px;
      }

      .cls-24 {
        fill: #dd7a79;
      }

      .cls-25 {
        fill: #2339a0;
      }

      .cls-26 {
        fill: #91dbac;
      }

      .cls-27 {
        fill: #22a482;
      }

      .cls-28 {
        fill: #3dc19a;
      }

      .cls-29 {
        fill: #638be2;
      }

      .cls-30 {
        fill: #8fc9c6;
      }

      .cls-31 {
        clip-path: url(#clip-path-4);
      }

      .cls-32 {
        stroke: #8fc9c6;
      }

      .cls-32, .cls-34, .cls-36 {
        stroke-width: 0.525px;
      }

      .cls-33 {
        clip-path: url(#clip-path-5);
      }

      .cls-35 {
        clip-path: url(#clip-path-6);
      }
    </style>
    <clipPath id="clip-path">
      <path id="Path_1326" data-name="Path 1326" class="cls-1" d="M511.539,267.633c-.145,3.642.715,12.506-1.055,16.283-4.287,2.153-11.955.521-17.321-2.3s-10.093-.858-17.364-2.168c-7.136-1.285-12.533-4.657-13.258-7.95-.79-3.593,12.1-3.113,21.1-3.668,10.067-.618,16.021-4.071,16.021-4.071Z" transform="translate(-462.507 -263.761)"/>
    </clipPath>
    <clipPath id="clip-path-2">
      <path id="Path_1334" data-name="Path 1334" class="cls-1" d="M515.86,264.146c2.444,2.706,9.259,8.442,10.634,12.377-1.557,4.536-8.18,8.733-13.987,10.472s-7.817,6.444-13.929,10.593c-6,4.071-12.215,5.433-15.035,3.588-3.079-2.015,6.471-10.687,12.513-17.374,6.762-7.482,8.6-14.113,8.6-14.113Z" transform="translate(-482.947 -264.146)"/>
    </clipPath>
    <clipPath id="clip-path-3">
      <path id="Path_1341" data-name="Path 1341" class="cls-2" d="M594.163,211.4c1.709,4.388,5.528,9.613,7.931,13.7s9.812,14.972,5.528,26.437c-4.6,12.3-14.812,15.355-25.385,15.355h-24.6c-7.211,0-51.539-10.9-51.539-10.9s5.116,2.938,7.623,10.9,7.545,61.234,7.545,61.234c-3.268,3.292-7.843,4.645-13.648,4.19,0,0-13.417-41.273-18.793-56.611-5.555-15.847-12.2-31.531-10.954-38.427,1.746-9.669,18.5-9.958,32.336-9.478s45.686,1.678,52.162.766l-3.358-11.577Z" transform="translate(-477.715 -211.404)"/>
    </clipPath>
    <clipPath id="clip-path-4">
      <path id="Path_1385" data-name="Path 1385" class="cls-3" d="M306.534,346.745c-.681,3.406-3.457,11.432-2.662,15.326,3.489,2.953,10.959,3.154,16.562,1.741s9.545,1.46,16.574,1.872c6.9.4,12.654-1.515,14.06-4.4,1.535-3.152-10.515-5.591-18.727-8.113-9.189-2.825-13.936-7.354-13.936-7.354Z" transform="translate(-303.729 -345.814)"/>
    </clipPath>
    <clipPath id="clip-path-5">
      <path id="Path_1392" data-name="Path 1392" class="cls-4" d="M270.2,334.348c-3.465.245-11.938-.313-15.483,1.484-1.925,4.148-.143,11.405,2.7,16.436s1.115,9.589,2.577,16.48c1.435,6.76,4.808,11.8,7.965,12.394,3.445.647,2.611-11.619,2.873-20.206.293-9.608,3.4-15.384,3.4-15.384Z" transform="translate(-253.91 -334.348)"/>
    </clipPath>
    <clipPath id="clip-path-6">
      <path id="Path_1401" data-name="Path 1401" class="cls-2" d="M271.71,445.69S333.916,412,338.091,408.754s29.187-88.942,31.114-94.475c0,0,18.429-15.013,20.975-26.91l-42.6-27.885c-3.256,7-3.229,11.669-11.9,29.182-8.285,16.72-11.281,63.826-19.248,103.744a72.317,72.317,0,0,0-12.8,4.995c-7.521,3.586-39.372,37.28-39.372,37.28S265.139,442.136,271.71,445.69Z" transform="translate(-264.247 -259.485)"/>
    </clipPath>
  </defs>
  <g id="Group_315" data-name="Group 315" transform="translate(-208.326 -152.83)">
    <g id="Group_299" data-name="Group 299" transform="translate(208.326 153.224)">
      <g id="Group_279" data-name="Group 279" transform="translate(537.934 196.55)">
        <rect id="Rectangle_143" data-name="Rectangle 143" class="cls-5" width="434.287" height="293.736" transform="translate(0 0)"/>
        <path id="Path_1314" data-name="Path 1314" class="cls-6" d="M430.2,234.291,634.035,420.273a19.736,19.736,0,0,0,26.609,0L864.483,234.291Z" transform="translate(-430.196 -234.291)"/>
        <path id="Path_1315" data-name="Path 1315" class="cls-6" d="M736.9,488.6,519.757,261.968,736.9,469.3Z" transform="translate(-302.613 -194.864)"/>
        <path id="Path_1316" data-name="Path 1316" class="cls-6" d="M430.2,488.6,647.34,261.968,430.2,469.3Z" transform="translate(-430.196 -194.864)"/>
        <path id="Path_1317" data-name="Path 1317" class="cls-7" d="M430.2,234.291,630.909,403.864a25.458,25.458,0,0,0,32.86,0L864.483,234.291Z" transform="translate(-430.196 -234.291)"/>
      </g>
      <g id="Group_280" data-name="Group 280" transform="translate(924.729 380.004)">
        <path id="Path_1318" data-name="Path 1318" class="cls-8" d="M602.518,420.239s-13.742-6.207-12.736-20.955,11.061-17.767,19.775-23.13,9.385-14.414,9.722-25.475,7.71-22.124,22.458-21.452,20.194,3.685,30.879-9.051,25.1-12.4,31.131-5.363,6.428,19.147-2.73,27.5c-11.133,10.161-14.014,12.717-17.231,23.894-4.364,15.163,1.932,29.941-3.676,36.989-7.494,9.419-15.58,7.1-23.29,10.164s-7.989,6.878-7.989,6.878Z" transform="translate(-589.729 -309.956)"/>
        <path id="Path_1319" data-name="Path 1319" class="cls-9" d="M671.5,316.006c-22.556,13.156-61.8,53.153-68.464,95.614" transform="translate(-570.777 -301.338)"/>
      </g>
      <g id="Group_292" data-name="Group 292" transform="translate(615.795)">
        <path id="Path_1320" data-name="Path 1320" class="cls-10" d="M489.91,180.362a6.761,6.761,0,1,1,6.762,6.76A6.763,6.763,0,0,1,489.91,180.362Z" transform="translate(-422.992 -124.198)"/>
        <g id="Group_283" data-name="Group 283" transform="translate(0 254.715)">
          <path id="Path_1321" data-name="Path 1321" class="cls-11" d="M462.822,266.953c-.917,1.035-1.013,3.547,3.268,6.675s13.1,4.367,16.681,4.519,5.906-.339,10.714,1.942,13.223,3.821,16.249,2.3c1.115-.8,1.03-3.023,1.03-3.023Z" transform="translate(-462.31 -245.927)"/>
          <g id="Group_282" data-name="Group 282" transform="translate(0.477 13.286)">
            <path id="Path_1322" data-name="Path 1322" class="cls-1" d="M511.539,267.633c-.145,3.642.715,12.506-1.055,16.283-4.287,2.153-11.955.521-17.321-2.3s-10.093-.858-17.364-2.168c-7.136-1.285-12.533-4.657-13.258-7.95-.79-3.593,12.1-3.113,21.1-3.668,10.067-.618,16.021-4.071,16.021-4.071Z" transform="translate(-462.507 -263.761)"/>
            <g id="Group_281" data-name="Group 281" class="cls-12">
              <path id="Path_1323" data-name="Path 1323" class="cls-13" d="M477.323,270.873s-.543-5.13-2.429-7.2" transform="translate(-444.86 -263.891)"/>
              <path id="Path_1324" data-name="Path 1324" class="cls-13" d="M474.442,271.282s-.543-5.13-2.429-7.2" transform="translate(-448.965 -263.308)"/>
              <path id="Path_1325" data-name="Path 1325" class="cls-13" d="M471.562,271.691s-.546-5.13-2.429-7.2" transform="translate(-453.067 -262.725)"/>
            </g>
          </g>
          <path id="Path_1327" data-name="Path 1327" class="cls-14" d="M493.5,262.732,489.71,275.44a6.434,6.434,0,0,0-2.594.771c-.861.628-2.408,3.021-3.547,2.793-4.519-.895-5.739-7.436-5.739-7.436l3.205-13.286Z" transform="translate(-440.201 -258.281)"/>
        </g>
        <path id="Path_1328" data-name="Path 1328" class="cls-1" d="M557.183,213.709,555.466,227.1l-46.733-.955s-11.005-.213-14.266,10.969S479,323.34,479,323.34s6.566,4.842,13.236,3.79c0,0,22.032-45.572,25.186-58.09a64.957,64.957,0,0,0,1.569-23.074l56.33-4.89Z" transform="translate(-438.54 -67.06)"/>
        <g id="Group_286" data-name="Group 286" transform="translate(50.036 257.785)">
          <path id="Path_1329" data-name="Path 1329" class="cls-11" d="M483.193,293.9c.068,1.38,1.753,3.244,7,2.485s12.414-6.037,15.083-8.433,3.983-4.374,9.017-6.105,12.123-6.517,13.226-9.717c.238-1.351-1.38-2.883-1.38-2.883Z" transform="translate(-482.597 -245.723)"/>
          <g id="Group_285" data-name="Group 285" transform="translate(0 11.15)">
            <path id="Path_1330" data-name="Path 1330" class="cls-1" d="M515.86,264.146c2.444,2.706,9.259,8.442,10.634,12.377-1.557,4.536-8.18,8.733-13.987,10.472s-7.817,6.444-13.929,10.593c-6,4.071-12.215,5.433-15.035,3.588-3.079-2.015,6.471-10.687,12.513-17.374,6.762-7.482,8.6-14.113,8.6-14.113Z" transform="translate(-482.947 -264.146)"/>
            <g id="Group_284" data-name="Group 284" class="cls-15">
              <path id="Path_1331" data-name="Path 1331" class="cls-13" d="M496.515,271.87s-3.976-3.288-6.774-3.45" transform="translate(-473.269 -258.058)"/>
              <path id="Path_1332" data-name="Path 1332" class="cls-13" d="M494.742,274.177s-3.976-3.288-6.774-3.45" transform="translate(-475.794 -254.771)"/>
              <path id="Path_1333" data-name="Path 1333" class="cls-13" d="M492.969,276.484s-3.979-3.288-6.774-3.45" transform="translate(-478.32 -251.485)"/>
            </g>
          </g>
          <path id="Path_1335" data-name="Path 1335" class="cls-14" d="M503.695,259.547l2.051,11.15a6.427,6.427,0,0,0-1.314,2.366c-.177,1.05.39,3.843-.579,4.478-3.857,2.519-9.305-1.3-9.305-1.3l-4.5-13.791Z" transform="translate(-472.833 -259.547)"/>
        </g>
        <path id="Path_1336" data-name="Path 1336" class="cls-16" d="M594.165,211.4c1.709,4.388,5.528,9.613,7.931,13.7s9.812,14.972,5.528,26.437c-4.6,12.3-14.812,15.355-25.385,15.355h-24.6c-7.211,0-51.539-10.9-51.539-10.9s5.116,2.938,7.623,10.9,7.545,61.234,7.545,61.234c-3.268,3.292-7.843,4.645-13.648,4.19,0,0-13.279-41.322-18.793-56.611-5.763-15.97-12.2-31.531-10.954-38.427,1.746-9.669,18.5-9.958,32.336-9.478s45.686,1.678,52.162.766l-3.358-11.577Z" transform="translate(-440.367 -70.344)"/>
        <path id="Path_1337" data-name="Path 1337" class="cls-17" d="M594.781,251.54c4.284-11.466-3.125-22.352-5.528-26.437s-6.224-9.31-7.931-13.7l-35.156,5.589,2.146,7.4s19.5,2.674,28-7.4c0,0,6.214,9.448,8.016,15.117,2.483,7.819,1.8,20.5-13.5,23.55s-71.81-5.264-79.29-6.1-4.987,3.489-.832,12.273,5.9,24.539,9.635,43.407c2.386,12.043,5.079,25.174,5.079,25.174a13.544,13.544,0,0,0,3.009-2.289s-5.041-53.277-7.545-61.234-7.623-10.9-7.623-10.9,44.328,10.9,51.539,10.9h24.6C579.97,266.895,590.184,263.837,594.781,251.54Z" transform="translate(-427.524 -70.344)"/>
        <g id="Group_288" data-name="Group 288" transform="translate(37.351 141.06)">
          <g id="Group_287" data-name="Group 287" class="cls-18">
            <path id="Path_1338" data-name="Path 1338" class="cls-19" d="M571.3,211.421c1.717,10.45,6.1,15.619,5.676,25.174s-8.158,14.414-30.646,12.4-57.05-7.058-60.071-6.209-2.017,5.441,2.005,19.067,17.767,74.23,17.767,74.23" transform="translate(-468.048 -211.38)"/>
            <path id="Path_1339" data-name="Path 1339" class="cls-19" d="M530.813,235.7a10.894,10.894,0,0,1-8.966-2.386c-4-3.52-5.15-19.585-5.15-19.585" transform="translate(-422.184 -208.096)"/>
            <path id="Path_1340" data-name="Path 1340" class="cls-19" d="M488.753,262.382s9.977,2.221,17.653-5.366" transform="translate(-461.992 -146.428)"/>
          </g>
        </g>
        <path id="Path_1342" data-name="Path 1342" class="cls-20" d="M547.578,161.62s-7.046-5.964-20.2-4.716c-10.472.992-18.128,7.08-20.536,14.739s-1.683,21.678,11.012,29.514c0,0-3.94,2.146.436,6.3,0,0-6.784,1.658-8.973,5.424s0,7.3,1.314,11.553,1.751,4.912-3.94,10.6-10.583,15.757-2.556,28.67,21.983,23.736,41.375,22.708c19.617-1.04,41.765-7.577,47.325-37.794s-13.48-37.1-18.734-35.738a62.861,62.861,0,0,0,4.044-29.533c-1.75-16.632-9.868-24.1-16.7-24.641C551.394,157.917,547.578,161.62,547.578,161.62Z" transform="translate(-408.736 -148.227)"/>
        <path id="Path_1343" data-name="Path 1343" class="cls-14" d="M566.258,186.212c-2.6.781-6.929,1.43-9.223,3.222s-24.963,37.091-24.963,37.091-20.883-32.683-23.986-36.574c-3.254-4.08-19.166-9.182-22.061-8.6-3.581.715-1.646,5.181-.916,8.086.417,1.663,1.069,6.263,4.02,8.3s13.432,3.617,13.432,3.617,18.79,39.544,22.674,45.47c2.512,3.836,5.278,3.882,9.938-1.244C539.685,240.614,557.689,217,557.689,217Z" transform="translate(-431.513 -113.224)"/>
        <path id="Path_1344" data-name="Path 1344" class="cls-4" d="M526.085,183.328c-4.143,1.5-7.96,1.4-10.052,4.071s-3.9,14.86-3.9,14.86,10.384-2.063,13.148-7.509a26.3,26.3,0,0,0,2.839-10.37Z" transform="translate(-391.34 -110.34)"/>
        <path id="Path_1345" data-name="Path 1345" class="cls-21" d="M545.538,180.525a7.266,7.266,0,0,0,3.508,1.258c2.315.337,9.865,1.981,11.391,4.808,3.666,5.06-.092,21.654-2.228,33.3-1.3,7.1-13.888,23.043-5.293,39.307,0,0-19.37,11.434-38.919,1.782-2.041-9.679.359-16.424.424-27.317-2.764-3-5.506-8.515-5.753-12.086-.929-13.289,12.36-17.34,22.711-32.135,2.89-4.129,5.075-3.928,9.007-6.939A9.286,9.286,0,0,1,545.538,180.525Z" transform="translate(-396.336 -114.333)"/>
        <path id="Path_1346" data-name="Path 1346" class="cls-14" d="M532.1,183.679c5.85-3.69,10.6.861,13.367,7.511s17.4,47.977,18.686,53.112-4.364,55.954-5.9,58.909-3.149,5.058-9.019,5.058H522.263s1.334-2.754,5.955-3.906,17.711-1.535,20.279-5.642,1.474-51.509,1.474-51.509-16.244-34.7-19.838-43.327S527.948,186.295,532.1,183.679Z" transform="translate(-376.904 -111.718)"/>
        <path id="Path_1347" data-name="Path 1347" class="cls-4" d="M531.741,182.082c-3.465,0-11.4,7.88-4.7,22.454,0,0,8.69-12.324,16.649-9.33C543.689,195.206,540.21,180.1,531.741,182.082Z" transform="translate(-373.811 -112.369)"/>
        <g id="Group_291" data-name="Group 291" transform="translate(111.471 11.953)">
          <path id="Path_1348" data-name="Path 1348" class="cls-14" d="M527.051,175.026l6.112,5.438,2.7,9.153s-3.838,2.568-5.317,4.8c-1.8,2.713-5.833,9.238-10.685,9.793,0,0,.487-5.884-.245-9.051s-2.948-9.453-2.948-9.453Z" transform="translate(-496.345 -134.119)"/>
          <path id="Path_1349" data-name="Path 1349" class="cls-22" d="M527.051,175.026s1.314,5.123,1.094,7.722-2.519,8-8.527,12.406c-.735-3.169-2.948-9.453-2.948-9.453Z" transform="translate(-496.345 -134.119)"/>
          <path id="Path_1350" data-name="Path 1350" class="cls-22" d="M513.263,170.275c-1.147,4.114-5.858,9.88-4.832,10.908.853.853,4.868.662,4.868.662a7.54,7.54,0,0,0,1.952-6.837C514.253,171.017,513.263,170.275,513.263,170.275Z" transform="translate(-508.286 -140.887)"/>
          <path id="Path_1351" data-name="Path 1351" class="cls-14" d="M521.2,159.77c-5.69.519-11.4,8.406-11.291,15.58s1.767,11.08,1.312,16.147-.427,9.953,1.7,15.267c1.416,3.535,5.1,4.33,10.016,3.145,4.5-1.086,10.646-5.416,12.062-6.779S536.686,197,536.686,197s6.714-.987,9.79-7.131S549,157.239,521.2,159.77Z" transform="translate(-505.98 -156.094)"/>
          <path id="Path_1352" data-name="Path 1352" class="cls-20" d="M534.456,199.061a9.219,9.219,0,0,0,5.581-9.208c-.56-6.99-9.974-7.24-9.591-1.089,0,0-6.583-1.3-10.6-6.008-7.533-8.842-8.379-16.046-8.379-16.046,1.6-11.012,19.649-7.116,19.649-7.116s9.143-3.952,16.926,1.237c5.571,3.714,8.411,17.047,3.9,28.149-4.5,11.083-11.374,15.52-11.374,15.52Z" transform="translate(-503.749 -158.154)"/>
          <g id="Group_290" data-name="Group 290" transform="translate(8.568 25.611)">
            <g id="Group_289" data-name="Group 289">
              <path id="Path_1353" data-name="Path 1353" class="cls-20" d="M512.382,171.928a1.649,1.649,0,1,1,1.554,1.738A1.649,1.649,0,0,1,512.382,171.928Z" transform="translate(-511.024 -166.361)"/>
              <path id="Path_1354" data-name="Path 1354" class="cls-20" d="M511.82,169.963l7.533,2.388a3.932,3.932,0,0,0-2.759-3.365A4.447,4.447,0,0,0,511.82,169.963Z" transform="translate(-511.82 -168.717)"/>
            </g>
            <path id="Path_1355" data-name="Path 1355" class="cls-22" d="M523.718,170.757a3.863,3.863,0,0,0-3.416.383c-.32.257.228.786.536.672,1.734-.645,3.855-.735,4.711,1.295.046.107.121,0,.107-.078A2.829,2.829,0,0,0,523.718,170.757Z" transform="translate(-499.875 -166.131)"/>
            <path id="Path_1356" data-name="Path 1356" class="cls-22" d="M522.546,170.7c-.194-.092-.63.388-.592.521a2.35,2.35,0,0,1,.945.834,3.116,3.116,0,0,1,.412,1.961,3.5,3.5,0,0,1-2.8,3.363c-.031.007-.082.095-.031.107,1.469.366,3.13-1.152,3.47-2.466C524.326,173.564,524.226,171.5,522.546,170.7Z" transform="translate(-499.511 -165.912)"/>
          </g>
        </g>
        <path id="Path_1357" data-name="Path 1357" class="cls-14" d="M519.682,189.786c.1,1.969-3.617,6.3-2.7,9.3s7.131,3.4,10.486,0,5.315-14.062,9.885-16.96a2.6,2.6,0,0,1-2.262-1.843Z" transform="translate(-384.639 -114.676)"/>
        <path id="Path_1358" data-name="Path 1358" class="cls-1" d="M496.083,180.43s-1.83,16.15,4.408,29.075a2.7,2.7,0,0,1-1.154,3.5l-7.6,4.224a2.718,2.718,0,0,1-4-1.862,81.02,81.02,0,0,1,1.491-35.733Z" transform="translate(-427.98 -115.598)"/>
        <path id="Path_1359" data-name="Path 1359" class="cls-14" d="M489.352,181.688c1.925.545,4.711,1.738,4.789,3.566s-2.943,1.911-2.943,1.911,2.148.955,2.308,2.308-1.193,2.7-3.183,2.7c0,0,2.056.7,1.426,2.538s-3.654.322-4.25,1.678c0,0-1.789-1.751-1.947-5.649S489.352,181.688,489.352,181.688Z" transform="translate(-429.209 -112.676)"/>
        <path id="Path_1360" data-name="Path 1360" class="cls-14" d="M502.193,191.232c-1.833-3.523-3.637-6.086-7.792-7.715-3.542-1.389-5.22-4.119-6.144-2.73s1.583,5.778,5.46,7.1Z" transform="translate(-425.621 -114.505)"/>
        <path id="Path_1361" data-name="Path 1361" class="cls-1" d="M485.538,192.275l15.709,1.981c4.032.485,6.529-20.238,2.5-20.725l-15.42-2.594Z" transform="translate(-429.221 -127.991)"/>
        <path id="Path_1362" data-name="Path 1362" class="cls-10" d="M513.88,186.508c-5.732-.647-25.443-9.868-29.727-26.449-16.164-2.051-23.741,57.663-7.577,59.714,4.449-10.312,26.6-12.925,34.518-11.926C514.164,208.246,516.95,186.908,513.88,186.508Z" transform="translate(-454.777 -143.562)"/>
        <path id="Path_1363" data-name="Path 1363" class="cls-23" d="M513.739,153.224c5.007,1.186,12.387,7.116,14.15,13.393" transform="translate(-389.047 -153.224)"/>
      </g>
      <g id="Group_293" data-name="Group 293" transform="translate(249.907 40.84)">
        <path id="Path_1364" data-name="Path 1364" class="cls-24" d="M316.654,239.153c12.959,11.81,27.048,19.825,43.38,16.717,23-4.379,40.96-27.822,40.96-27.822s5.926,7.727,5.926,8.5-15.2,30.913-42.764,37.1S311.8,260.077,311.8,260.077Z" transform="translate(-310.826 -87.472)"/>
        <path id="Path_1365" data-name="Path 1365" class="cls-10" d="M521.944,484.541a38.344,38.344,0,0,0,48.239,12.222l30.687-15.127a12.729,12.729,0,0,1,16.366,4.582L672.7,573.373a12.718,12.718,0,0,1-4.454,17.908c-17.934,10.149-54.989,27.32-95.784,24-57.26-4.665-94.54-57.905-157.6-156.992s-95.508-155.4-75.486-209.248c14.264-38.366,45.511-64.663,62.3-76.613a12.719,12.719,0,0,1,18.109,3.55l55.466,87.153a12.729,12.729,0,0,1-2.779,16.768l-26.7,21.394a38.348,38.348,0,0,0-9.356,48.876Z" transform="translate(-279.933 -170.068)"/>
        <path id="Path_1366" data-name="Path 1366" class="cls-25" d="M422.192,297.9l22.473-18.01a12.729,12.729,0,0,0,2.779-16.768l-29.322-46.074L391.63,175.53a12.687,12.687,0,0,0-17.762-3.113,207.508,207.508,0,0,0-20.856,17.062Z" transform="translate(-252.122 -170.061)"/>
        <path id="Path_1367" data-name="Path 1367" class="cls-25" d="M502.206,420.652a207.384,207.384,0,0,0,24.274-11.664,12.685,12.685,0,0,0,4.738-17.34l-57-89.323a12.706,12.706,0,0,0-15.122-2.982L433.009,312.2Z" transform="translate(-138.163 12.226)"/>
        <path id="Path_1368" data-name="Path 1368" class="cls-6" d="M318.063,232.9l10.5,7.863s4.735,14.518-3.261,22.068l-13.9-8.423Z" transform="translate(-311.4 -80.56)"/>
      </g>
      <g id="Group_294" data-name="Group 294" transform="translate(16.115 397.323)">
        <path id="Path_1369" data-name="Path 1369" class="cls-26" d="M274.229,410.063a63.343,63.343,0,0,0,17.006-21.622c6.881-14.38.756-26.927-8.871-25.1-10.263,1.944-11.686-6.442-14.511-17.059-3.39-12.739-19.857-30.877-33.3-29.053-17.343,2.352-6.376,20.9-4.607,27.635s6.151,14.484-4.607,15.541c-9.8.965-14.087,9.856-6.457,18.962,7.259,8.658,15.158,8.527,15.515,17.316s5.824,11.267,10.43,13.381Z" transform="translate(-214.973 -317.099)"/>
        <path id="Path_1370" data-name="Path 1370" class="cls-9" d="M226.034,323.488s23.627,30.847,17.66,77.474" transform="translate(-199.216 -307.999)"/>
      </g>
      <g id="Group_295" data-name="Group 295" transform="translate(272.779 428.04)">
        <path id="Path_1371" data-name="Path 1371" class="cls-8" d="M334.526,392.015s6.694-9.014,2.662-21.978c-5.21-16.758-20.761-24.5-15.153-35.474,4.665-9.124,18.608-4.507,26,7.792,7.1,11.815,7.647,36.717-3.569,49.659Z" transform="translate(-320.833 -329.769)"/>
        <path id="Path_1372" data-name="Path 1372" class="cls-9" d="M325.85,333.719s21.414,23.157,7.392,52.668" transform="translate(-313.687 -324.141)"/>
      </g>
      <g id="Group_296" data-name="Group 296" transform="translate(291.168 403.451)">
        <path id="Path_1373" data-name="Path 1373" class="cls-27" d="M339.583,406.462a71.052,71.052,0,0,0,25.029-30.28c8.854-20.407,9.24-44.279,0-52.751-8.634-7.914-18.868-3.082-21.564,10.78s3.467,49.015-14.63,72.251Z" transform="translate(-328.418 -319.627)"/>
        <path id="Path_1374" data-name="Path 1374" class="cls-9" d="M352.454,322.784a122.469,122.469,0,0,1-3.467,43.179c-6.161,22.279-17.711,36-17.711,36" transform="translate(-324.347 -315.129)"/>
      </g>
      <g id="Group_297" data-name="Group 297" transform="translate(426.034 404.356)">
        <path id="Path_1375" data-name="Path 1375" class="cls-26" d="M488.024,405.93s.359-28.53-22.274-55.112-48.52-36.1-70.884-28.037c-16.652,6-12.372,25.281,1.241,33.49,16.114,9.72,76.468,13.657,78.623,49.659Z" transform="translate(-384.043 -320)"/>
        <path id="Path_1376" data-name="Path 1376" class="cls-9" d="M389.5,326.506c30.75-1.748,77.828,26.585,84.294,70.266" transform="translate(-376.276 -310.842)"/>
      </g>
      <g id="Group_298" data-name="Group 298" transform="translate(514.072 413.138)">
        <path id="Path_1377" data-name="Path 1377" class="cls-28" d="M443.321,400.771s14.889-15.876,12.016-46.457-29.771-38.172-34.6-23.385c-3.8,11.628,22.388,38.72,13.049,69.841Z" transform="translate(-420.354 -323.622)"/>
        <path id="Path_1378" data-name="Path 1378" class="cls-9" d="M425.891,327.524c5.77,7.47,16.865,38.034,5.547,67.688" transform="translate(-412.467 -318.064)"/>
      </g>
      <path id="Path_1379" data-name="Path 1379" class="cls-29" d="M1212.124,361.5H212.145a3.818,3.818,0,0,1-3.819-3.819h0a3.82,3.82,0,0,1,3.819-3.819h999.979a3.82,3.82,0,0,1,3.819,3.819h0A3.818,3.818,0,0,1,1212.124,361.5Z" transform="translate(-208.326 132.601)"/>
    </g>
    <g id="Group_314" data-name="Group 314" transform="translate(316.321 259.797)">
      <g id="Group_308" data-name="Group 308" transform="translate(0 150.879)">
        <g id="Group_302" data-name="Group 302" transform="translate(123.266 196.832)">
          <path id="Path_1380" data-name="Path 1380" class="cls-30" d="M351.1,352.193c.618,1.164.148,3.513-4.519,5.453s-13.112,1.12-16.465.461-5.4-1.634-10.362-.594-13.1.584-15.57-1.5c-.856-.987-.279-3.031-.279-3.031Z" transform="translate(-303.71 -324.068)"/>
          <g id="Group_301" data-name="Group 301" transform="translate(0.048 12.659)">
            <path id="Path_1381" data-name="Path 1381" class="cls-3" d="M306.534,346.745c-.681,3.406-3.457,11.432-2.662,15.326,3.489,2.953,10.959,3.154,16.562,1.741s9.545,1.46,16.574,1.872c6.9.4,12.654-1.515,14.06-4.4,1.535-3.152-10.515-5.591-18.727-8.113-9.189-2.825-13.936-7.354-13.936-7.354Z" transform="translate(-303.729 -345.814)"/>
            <g id="Group_300" data-name="Group 300" class="cls-31">
              <path id="Path_1382" data-name="Path 1382" class="cls-32" d="M310.931,352.518s1.651-4.633,3.86-6.132" transform="translate(-293.471 -344.999)"/>
              <path id="Path_1383" data-name="Path 1383" class="cls-32" d="M313.509,353.541s1.649-4.633,3.86-6.132" transform="translate(-289.798 -343.542)"/>
              <path id="Path_1384" data-name="Path 1384" class="cls-32" d="M316.086,354.564s1.651-4.633,3.862-6.132" transform="translate(-286.127 -342.085)"/>
            </g>
          </g>
          <path id="Path_1386" data-name="Path 1386" class="cls-14" d="M304.886,340.593v13.59a6.146,6.146,0,0,1,2.231,1.3c.657.771,1.554,3.336,2.66,3.38,4.391.182,6.98-5.608,6.98-5.608l1.651-12.355Z" transform="translate(-302.034 -340.593)"/>
        </g>
        <g id="Group_305" data-name="Group 305" transform="translate(0 175.382)">
          <path id="Path_1387" data-name="Path 1387" class="cls-11" d="M269.441,380.27c-.958.9-3.348,1.072-6.457-2.917s-4.544-12.348-4.8-15.757.148-5.637-2.168-10.152-4.03-12.484-2.672-15.413c.725-1.086,2.849-1.072,2.849-1.072Z" transform="translate(-252.869 -327.168)"/>
          <g id="Group_304" data-name="Group 304" transform="translate(2.526 6.309)">
            <path id="Path_1388" data-name="Path 1388" class="cls-4" d="M270.2,334.348c-3.465.245-11.938-.313-15.483,1.484-1.925,4.148-.143,11.405,2.7,16.436s1.115,9.589,2.577,16.48c1.435,6.76,4.808,11.8,7.965,12.394,3.445.647,2.611-11.619,2.873-20.206.293-9.608,3.4-15.384,3.4-15.384Z" transform="translate(-253.91 -334.348)"/>
            <g id="Group_303" data-name="Group 303" class="cls-33">
              <path id="Path_1389" data-name="Path 1389" class="cls-34" d="M259.606,340.9s4.9.368,6.934,2.1" transform="translate(-245.797 -325.02)"/>
              <path id="Path_1390" data-name="Path 1390" class="cls-34" d="M259.3,343.653s4.9.366,6.934,2.1" transform="translate(-246.23 -321.093)"/>
              <path id="Path_1391" data-name="Path 1391" class="cls-34" d="M259,346.41s4.9.366,6.934,2.1" transform="translate(-246.664 -317.165)"/>
            </g>
          </g>
          <path id="Path_1393" data-name="Path 1393" class="cls-14" d="M271.3,331.746l-8.774,6.309a6.119,6.119,0,0,1-.659,2.495c-.572.836-2.805,2.381-2.558,3.46.987,4.282,7.254,5.249,7.254,5.249l12.2-6.507Z" transform="translate(-243.717 -331.746)"/>
        </g>
        <path id="Path_1394" data-name="Path 1394" class="cls-1" d="M341.016,260.738c-15.221,0-26.551,1.147-26.551,1.147-4.868,2.129-13.221,13.194-15.679,20.216-2.464,7.038,1.188,16.841,2.473,22.883,7.145,33.662,14.458,57.05,17.234,70.394,1.7,8.161-4.352,9.465-4.41,22.4-.08,18.511.684,57.976.684,57.976A17.792,17.792,0,0,0,328,456.8s11.424-65.087,12.676-72.535c2.029-12.079,2.733-17.146,2.96-38.046C343.957,316.825,341.016,260.738,341.016,260.738Z" transform="translate(-188.647 -257.518)"/>
        <path id="Path_1395" data-name="Path 1395" class="cls-16" d="M388.837,288.129c-2.546,11.914-19.624,26.246-19.624,26.246-1.935,5.55-26.961,91.24-31.136,94.5-4.175,3.232-66.367,36.914-66.367,36.914a14.08,14.08,0,0,1-5.906-6.212,17.676,17.676,0,0,1-1.426-4.073,5.742,5.742,0,0,1-.1-.584.438.438,0,0,1-.027-.129s31.849-33.682,39.358-37.27a70.478,70.478,0,0,1,12.807-4.99V392.5c8.559-39.809,8.3-70.925,15.224-92.921a96.808,96.808,0,0,1,4.022-10.818c1.782-3.9,3.13-7.155,4.226-9.928.458-1.2.866-2.291,1.246-3.336s.713-2.01.994-2.9c.2-.613.381-1.2.56-1.731.788-2.5,1.348-4.507,1.959-6.418.281-.839.56-1.654.866-2.495.179-.407.332-.839.509-1.246.179-.434.356-.866.56-1.3h.027v.027l11.888,8.859,5.729,4.25Z" transform="translate(-236.657 -259.41)"/>
        <path id="Path_1396" data-name="Path 1396" class="cls-17" d="M364.223,272.546a56.566,56.566,0,0,1-7.257,7.79c-8.833,7.688-14.169,19.649-18.877,44.435-5.307,27.923-14.218,69.439-15.287,72.009-1.043,2.572-8.91,1.605-23.268,12.094-10.845,7.916-26.6,24.388-33.73,30.7a17.676,17.676,0,0,1-1.426-4.073c-.051-.281-.078-.482-.1-.584a.438.438,0,0,1-.027-.129s31.849-33.682,39.358-37.27a70.478,70.478,0,0,1,12.807-4.99V392.5c8.168-39.809,8.3-70.925,15.224-92.921a91.568,91.568,0,0,1,4.047-10.794c1.782-3.894,3.133-7.152,4.2-9.953.482-1.2.89-2.318,1.246-3.336q.575-1.564.994-2.9c.2-.613.381-1.2.56-1.731.788-2.5,1.348-4.507,1.959-6.418.281-.839.56-1.654.866-2.495.179-.407.332-.839.509-1.246.179-.434.383-.839.587-1.273v-.027l11.888,8.886Z" transform="translate(-236.657 -259.41)"/>
        <path id="Path_1397" data-name="Path 1397" class="cls-17" d="M346.995,273.272s-7.783,10.2-29.184,11c-14.787.553-24.19-5.378-24.19-5.378l5.773-9.053Z" transform="translate(-194.815 -244.553)"/>
        <g id="Group_307" data-name="Group 307" transform="translate(27.588 0.182)">
          <g id="Group_306" data-name="Group 306" class="cls-35">
            <path id="Path_1398" data-name="Path 1398" class="cls-36" d="M380.155,261.59c-8.961,11.5-20.4,18.473-25.147,26.357s-7.4,24.944-13.561,56.1c-6.119,30.949-11.7,52.026-13.388,53.888s-12.2,3.71-28.6,14.71-35.418,28.641-35.418,28.641" transform="translate(-264.536 -256.486)"/>
            <path id="Path_1399" data-name="Path 1399" class="cls-36" d="M320.176,272.822s-3.559,19.6-20.994,16.317" transform="translate(-214.481 -240.486)"/>
            <path id="Path_1400" data-name="Path 1400" class="cls-36" d="M265.64,329.225c.078,5.259,3.77,12.879,10.513,16.945" transform="translate(-262.263 -160.137)"/>
          </g>
        </g>
      </g>
      <g id="Group_310" data-name="Group 310" transform="translate(130.544 49.045)">
        <g id="Group_309" data-name="Group 309">
          <path id="Path_1402" data-name="Path 1402" class="cls-14" d="M306.711,234.961l14.741,12.629,8.447-20.05-17.554-10.132Z" transform="translate(-306.711 -217.409)"/>
          <path id="Path_1403" data-name="Path 1403" class="cls-22" d="M324.215,233.474s-17.379-4.871-15.054-16.065l17.554,10.13Z" transform="translate(-303.527 -217.408)"/>
        </g>
      </g>
      <path id="Path_1404" data-name="Path 1404" class="cls-5" d="M338.208,236.778a17.263,17.263,0,0,1,6.059,11.281c.8,7.123,1.433,17.786,2.034,33.267.546,14.058,1.961,54.843,1.961,54.843s-10.763,7.055-28.84,5.608C302.155,340.4,294.7,331.9,294.7,331.9s1.8-57.355,7.475-79.93c8.384-23.278,21.637-27.327,21.637-27.327Z" transform="translate(-193.272 -158.051)"/>
      <g id="Group_313" data-name="Group 313" transform="translate(118.427)">
        <path id="Path_1405" data-name="Path 1405" class="cls-22" d="M319.9,210.639c.909,1.571,5.664,8.239,7.206,10.176s-4.614,2.449-4.614,2.449Z" transform="translate(-275.799 -178.007)"/>
        <path id="Path_1406" data-name="Path 1406" class="cls-14" d="M315.572,236.653a39.9,39.9,0,0,0,2.029,4.005c1.033,1.714,15.493,7.582,19.309,8.045s8.881-.31,7.872-13.044-4.245-23.76-12.756-29.526-20.439.529-25.591,8.692S306.778,239,315.572,236.653Z" transform="translate(-297.821 -187.607)"/>
        <path id="Path_1407" data-name="Path 1407" class="cls-20" d="M319.465,246.226h0l-1.882,5.863s-1.46.7-5.147-3.884c-4.034-5.012-11.4-13.57-10.673-19.006.948-7.133,9.121-9.705,9.121-9.705s4.168-13.182,20.466-20.184,23.5,4.784,10.974,13.48c0,0,8.716,4.352,3.212,7.654s-21.234,2.89-21.234,2.89,7.722,2.951,5.424,5.135-12.263,1.285-12.263,1.285l1.246,5.021s-4.064-1.244-6.255,1.384C309.825,239.311,313.859,247.877,319.465,246.226Z" transform="translate(-301.714 -197.18)"/>
        <path id="Path_1408" data-name="Path 1408" class="cls-23" d="M308.809,200.056s-4.856,10.513,4.267,17.583c0,0-9.1-.289-11.032-8.92" transform="translate(-301.243 -193.083)"/>
        <g id="Group_312" data-name="Group 312" transform="translate(11.52 30.325)">
          <g id="Group_311" data-name="Group 311" transform="translate(19.969)">
            <path id="Path_1409" data-name="Path 1409" class="cls-20" d="M319.062,212.307a1.571,1.571,0,1,0-.977,2A1.568,1.568,0,0,0,319.062,212.307Z" transform="translate(-312.846 -207.471)"/>
            <path id="Path_1410" data-name="Path 1410" class="cls-20" d="M321.051,210.205l-6.3,4.136a3.753,3.753,0,0,1,1.663-3.8A4.245,4.245,0,0,1,321.051,210.205Z" transform="translate(-314.701 -209.688)"/>
          </g>
          <path id="Path_1411" data-name="Path 1411" class="cls-22" d="M307.67,214.323a3.683,3.683,0,0,1,3.234-.531c.359.155-.007.781-.32.754-1.755-.143-3.727.322-3.988,2.4-.015.112-.112.027-.119-.044A2.7,2.7,0,0,1,307.67,214.323Z" transform="translate(-306.465 -204.101)"/>
          <path id="Path_1412" data-name="Path 1412" class="cls-22" d="M307.791,213.9c.153-.133.679.194.676.327a2.231,2.231,0,0,0-.655,1.009,2.977,2.977,0,0,0,.128,1.906,3.342,3.342,0,0,0,3.436,2.364c.029,0,.1.065.056.09-1.253.715-3.169-.25-3.819-1.367C306.9,216.985,306.455,215.063,307.791,213.9Z" transform="translate(-305.804 -203.737)"/>
        </g>
      </g>
      <path id="Path_1413" data-name="Path 1413" class="cls-6" d="M307.635,230.71c-3.566,1.886-8.251,12.181-4.922,23.3s7.64,22.6,7.64,22.6,17.183-4.059,21.707-15.006c0,0-6.069-14.831-8.893-20.832S316.647,225.943,307.635,230.71Z" transform="translate(-183.485 -151.353)"/>
      <path id="Path_1414" data-name="Path 1414" class="cls-6" d="M319.134,273.044c3.853,3.855,9.1,8.091,12.033,9.254-.23-6.483-.475-11.963-.693-17.968l-12.86-17.081-8.454-2.286-3.033,8.762S312.978,266.886,319.134,273.044Z" transform="translate(-177.001 -129.111)"/>
      <path id="Path_1415" data-name="Path 1415" class="cls-14" d="M310.239,230.042c-8.125,2.158-10.893,13.813-2.718,31.866,7.839,17.309,20.473,33.153,28.239,38.562s37.849,3.63,63.009-3.809c0,0,14.336-5.147,18.325-8.68,8.883-7.872,9.317-18.327,2.8-16.773s-16.821,8.622-16.821,8.622-2.733-5.38-4.716-9.57c0,0-1.763.461-2.383,4.187s-.565,8.922-1.651,9.679c-2.89,2.015-43.217,5.409-48.035.662-5.453-5.375-13.357-19.639-18.97-32.809C321.108,237.423,318.548,227.836,310.239,230.042Z" transform="translate(-182.028 -150.816)"/>
      <path id="Path_1416" data-name="Path 1416" class="cls-5" d="M308.19,229.907c-3.569,1.889-8.253,12.183-4.924,23.3s7.642,22.6,7.642,22.6,16.13-2.442,22.977-11.706c0,0-7.342-18.131-10.166-24.134S317.2,225.14,308.19,229.907Z" transform="translate(-182.697 -152.496)"/>
    </g>
  </g>
</svg>
