<svg xmlns="http://www.w3.org/2000/svg" width="117.738" height="26.675" viewBox="0 0 117.738 26.675">
  <defs>
    <style>
      .cls-1 {
        fill: #e74d89;
      }

      .cls-2 {
        fill: #b2215a;
      }
    </style>
  </defs>
  <g id="Group_317" data-name="Group 317" transform="translate(-214.533 -748.5)">
    <path id="Path_635" data-name="Path 635" d="M24.761,7.965a1.68,1.68,0,1,0-1.68-1.68,1.68,1.68,0,0,0,1.68,1.68ZM80.185,13.7c-.255-.18-.453-.209-.616.14-2.821,6.109-7.574,3.06-7.1,3.329,1.054-.482,3.827-2.706,3.408-5.777A2.859,2.859,0,0,0,72.3,8.985c-2.984.52-4.082,3.739-3.523,6.589a6.012,6.012,0,0,0,.447,1.288c-3.372,2.742-4.712-2.455-4.864-3.076-.006-.033,2.6-2.209,3.33-7.393C68.452.961,66.719-.029,64.946,0c-3.28.057-4.166,6.909-2.975,12.62a3.641,3.641,0,0,1-1.309.312c-.537-1.688-2.829-3.168-3.429-2.6-1.5,1.427.364,4.216,1.677,4.435-.789,4.858-5.721,3.655-4.8-2.431,1.606-2.983,2.828-7.418,2.61-10.1A2.251,2.251,0,0,0,54.353.088C51.3.209,50.973,7.063,51.33,11.928a2.5,2.5,0,0,1-1.437.945c-.3-1.64-2.937-3.287-3.558-2.5-1.164,1.482.853,4.123,1.809,4.307-.789,4.858-5.721,3.654-4.8-2.432,1.606-2.983,2.828-7.418,2.61-10.1A2.251,2.251,0,0,0,43.587,0c-3.049.121-3.38,6.975-3.022,11.839a2.5,2.5,0,0,1-1.492.96c-.044-2.128-2.694-3.1-3.331-2.425-1.135,1.21.26,3.694,1.55,4.307-.789,4.858-5.721,3.654-4.8-2.432C34.1,9.27,35.317,4.835,35.1,2.158A2.251,2.251,0,0,0,32.736,0C29.687.123,29.442,7.322,29.8,12.186c-1,4.3-4.372,9.675-3.934-1.088.043-.755.09-1.042-.286-1.324-.282-.22-.923-.114-1.274-.105-.426.017-.533.266-.627.643a15.963,15.963,0,0,0-.29,3.2,5.836,5.836,0,0,1-.3,1.7c-.232.821-1.553,2.321-2.276,2.071-1-.345-.674-3.178-.486-5.124.157-1.538-.345-2.229-1.631-2.48a16.611,16.611,0,0,1-1.994-.38c-.741-.234-.909-1.636-2.49-1.168-.865.256-.309,2.088-.517,3.446-1.022,6.68-3.148,6.863-4.134,3.618C14,4.323,10.845.034,9,.034,7.072.034,4.872,1.36,5.8,9.842a2.99,2.99,0,0,0-1.088-.2A4.774,4.774,0,0,0,0,14.7a4.774,4.774,0,0,0,4.716,5.064,4.418,4.418,0,0,0,3.7-1.918c.574.823,1.274,1.93,2.553,1.881,3.813-.148,4.921-7.969,5.052-8.405.408.063.793.182,1.17.244.627.094.673.342.658.973-.166,5.319.815,7.181,3.042,7.181,1.24,0,2.346-1.219,3.108-2.09a3.225,3.225,0,0,0,2.691,2.09c2.947.073,4.075-4.623,3.972-4.005-.081.485.956,3.979,3.99,3.991,3.758.016,4.456-4.117,4.54-4.809.01-.138.015-.123,0,0,0,.013,0,.026,0,.042A3.539,3.539,0,0,0,41,14.081s.958,5.693,4.506,5.628c3.685-.067,4.379-3.8,4.471-4.53.012-.173.019-.153,0,0V15.2a3.947,3.947,0,0,0,1.79-1.033s.761,5.579,4.506,5.628c3.337.044,4.574-3.374,4.581-4.8a5.343,5.343,0,0,0,1.58-.353s1.223,4.878,4.636,5.129A5.422,5.422,0,0,0,70.555,18.4c1.611,1.3,6.974,2.97,10.361-2.771.478-.824-.55-1.8-.73-1.925ZM4.58,17.873a2.9,2.9,0,0,1-2.686-3.144c0-1.631.963-3.144,2.6-3.144a2.19,2.19,0,0,1,1.719.58c.1.41.4,1.355.542,1.784.192.574.421,1.063.651,1.6A2.889,2.889,0,0,1,4.58,17.873Zm3.987-5.661c-.068-.108-.054-.042-.13-.144a15.709,15.709,0,0,1-.945-4.706c-.076-2.34.314-5.083,1.464-5.083.779,0,1.607,5.559-.389,9.933Zm23.04-2.438C31.423,8.385,31.413,2.2,32.9,2.365c.821.332-.52,6.174-1.292,7.409Zm10.852,0c-.185-1.389-.194-7.579,1.292-7.409.821.332-.52,6.174-1.292,7.409Zm10.766.086c-.185-1.389-.194-7.579,1.292-7.409.821.332-.52,6.174-1.292,7.409ZM65.11,2c1.359-.141,1.3,5.793-1.425,9.538C63.334,10.188,62.795,2.468,65.11,2Zm5.711,12.767c-.437-2.2.691-3.652,1.854-3.811a1.03,1.03,0,0,1,1.113.69c.193.927-.028,2.3-2.63,4.048a3.582,3.582,0,0,1-.336-.928Z" transform="translate(251.23 751.83)"/>
    <g id="dribbble-icon" transform="translate(214.533 748.5)">
      <path id="Path_666" data-name="Path 666" class="cls-1" d="M21.056,8.5A12.451,12.451,0,1,1,8.6,20.956,12.446,12.446,0,0,1,21.056,8.5Z" transform="translate(-7.703 -7.613)"/>
      <path id="Path_667" data-name="Path 667" class="cls-2" d="M13.353,26.675A13.337,13.337,0,1,1,26.707,13.332,13.354,13.354,0,0,1,13.353,26.675ZM24.61,15.158a16.82,16.82,0,0,0-7.1-.49,48.661,48.661,0,0,1,2.212,8.116,11.324,11.324,0,0,0,4.893-7.626Zm-6.8,8.679A47.3,47.3,0,0,0,15.377,15.2a.193.193,0,0,1-.073.021c-6.437,2.243-8.742,6.7-8.951,7.115a11.361,11.361,0,0,0,7,2.4,11.143,11.143,0,0,0,4.455-.9ZM4.882,20.968a18.177,18.177,0,0,1,9.274-7.522c.146-.052.3-.094.449-.136-.282-.647-.595-1.294-.928-1.93A42.133,42.133,0,0,1,1.951,13c0,.115-.01.23-.01.344a11.4,11.4,0,0,0,2.942,7.626ZM2.191,11.016A42.222,42.222,0,0,0,12.738,9.629,72.813,72.813,0,0,0,8.513,3.046a11.423,11.423,0,0,0-6.322,7.97Zm8.492-8.742A59.976,59.976,0,0,1,14.939,8.94a12.93,12.93,0,0,0,5.978-4.11,11.371,11.371,0,0,0-7.563-2.869,11.843,11.843,0,0,0-2.671.313Zm11.5,3.87a15.187,15.187,0,0,1-6.364,4.5c.261.542.522,1.1.762,1.648.083.2.167.4.25.584a26.794,26.794,0,0,1,7.939.365,11.345,11.345,0,0,0-2.587-7.094Z" transform="translate(0 0)"/>
    </g>
  </g>
</svg>
