<svg id="dribbble" xmlns="http://www.w3.org/2000/svg" width="59.623" height="14.564" viewBox="0 0 59.623 14.564">
  <path id="Path_635" data-name="Path 635" d="M18.217,5.86a1.236,1.236,0,1,0-1.236-1.236A1.236,1.236,0,0,0,18.217,5.86Zm40.776,4.223c-.188-.132-.333-.154-.453.1-2.075,4.494-5.572,2.252-5.225,2.449.776-.355,2.816-1.991,2.507-4.25a2.1,2.1,0,0,0-2.63-1.774c-2.2.383-3,2.751-2.592,4.847a4.423,4.423,0,0,0,.329.948c-2.481,2.018-3.466-1.806-3.578-2.263A9.06,9.06,0,0,0,49.8,4.7c.56-4-.715-4.725-2.019-4.7-2.413.042-3.065,5.083-2.189,9.285a2.679,2.679,0,0,1-.963.229c-.395-1.242-2.082-2.331-2.523-1.911-1.1,1.05.268,3.1,1.234,3.263-.58,3.574-4.209,2.689-3.534-1.789a15.968,15.968,0,0,0,1.92-7.427A1.656,1.656,0,0,0,39.988.065C37.745.154,37.5,5.2,37.764,8.775a1.837,1.837,0,0,1-1.057.695c-.217-1.207-2.161-2.418-2.618-1.836-.856,1.09.628,3.033,1.331,3.169-.58,3.574-4.209,2.689-3.534-1.789a15.968,15.968,0,0,0,1.92-7.427A1.656,1.656,0,0,0,32.067,0c-2.243.089-2.487,5.131-2.224,8.71a1.84,1.84,0,0,1-1.1.707c-.032-1.566-1.982-2.284-2.451-1.784-.835.89.191,2.718,1.141,3.169-.58,3.574-4.209,2.689-3.534-1.789a15.967,15.967,0,0,0,1.92-7.427A1.656,1.656,0,0,0,24.084,0c-2.243.089-2.423,5.385-2.16,8.964-.739,3.165-3.216,7.118-2.894-.8.032-.555.066-.766-.21-.974-.208-.162-.679-.084-.937-.077-.313.013-.392.2-.461.473a11.744,11.744,0,0,0-.213,2.357,4.293,4.293,0,0,1-.221,1.254c-.17.6-1.142,1.708-1.675,1.523-.738-.254-.5-2.338-.358-3.77.115-1.132-.254-1.64-1.2-1.825a12.221,12.221,0,0,1-1.467-.279c-.545-.172-.669-1.2-1.832-.86-.636.188-.227,1.536-.38,2.535-.752,4.914-2.316,5.049-3.041,2.662C10.3,3.18,7.979.025,6.619.025,5.2.025,3.584,1,4.27,7.241a2.2,2.2,0,0,0-.8-.15A3.512,3.512,0,0,0,0,10.817a3.512,3.512,0,0,0,3.469,3.726A3.25,3.25,0,0,0,6.19,13.132c.423.605.937,1.42,1.878,1.384,2.8-.109,3.621-5.863,3.717-6.184.3.046.584.134.86.18.461.069.495.252.484.716-.122,3.913.6,5.283,2.238,5.283.913,0,1.726-.9,2.286-1.538a2.373,2.373,0,0,0,1.98,1.538c2.168.054,3-3.4,2.922-2.947-.059.357.7,2.927,2.935,2.937,2.765.012,3.279-3.029,3.34-3.538.008-.1.011-.091,0,0,0,.009,0,.019,0,.031a2.6,2.6,0,0,0,1.331-.634s.7,4.188,3.315,4.141c2.711-.049,3.222-2.8,3.289-3.333.009-.127.014-.112,0,0v.016a2.9,2.9,0,0,0,1.317-.76s.56,4.1,3.315,4.141c2.455.032,3.365-2.482,3.371-3.535a3.931,3.931,0,0,0,1.162-.26s.9,3.589,3.411,3.773a3.989,3.989,0,0,0,2.568-1.006c1.185.96,5.131,2.185,7.623-2.039.352-.606-.4-1.322-.537-1.416ZM3.37,13.149a2.137,2.137,0,0,1-1.976-2.313A2.09,2.09,0,0,1,3.306,8.523a1.611,1.611,0,0,1,1.265.427c.077.3.293,1,.4,1.313.141.423.309.782.479,1.174a2.125,2.125,0,0,1-2.08,1.714ZM6.3,8.985c-.05-.08-.04-.031-.1-.106a11.558,11.558,0,0,1-.7-3.462c-.056-1.722.231-3.739,1.077-3.739.573,0,1.182,4.09-.286,7.308ZM23.254,7.191c-.136-1.022-.143-5.576.95-5.451.6.245-.383,4.542-.95,5.451Zm7.984,0c-.136-1.022-.143-5.576.95-5.451.6.245-.383,4.542-.95,5.451Zm7.92.063c-.136-1.022-.143-5.576.95-5.451.6.245-.383,4.542-.95,5.451ZM47.9,1.474c1-.1.958,4.262-1.048,7.018C46.6,7.5,46.2,1.816,47.9,1.474Zm4.2,9.393c-.321-1.622.508-2.687,1.364-2.8a.758.758,0,0,1,.819.508c.142.682-.021,1.694-1.935,2.978a2.636,2.636,0,0,1-.247-.683Z" transform="translate(0 0)"/>
</svg>
