<svg id="github" xmlns="http://www.w3.org/2000/svg" width="42.239" height="11.447" viewBox="0 0 42.239 11.447">
  <defs>
    <style>
      .cls-1 {
        fill: #11110f;
      }
    </style>
  </defs>
  <path id="Path_625" data-name="Path 625" class="cls-1" d="M8.142,4.893H4.59a.166.166,0,0,0-.166.166V6.8a.166.166,0,0,0,.166.166H5.976V9.12A4.2,4.2,0,0,1,4.8,9.226c-1.015,0-2.433-.371-2.433-3.489S3.848,2.209,5.234,2.209a5.62,5.62,0,0,1,2.046.313.167.167,0,0,0,.2-.163l.4-1.678a.155.155,0,0,0-.063-.13A5.7,5.7,0,0,0,4.8,0C2.433,0,0,1.009,0,5.859s2.785,5.573,5.132,5.573a5.778,5.778,0,0,0,3.122-.83.143.143,0,0,0,.054-.126V5.059A.166.166,0,0,0,8.142,4.893ZM26.44.607A.165.165,0,0,0,26.276.44h-2a.166.166,0,0,0-.166.167V4.473H20.992V.607A.166.166,0,0,0,20.827.44h-2a.166.166,0,0,0-.165.167V11.074a.167.167,0,0,0,.165.168h2a.166.166,0,0,0,.165-.168V6.6H24.11L24.1,11.074a.167.167,0,0,0,.166.168h2.005a.166.166,0,0,0,.165-.168Zm-14.53,1.4a1.29,1.29,0,1,0-1.29,1.3A1.3,1.3,0,0,0,11.91,2.007Zm-.159,6.865V4.04a.166.166,0,0,0-.165-.167H9.592a.191.191,0,0,0-.173.186v6.922c0,.2.127.264.291.264h1.8c.2,0,.245-.1.245-.267Zm22.334-5H32.1a.166.166,0,0,0-.165.167V9.173a2.242,2.242,0,0,1-1.22.369c-.716,0-.906-.325-.906-1.026V4.041a.166.166,0,0,0-.165-.167H27.63a.167.167,0,0,0-.165.167V8.855c0,2.082,1.16,2.591,2.756,2.591a4.652,4.652,0,0,0,2.365-.723,4.184,4.184,0,0,0,.073.426.175.175,0,0,0,.146.091l1.282-.006a.167.167,0,0,0,.165-.167V4.041A.167.167,0,0,0,34.085,3.873Zm4.573,5.672A2.38,2.38,0,0,1,37.5,9.212V5.9a2.646,2.646,0,0,1,1.026-.333c.715-.064,1.4.152,1.4,1.857C39.933,9.22,39.622,9.575,38.659,9.546Zm.783-5.9a3.732,3.732,0,0,0-1.894.5V.607A.166.166,0,0,0,37.382.44H35.376a.166.166,0,0,0-.165.167V11.074a.167.167,0,0,0,.166.168h1.392a.166.166,0,0,0,.145-.089A3.252,3.252,0,0,0,37,10.67a3.589,3.589,0,0,0,2.373.777c1.823,0,2.868-.925,2.868-4.151S40.57,3.648,39.441,3.648Zm-21.933.207h-1.5l0-1.982c0-.075-.039-.113-.125-.113H13.836c-.08,0-.122.035-.122.111V3.92s-1.025.247-1.094.267a.166.166,0,0,0-.12.16V5.634a.166.166,0,0,0,.165.167h1.048V8.9c0,2.3,1.613,2.526,2.7,2.526a4.567,4.567,0,0,0,1.191-.2.155.155,0,0,0,.094-.15l0-1.416a.169.169,0,0,0-.166-.167c-.087,0-.311.036-.541.036-.737,0-.987-.343-.987-.786s0-2.943,0-2.943h1.5a.166.166,0,0,0,.165-.167V4.022A.166.166,0,0,0,17.509,3.855Z"/>
</svg>
