<svg xmlns="http://www.w3.org/2000/svg" xmlns:xlink="http://www.w3.org/1999/xlink" width="109.133" height="38.732" viewBox="0 0 109.133 38.732">
  <defs>
    <style>
      .cls-1 {
        fill: #11110f;
      }

      .cls-2 {
        fill: #9edcf2;
      }

      .cls-3 {
        clip-path: url(#clip-path);
      }

      .cls-4 {
        fill: #7dbce7;
      }

      .cls-5 {
        fill: #010101;
      }

      .cls-6 {
        fill: #f5ccb3;
      }

      .cls-7 {
        fill: #fff;
      }

      .cls-8 {
        fill: #af5c51;
      }

      .cls-9 {
        fill: #c4e5d9;
      }
    </style>
    <clipPath id="clip-path">
      <path id="Path_647" data-name="Path 647" d="M89.7,199.68a3.318,3.318,0,0,0,1.4,2.166h6.14a3.657,3.657,0,0,0,1.509-3.257v-4.631a1.84,1.84,0,0,1,1.15-1.524s.612-.433-.045-.672c0,0-2.913-.239-2.913,2.151v3.526s.12,1.3-.568,1.837v-4.362s.045-1.389.762-1.912c0,0,.478-.852-.568-.627A2.584,2.584,0,0,0,94.476,195l-.045,4.482h-.478L93.908,195a2.6,2.6,0,0,0-2.091-2.629c-1.046-.239-.568.627-.568.627.717.523.762,1.912.762,1.912v4.407c-.687-.493-.568-1.882-.568-1.882v-3.526c0-2.39-2.913-2.151-2.913-2.151-.672.239-.045.672-.045.672a1.893,1.893,0,0,1,1.15,1.524V197.2Z" transform="translate(-88.219 -191.756)"/>
    </clipPath>
  </defs>
  <g id="Group_316" data-name="Group 316" transform="translate(-634.463 -1129.645)">
    <g id="github" transform="translate(682.763 1140.682)">
      <path id="Path_625" data-name="Path 625" class="cls-1" d="M11.727,7.047H6.61a.239.239,0,0,0-.239.239v2.5a.239.239,0,0,0,.239.239h2v3.108a6.044,6.044,0,0,1-1.687.153c-1.462,0-3.5-.534-3.5-5.024S5.542,3.181,7.538,3.181a8.094,8.094,0,0,1,2.946.451A.241.241,0,0,0,10.77,3.4L11.341.981A.223.223,0,0,0,11.25.794C11.057.657,9.884,0,6.919,0,3.5,0,0,1.453,0,8.439s4.011,8.027,7.391,8.027a8.321,8.321,0,0,0,4.5-1.2.205.205,0,0,0,.078-.181v-7.8A.239.239,0,0,0,11.727,7.047ZM38.079.874a.238.238,0,0,0-.237-.24H34.961a.239.239,0,0,0-.239.24V6.442h-4.49V.874A.239.239,0,0,0,30,.634H27.115a.239.239,0,0,0-.238.24V15.949a.24.24,0,0,0,.238.241H30a.239.239,0,0,0,.238-.241V9.5h4.49l-.008,6.448a.24.24,0,0,0,.239.241h2.888a.239.239,0,0,0,.238-.241ZM17.153,2.89A1.858,1.858,0,1,0,15.3,4.766,1.866,1.866,0,0,0,17.153,2.89Zm-.229,9.887V5.818a.239.239,0,0,0-.238-.24H13.815a.275.275,0,0,0-.25.268v9.969c0,.293.183.38.419.38h2.587c.284,0,.353-.139.353-.385Zm32.165-7.2H46.231a.24.24,0,0,0-.238.241v7.391a3.23,3.23,0,0,1-1.757.531c-1.031,0-1.3-.468-1.3-1.477V5.819a.24.24,0,0,0-.238-.241h-2.9a.24.24,0,0,0-.238.241v6.934c0,3,1.671,3.731,3.969,3.731a6.7,6.7,0,0,0,3.406-1.042,6.026,6.026,0,0,0,.105.614.252.252,0,0,0,.21.13l1.846-.008a.24.24,0,0,0,.238-.241V5.819A.24.24,0,0,0,49.09,5.578Zm6.586,8.169a3.428,3.428,0,0,1-1.664-.48V8.494a3.811,3.811,0,0,1,1.478-.479c1.029-.092,2.021.219,2.021,2.674C57.511,13.278,57.063,13.789,55.676,13.748ZM56.8,5.254a5.375,5.375,0,0,0-2.728.724V.874a.239.239,0,0,0-.238-.24H50.949a.239.239,0,0,0-.238.24V15.949a.24.24,0,0,0,.238.241h2a.239.239,0,0,0,.209-.128,4.684,4.684,0,0,0,.122-.695A5.169,5.169,0,0,0,56.7,16.486c2.625,0,4.131-1.332,4.131-5.978S58.428,5.254,56.8,5.254Zm-31.588.3H23.055l0-2.855c0-.108-.056-.162-.18-.162H19.926c-.115,0-.176.05-.176.16v2.95s-1.476.356-1.575.385a.239.239,0,0,0-.173.23V8.115a.239.239,0,0,0,.238.241h1.51v4.46c0,3.313,2.324,3.638,3.892,3.638a6.578,6.578,0,0,0,1.715-.282.223.223,0,0,0,.135-.216l0-2.039a.243.243,0,0,0-.239-.241c-.126,0-.448.051-.78.051-1.061,0-1.421-.494-1.421-1.132s0-4.238,0-4.238h2.161a.239.239,0,0,0,.238-.241V5.793A.239.239,0,0,0,25.216,5.552Z" transform="translate(0 0)"/>
    </g>
    <g id="github-octocat" transform="translate(634.463 1129.645)">
      <path id="Path_645" data-name="Path 645" class="cls-2" d="M78.582,178.45c0,2.076-4.81,3.75-10.741,3.75S57.1,180.511,57.1,178.45s4.81-3.75,10.741-3.75,10.741,1.673,10.741,3.75Zm0,0" transform="translate(-48.57 -148.606)"/>
      <g id="Group_108" data-name="Group 108" transform="translate(13.179 28.641)">
        <g id="Group_107" data-name="Group 107" class="cls-3">
          <path id="Path_646" data-name="Path 646" class="cls-4" d="M78.582,178.45c0,2.076-4.81,3.75-10.741,3.75S57.1,180.511,57.1,178.45s4.81-3.75,10.741-3.75,10.741,1.673,10.741,3.75Zm0,0" transform="translate(-61.749 -177.248)"/>
        </g>
      </g>
      <path id="Path_648" data-name="Path 648" class="cls-2" d="M45.077,125.9l-.314,1.076a.386.386,0,0,0,.284.463.351.351,0,0,0,.329-.478l-.3-1.061Zm0,0" transform="translate(-38.071 -107.097)"/>
      <path id="Path_649" data-name="Path 649" class="cls-5" d="M38.214,14.308l.03-.134a36.224,36.224,0,0,0-8.336-.553,15.382,15.382,0,0,0,.418-3.974,7.029,7.029,0,0,0-2.091-5.124,6.724,6.724,0,0,0-.3-4.437s-1.464-.463-4.8,1.763a16.752,16.752,0,0,0-4.078-.493,17.546,17.546,0,0,0-4.512.583C11.115-.406,9.606.072,9.606.072a6.477,6.477,0,0,0-.194,4.751,6.866,6.866,0,0,0-1.867,4.81,11.619,11.619,0,0,0,.583,3.959A35.963,35.963,0,0,0,0,14.159l.03.134a36.008,36.008,0,0,1,8.142-.553c.09.239.194.478.3.7A36.44,36.44,0,0,0,.06,15.653l.045.134a36.941,36.941,0,0,1,8.455-1.2c1.165,2.151,3.436,3.555,7.5,3.989a3.318,3.318,0,0,0-1.4,2.166,3.441,3.441,0,0,1-4.766-1.27,3.351,3.351,0,0,0-2.435-1.643s-1.554-.03-.1.971A4.228,4.228,0,0,1,9.1,21.136s.941,3.137,5.438,2.121v3.212a1.84,1.84,0,0,1-1.15,1.524s-.627.433.045.672c0,0,2.913.239,2.913-2.151V22.988s-.12-1.4.568-1.882v5.8s-.045,1.389-.762,1.912c0,0-.478.852.568.627a2.584,2.584,0,0,0,2.091-2.629l.045-5.871h.478l.045,5.871a2.6,2.6,0,0,0,2.091,2.629c1.046.239.568-.627.568-.627-.717-.523-.762-1.912-.762-1.912V21.151c.687.538.568,1.837.568,1.837v3.526c0,2.39,2.913,2.151,2.913,2.151.672-.239.045-.672.045-.672a1.893,1.893,0,0,1-1.15-1.524V21.838a3.618,3.618,0,0,0-1.509-3.257c4.332-.433,6.409-1.823,7.365-4a36.151,36.151,0,0,1,8.575,1.21l.045-.134a37.35,37.35,0,0,0-8.56-1.21c.09-.224.164-.448.239-.687a37.619,37.619,0,0,1,8.411.553Zm0,0" transform="translate(0 -0.032)"/>
      <path id="Path_650" data-name="Path 650" class="cls-6" d="M85.711,58.867a4.066,4.066,0,0,1,1.479,2.958c0,5.139-3.824,5.273-8.545,5.273S70.1,66.382,70.1,61.825a3.992,3.992,0,0,1,1.464-2.943c1.539-1.4,4.138-.657,7.081-.657s5.527-.762,7.066.642Zm0,0" transform="translate(-59.628 -49.356)"/>
      <path id="Path_651" data-name="Path 651" class="cls-7" d="M88.055,70.754c0,1.419-.792,2.555-1.778,2.555S84.5,72.158,84.5,70.754s.792-2.555,1.778-2.555,1.778,1.135,1.778,2.555Zm0,0" transform="translate(-71.877 -58.016)"/>
      <path id="Path_652" data-name="Path 652" class="cls-8" d="M91.06,75.8c0,.941-.538,1.7-1.18,1.7s-1.18-.762-1.18-1.7.538-1.7,1.18-1.7,1.18.762,1.18,1.7Zm0,0" transform="translate(-75.449 -63.035)"/>
      <path id="Path_653" data-name="Path 653" class="cls-7" d="M151.955,70.754c0,1.419-.792,2.555-1.778,2.555s-1.778-1.15-1.778-2.555.792-2.555,1.778-2.555,1.778,1.135,1.778,2.555Zm0,0" transform="translate(-126.231 -58.016)"/>
      <path id="Path_654" data-name="Path 654" class="cls-8" d="M154.86,75.8c0,.941-.538,1.7-1.18,1.7s-1.18-.762-1.18-1.7.538-1.7,1.18-1.7,1.18.762,1.18,1.7Zm0,0" transform="translate(-129.718 -63.035)"/>
      <path id="Path_655" data-name="Path 655" class="cls-8" d="M125.4,97.948a.448.448,0,1,1-.9,0,.44.44,0,0,1,.448-.448.449.449,0,0,1,.448.448Zm0,0" transform="translate(-105.901 -82.939)"/>
      <path id="Path_656" data-name="Path 656" class="cls-8" d="M120.547,106.926a.142.142,0,1,1,.269-.09.8.8,0,0,0,.762.538.824.824,0,0,0,.762-.538.142.142,0,1,1,.269.09,1.092,1.092,0,0,1-2.062,0Zm0,0" transform="translate(-102.53 -90.797)"/>
      <path id="Path_657" data-name="Path 657" class="cls-9" d="M50.927,120.409c0,.119-.134.209-.314.209s-.314-.09-.314-.209.134-.209.314-.209.314.09.314.209Zm0,0" transform="translate(-42.786 -102.248)"/>
      <path id="Path_658" data-name="Path 658" class="cls-9" d="M56.727,123.609c0,.119-.134.209-.314.209s-.314-.09-.314-.209.134-.209.314-.209.314.09.314.209Zm0,0" transform="translate(-47.719 -104.97)"/>
      <path id="Path_659" data-name="Path 659" class="cls-9" d="M60.227,127.8c0,.12-.134.209-.314.209s-.314-.09-.314-.209.134-.209.314-.209.314.09.314.209Zm0,0" transform="translate(-50.696 -108.535)"/>
      <path id="Path_660" data-name="Path 660" class="cls-9" d="M63.427,132.6c0,.12-.134.209-.314.209s-.314-.09-.314-.209.134-.209.314-.209.314.09.314.209Zm0,0" transform="translate(-53.418 -112.618)"/>
      <path id="Path_661" data-name="Path 661" class="cls-9" d="M66.927,137.009c0,.119-.134.209-.314.209s-.314-.09-.314-.209.134-.209.314-.209.314.09.314.209Zm0,0" transform="translate(-56.396 -116.368)"/>
      <path id="Path_662" data-name="Path 662" class="cls-9" d="M71.727,140.9c0,.12-.134.209-.314.209s-.314-.09-.314-.209.134-.209.314-.209.314.09.314.209Zm0,0" transform="translate(-60.478 -119.678)"/>
      <path id="Path_663" data-name="Path 663" class="cls-9" d="M78.427,143.409c0,.12-.134.209-.314.209s-.314-.09-.314-.209.134-.209.314-.209.314.09.314.209Zm0,0" transform="translate(-66.178 -121.812)"/>
      <path id="Path_664" data-name="Path 664" class="cls-9" d="M85.127,143.409c0,.12-.134.209-.314.209s-.314-.09-.314-.209.134-.209.314-.209.314.09.314.209Zm0,0" transform="translate(-71.877 -121.812)"/>
      <path id="Path_665" data-name="Path 665" class="cls-9" d="M91.927,142.309c0,.12-.134.209-.314.209s-.314-.09-.314-.209.134-.209.314-.209.314.09.314.209Zm0,0" transform="translate(-77.661 -120.877)"/>
    </g>
  </g>
</svg>
