<svg id="linkedin" xmlns="http://www.w3.org/2000/svg" width="63.324" height="16.046" viewBox="0 0 63.324 16.046">
  <defs>
    <style>
      .cls-1 {
        fill: #1a1918;
      }

      .cls-2 {
        fill: #006087;
      }

      .cls-3 {
        fill: #fff;
      }
    </style>
  </defs>
  <path id="Path_636" data-name="Path 636" class="cls-1" d="M0,19.164H2.475v9.016H7.058v2.284H0v-11.3" transform="translate(0 -16.79)"/>
  <path id="Path_637" data-name="Path 637" class="cls-1" d="M65.671,17.811a1.379,1.379,0,1,1-1.379,1.379,1.381,1.381,0,0,1,1.379-1.379Zm-1.19,3.807h2.379v7.658H64.481Z" transform="translate(-56.33 -15.605)"/>
  <path id="Path_638" data-name="Path 638" class="cls-1" d="M95.662,47.215h2.284v1.047h.032a2.5,2.5,0,0,1,2.252-1.237c2.411,0,2.855,1.586,2.855,3.647v4.2h-2.379V51.148c0-.889-.016-2.03-1.238-2.03-1.237,0-1.427.968-1.427,1.967v3.787H95.662V47.215" transform="translate(-83.816 -41.201)"/>
  <path id="Path_639" data-name="Path 639" class="cls-1" d="M165.344,19.158h2.378v6.753l2.694-3.117h2.916l-3.12,3.545,3.055,4.119h-2.99l-2.524-3.785h-.031v3.785h-2.378v-11.3" transform="translate(-144.869 -16.786)"/>
  <path id="Path_640" data-name="Path 640" class="cls-1" d="M233.252,53.229A4.188,4.188,0,0,1,230,54.753a4.051,4.051,0,1,1,0-8.089c2.222,0,3.616,1.586,3.616,4.044v.745H228.1a1.776,1.776,0,0,0,1.792,1.491,2.03,2.03,0,0,0,1.7-.936l1.665,1.221Zm-2.014-3.393a1.426,1.426,0,0,0-1.46-1.459,1.586,1.586,0,0,0-1.68,1.459Z" transform="translate(-197.767 -40.885)"/>
  <path id="Path_641" data-name="Path 641" class="cls-1" d="M303.312,30.454h-2.189V29.439h-.031a2.991,2.991,0,0,1-2.364,1.206,3.7,3.7,0,0,1-3.791-3.981c0-2.141,1.332-4.108,3.521-4.108a2.875,2.875,0,0,1,2.443,1.015h.031V19.158h2.38v11.3Zm-4.094-5.8a1.8,1.8,0,0,0-1.9,1.95,1.9,1.9,0,1,0,3.806,0,1.8,1.8,0,0,0-1.9-1.95Z" transform="translate(-258.413 -16.786)"/>
  <path id="Path_642" data-name="Path 642" class="cls-2" d="M396.637,0H382.963a1.171,1.171,0,0,0-1.184,1.157V14.888a1.172,1.172,0,0,0,1.184,1.158h13.674a1.174,1.174,0,0,0,1.188-1.158V1.157A1.174,1.174,0,0,0,396.637,0" transform="translate(-334.501)"/>
  <path id="Path_643" data-name="Path 643" class="cls-3" d="M400.839,17.839a1.38,1.38,0,1,1-1.38,1.38,1.38,1.38,0,0,1,1.38-1.38Zm-1.19,3.807h2.38V29.3h-2.38Z" transform="translate(-349.992 -15.63)"/>
  <path id="Path_644" data-name="Path 644" class="cls-3" d="M432.263,47.23h2.283v1.046h.032a2.5,2.5,0,0,1,2.252-1.237c2.41,0,2.855,1.586,2.855,3.648v4.2h-2.378V51.163c0-.888-.016-2.031-1.237-2.031-1.239,0-1.428.967-1.428,1.966v3.788h-2.378V47.23" transform="translate(-378.734 -41.214)"/>
</svg>
