<svg xmlns="http://www.w3.org/2000/svg" width="421.045" height="804.208" viewBox="0 0 421.045 804.208">
  <defs>
    <style>
      .cls-1 {
        fill: #202338;
      }

      .cls-2 {
        fill: #81807e;
      }

      .cls-3 {
        fill: #292c47;
      }

      .cls-4 {
        fill: #dbd8e3;
      }

      .cls-5 {
        fill: #1d2033;
      }

      .cls-6 {
        fill: #323657;
      }

      .cls-7 {
        fill: #eea987;
      }

      .cls-8 {
        fill: #e8734d;
      }

      .cls-9 {
        fill: #c4c1cc;
      }

      .cls-10 {
        fill: #eea886;
      }

      .cls-11 {
        fill: #3a4066;
      }

      .cls-12 {
        fill: #efaa88;
      }

      .cls-13 {
        fill: #16202e;
      }

      .cls-14 {
        fill: #a77860;
      }
    </style>
  </defs>
  <g id="Group_23" data-name="Group 23" transform="translate(-480.869 -296.173)">
    <path id="Path_46" data-name="Path 46" class="cls-1" d="M566.25,432.988s5.958,11.107,9.847,15.525c3.9,4.4,18.793,12.284,18.875,25.378.082,14.2-25.125,10.266-34.978,9.743s-10.6-8.1-14.749-16.141-8.335-6.684-9.116-13.176,4.027-21.329,4.027-21.329Z" transform="translate(248.371 615.855)"/>
    <g id="Group_8" data-name="Group 8" transform="translate(619.058 1045.151)">
      <path id="Path_47" data-name="Path 47" class="cls-1" d="M551.512,434.711s-12.141,13.561-24.475,16.405-20.955,6.464-21.048,14.243,35.484,12.912,49.6,5.067c21.054-11.707,23.194-8.175,25.532-14.034s-2.8-21.5-2.652-23.359C578.656,430.733,551.512,434.711,551.512,434.711Z" transform="translate(-505.988 -432.317)"/>
    </g>
    <g id="Group_9" data-name="Group 9" transform="translate(664.559 1037.24)">
      <path id="Path_48" data-name="Path 48" class="cls-2" d="M515.653,434.7s-1.607,6.354-1.37,6.486,27.788,3.422,26.957-1.678c-.677-4.137-1.645-8.626-1.645-8.626Z" transform="translate(-514.259 -430.879)"/>
    </g>
    <g id="Group_10" data-name="Group 10" transform="translate(787.906 1042.159)">
      <path id="Path_49" data-name="Path 49" class="cls-2" d="M537.633,434.166s-1.144,6.068-.924,6.211,27.941,5.089,27.782.06c-.126-3.994-2.558-8.665-2.558-8.665Z" transform="translate(-536.68 -431.773)"/>
    </g>
    <g id="Group_11" data-name="Group 11" transform="translate(661.818 631.534)">
      <path id="Path_50" data-name="Path 50" class="cls-3" d="M542.943,386.364s-10.024,97.3-15.233,130.6c-6.1,38.944-8.159,71.122-9.853,91.273-2.146,25.356-2.553,150.072-4.049,157.476S547,767.757,547,767.757s17.054-162.939,23.425-189.934c5.925-25.147,27.919-133.386,33.322-126.515,5.419,6.86,12.119,126.305,16.124,146.138S636.048,772.5,636.048,772.5s27.606,5.49,34.95-.72c0,0,3.334-133.777.787-170.949-.974-14.166,16.6-169.866-5.936-232.548C653.944,335.163,542.943,386.364,542.943,386.364Z" transform="translate(-513.76 -357.132)"/>
    </g>
    <g id="Group_12" data-name="Group 12" transform="translate(682.572 417.499)">
      <path id="Path_51" data-name="Path 51" class="cls-4" d="M615.886,539.922s-6.689-10.095-13.759-11.4c-7.08-1.293,97.512-51.856,97.231-69.917-.22-14.65-37.662-38.955-37.662-38.955l-.017.061-.005.044-.016.061c-.792,2.9-11.608,43.043-11.982,62.325-.4,20.02,1.194,88.875,1.194,88.875l-26.809,7.179-85.628.8-19.546-7.977s2.14-22.137,2.927-37.684c.5-9.891,2.426-27.589,1.926-44.82,0,0,.314-18.171-1.485-26-.2-34.532-2.289-68.739-2.289-68.739q-1.741-23.485-2.431-43.956c3.785-2,8.318-4.341,11.959-6.073,11.245-5.342,26.924-12.56,36.975-17.175,5.886-2.707,11.652-4.682,11.652-4.682s40.2-3.851,43.455-3.647c1.029.061,6.057,1.821,12.648,4.33,14.254,5.4,41.722,16.416,46.107,19.557,6.415,4.6,48.423,115.737,49.039,123.379C730.474,479.276,615.886,539.922,615.886,539.922Z" transform="translate(-517.533 -318.227)"/>
    </g>
    <path id="Path_52" data-name="Path 52" class="cls-5" d="M520.359,362.848s58.821,5.006,110.341,0v16.9s-76.717,7.328-112.921-3.219Z" transform="translate(166.146 300.129)"/>
    <g id="Group_13" data-name="Group 13" transform="translate(666.936 423.613)">
      <path id="Path_53" data-name="Path 53" class="cls-6" d="M529.391,344.556c.451,13.88,1.123,28.783,2.305,44.726,0,0,1.111,38.955,3.356,75.9a73.432,73.432,0,0,1,.721,16.24c-.556,7.218-1.343,15.112-2.289,23.342-.011.1-.022.214-.027.314q-.347,2.929-.7,5.9l-.011.088c-5.006,41.156-13.473,88.385-17.89,102.666-.935,2.993,2.283,5.743,4.577,7.867l16.092,10.145s6.64-61.06,8.835-81.783c2.124-20,8.808-46.828,11.74-72.959v-.011c3.713-33.151,8.824-65.637,11.58-84.93,7.179-50.238,16.746-72.717,16.746-72.717C579.855,320.7,529.391,344.556,529.391,344.556Z" transform="translate(-514.691 -319.338)"/>
    </g>
    <g id="Group_14" data-name="Group 14" transform="translate(763.504 419.586)">
      <path id="Path_54" data-name="Path 54" class="cls-6" d="M621.133,451.794c6.976,15.294-64.019,42.558-62.418,46.327,3.84,9.055,19.508,27.5,19.508,27.5S671.7,479.378,670.645,468.9c-.753-7.636-44.544-123.021-50.959-127.615-3.708-2.663-31.165-12.395-44.638-17.7-2.465-.974-10.86-4.131-13.072-4.979-2.855,3.191-22.555,24.921-29.509,107.051-1.172,13.836,2.525,43.153,5,67.073,2.641,25.526,5.562,45.452,7.7,66.792,4.214,42.047,7.168,75.512,7.168,75.512L594.193,616.4c6.767-3.389,18.479-12.229,15.937-19.359-9.671-27.105-24.189-78.466-24.206-102.243,0,0,6.838-65.62,10.546-78.416C596.471,416.382,613.332,434.685,621.133,451.794Z" transform="translate(-532.244 -318.606)"/>
    </g>
    <g id="Group_15" data-name="Group 15" transform="translate(743.489 378.769)">
      <path id="Path_55" data-name="Path 55" class="cls-7" d="M568.023,354.2s.27-13.8,5.589-41.711c1.425-7.471-43.378,19.656-43.378,19.656s.138,2.624.226,6.151c.05,1.87.077,3.994.072,6.117-.005.748-.016,1.491-.033,2.233-.039,1.969-.132,3.862-.3,5.469a25.812,25.812,0,0,1-1.5,5.391C526.856,361.764,552.927,365,568.023,354.2Z" transform="translate(-528.606 -311.186)"/>
    </g>
    <path id="Path_56" data-name="Path 56" class="cls-8" d="M536.759,321.633l-7.421,9.974s4.352,5.831,12.075,1.535Z" transform="translate(218.173 114.606)"/>
    <path id="Path_57" data-name="Path 57" class="cls-8" d="M548.641,323.742S520.474,432.179,526.278,516.6l9.479,16.7,8.874-17.489s2.426-151.007,10.156-192.339Z" transform="translate(200.855 122.884)"/>
    <path id="Path_58" data-name="Path 58" class="cls-7" d="M529.242,322.267l7.944,9.3s12.774-2.47,16.526-9.138S529.242,322.267,529.242,322.267Z" transform="translate(217.745 104.669)"/>
    <path id="Path_59" data-name="Path 59" class="cls-9" d="M533.1,318.461s.924,7.1,9.771,17.45l-9.649,12.983-5.237-26.929Z" transform="translate(212.064 100.328)"/>
    <path id="Path_60" data-name="Path 60" class="cls-9" d="M559.519,317.027s-15.921,20.239-28.833,25.339l6,14.843,27.43-33.146Z" transform="translate(224.245 93.873)"/>
    <g id="Group_16" data-name="Group 16" transform="translate(480.869 560.922)">
      <path id="Path_61" data-name="Path 61" class="cls-10" d="M517.911,344.3s-29.509,3.444-31.176,5.336c-1.65,1.881-1.26,3.482,1.519,3.279s28.667-2.492,28.667-2.492-33.833,9.991-35.55,11.212c-1.007.726-.424,3.851,1.078,3.884,1.518.028,35.737-7.922,35.737-7.922s-31.556,9.385-32.662,10.865a2.451,2.451,0,0,0,2.685,3.554c2.4-.533,32.3-7.559,32.3-7.559s-22.435,8.313-22.589,10.156c-.1,1.133.275,3.856,5.991,1.524s19.86-6.365,19.86-6.365Z" transform="translate(-480.869 -344.297)"/>
    </g>
    <g id="Group_18" data-name="Group 18" transform="translate(514.563 541.733)">
      <g id="Group_17" data-name="Group 17">
        <path id="Path_62" data-name="Path 62" class="cls-10" d="M525.225,361.4s-9.825.512-12.829-4.467c-2.552-4.22-8.78-8.049-10.706-9.231-2.569-1.584-8.83-9.242-10.645-6.167s9.748,13.082,11.789,15.64-12.125,1.617-14.705,3.477-1.183,25.29,8.538,24.817S516,378.043,517.749,378.3a59.968,59.968,0,0,0,7.1-.072Z" transform="translate(-486.993 -340.809)"/>
      </g>
    </g>
    <g id="Group_19" data-name="Group 19" transform="translate(542.898 445.626)">
      <path id="Path_63" data-name="Path 63" class="cls-6" d="M497.942,463.2s72.387-10.139,88.451-14.089c7.427-1.832,17.208-12.075,26.511-24.129,3.059-3.972,6.063-8.136,8.923-12.263l.011-.022c11.4-16.46,20.333-32.238,20.333-32.238s33.713-39.505,6.668-57.115c0,0-11.6-.253-17.957,3.2-6.536,3.548-20.487,32.645-22.853,37.811-2.36,5.149-27.98,53.022-29.685,54.1-1.722,1.073-27.287,6.635-38.691,9.006-16.5,3.438-47.51,9.886-47.51,9.886Z" transform="translate(-492.144 -323.339)"/>
    </g>
    <rect id="Rectangle_20" data-name="Rectangle 20" class="cls-11" width="27.512" height="20.872" transform="translate(757.389 684.75) rotate(180)"/>
    <path id="Path_64" data-name="Path 64" class="cls-12" d="M546.979,392.58s3.422-.132,4.891-.924c0,0,2.564-1.645,4.445-2.7a14.6,14.6,0,0,1,1.5-.754c1.508-.594,5.007-1.463,8.23-3.922S579.757,372,579.757,372l-6.783-10.431-3.131-10.332s-24.486,2.437-27.743,4.368a7.716,7.716,0,0,0-.9.616c-2.613,1.9-3.746,4.423-5,5.584-.462.424-4.72,4.99-4.484,6.838a6.129,6.129,0,0,0,3.191,5.006s.864,5,3.455,7.24c0,0,.644,4.638,4.654,6.508C543.019,387.4,544.2,392.03,546.979,392.58Z" transform="translate(228.851 247.864)"/>
    <path id="Path_65" data-name="Path 65" class="cls-6" d="M557.775,397.449s-13.616-11.173-20.988-27.5l41.777-22.875,15.509,31.567Z" transform="translate(251.708 229.148)"/>
    <g id="Group_20" data-name="Group 20" transform="translate(710.588 308.748)">
      <path id="Path_66" data-name="Path 66" class="cls-10" d="M533.565,320.753S523.712,339,528.6,341.839c4.027,2.344-4.72,20.25-5.864,23.177s7.3,5.056,9.094,6.932,7.114,25.059,14.062,25.752,38.306-10.2,46.844-19.073,15.536-48.962,9.842-65.873S550.938,288.878,533.565,320.753Z" transform="translate(-522.626 -298.459)"/>
    </g>
    <g id="Group_21" data-name="Group 21" transform="translate(716.801 296.173)">
      <path id="Path_67" data-name="Path 67" class="cls-13" d="M526.511,334.992s-10.04-19.706,8.2-34.328,51.905,11.041,55.7,12.02,25.312,2.459,14.447,40.242c-9.33,32.447-10.634,33.817-10.634,33.817s-6.97-18.8-10.915-21.664c-6.156-4.478-19.667-3.405-19.667-3.405s6.437-17.087-3.625-19.513S536.689,331.218,526.511,334.992Z" transform="translate(-523.755 -296.173)"/>
    </g>
    <g id="Group_22" data-name="Group 22" transform="translate(764.903 343.55)">
      <path id="Path_68" data-name="Path 68" class="cls-10" d="M535,313.127c.886-2.344,3.763-12.422,12.406-6.508s-5.391,24.916-6.893,25.158S527.538,332.854,535,313.127Z" transform="translate(-532.499 -304.785)"/>
    </g>
    <path id="Path_69" data-name="Path 69" class="cls-14" d="M529.015,333.03c-.005.748-.016,1.491-.033,2.233,25.625-8.6,30.593-21.549,30.593-21.549-7.994,5.655-30.632,13.2-30.632,13.2C528.993,328.783,529.02,330.907,529.015,333.03Z" transform="translate(216.399 78.964)"/>
  </g>
</svg>
