<svg id="Group_24" data-name="Group 24" xmlns="http://www.w3.org/2000/svg" width="275.156" height="287.896" viewBox="0 0 275.156 287.896">
  <defs>
    <style>
      .cls-1 {
        fill: #292c47;
      }

      .cls-2 {
        fill: #eea886;
      }

      .cls-3 {
        fill: #5779d4;
      }

      .cls-4 {
        fill: #e55353;
      }

      .cls-5 {
        fill: #e64053;
      }

      .cls-6 {
        fill: #434343;
      }

      .cls-7 {
        fill: #191a2b;
      }

      .cls-8 {
        fill: #525252;
      }

      .cls-9 {
        fill: #6e6e6e;
      }

      .cls-10 {
        fill: #a77860;
      }
    </style>
  </defs>
  <path id="Path_23" data-name="Path 23" class="cls-1" d="M550.772,419.446c-.67,4.672-28.746,24.338-34.279,28.266-4.435,3.151-8.29,4.6-15.007,7.12h0c-15.24,4.008-110.89,32.551-110.89,32.551a12.13,12.13,0,0,0-.95-2.908c-3.568,1.421-7.247,2.344-9.578,3.075-3.562,1.114-31.828,2-37.614,3.115s-17.361,2.895-22.037-1.557,2.895-14.02,9.347-16.468,30.047-3.118,34.275-3.565,9.791-2,12.466-1.11c.844.28,4.572-.814,9.284-2.441-.117-1.734-.147-2.828-.147-2.828l25.111-7.24L406.1,410.989s10.925-41.175,54.581-9.768c0,0,9.741,2.868,13.079,3.755a3.624,3.624,0,0,0,1.117.033c6.66-.5,35.276-9.157,45.621-9.157,11.128,0,14.693-.664,18.7,1.337S551.439,414.771,550.772,419.446Z" transform="translate(-275.654 -204.077)"/>
  <path id="Path_24" data-name="Path 24" class="cls-1" d="M536.371,488.342c-4.669,4.452-16.244,2.668-22.03,1.557s-34.052-2-37.613-3.115-10.241-2.671-14.913-5.783a14.552,14.552,0,0,0-2.5-1.1l0,0-7.067,5.1-98.277-31.284a35.263,35.263,0,0,1-13.673-6.776c-5.122-4.452-33.608-23.594-34.279-28.266s7.57-20.256,11.575-22.257,7.567-1.337,18.695-1.337,43.4,10.018,46.741,9.124a48.175,48.175,0,0,0,7.633-3.632c3.572-1.948,6.906-3.932,6.906-3.932,47.8-21.34,53.117,13.576,53.117,13.576l-2.828,43.1s3.985,1.974,9.164,4.442l23.694,6.693-3.1,2.234a6.187,6.187,0,0,0,2.675.5c2.671-.894,8.234.67,12.459,1.11s27.826,1.117,34.282,3.565S541.05,483.89,536.371,488.342Z" transform="translate(-305.98 -203.311)"/>
  <path id="Path_25" data-name="Path 25" class="cls-1" d="M336.717,392.99c3.3.234,25.571,13.133,30.857,16.221-8.034-4.2-38.491-12.589-38.491-12.589A48.162,48.162,0,0,0,336.717,392.99Z" transform="translate(-252.035 -195.722)"/>
  <path id="Path_26" data-name="Path 26" class="cls-1" d="M397.5,397.006s-38.371,9.307-45.394,13.206c.317-.23,20.219-15.357,30.671-17.371,0,0,10.265,3.241,13.6,4.129A3.626,3.626,0,0,0,397.5,397Z" transform="translate(-198.273 -196.07)"/>
  <path id="Path_27" data-name="Path 27" class="cls-2" d="M429.015,434.462c-4.669,4.452-16.244,2.668-22.03,1.557s-34.052-2-37.613-3.115c-1.024-.323-2.308-.677-3.722-1.094v0c-3.512-1.044-7.864-2.471-11.192-4.685a14.56,14.56,0,0,0-2.5-1.1l17.788-12.836.51-.37a6.186,6.186,0,0,0,2.675.5c2.671-.894,8.234.67,12.459,1.11s27.826,1.117,34.282,3.565S433.693,430.01,429.015,434.462Z" transform="translate(-198.623 -149.431)"/>
  <path id="Path_28" data-name="Path 28" class="cls-3" d="M419.435,434.462c-4.669,4.452-16.244,2.668-22.03,1.557s-34.052-2-37.613-3.115c-1.024-.323-2.308-.677-3.722-1.094v0l-.007,0s7.784-7.7,4.105-18.618l.51-.37a6.186,6.186,0,0,0,2.675.5c2.671-.894,8.234.67,12.459,1.11s27.826,1.117,34.282,3.565S424.113,430.01,419.435,434.462Z" transform="translate(-189.043 -149.431)"/>
  <path id="Path_29" data-name="Path 29" class="cls-4" d="M334.537,395.936c.05.123.037.207-.033.267C334.056,396.53,334.13,396.389,334.537,395.936Z" transform="translate(-240.093 -188.843)"/>
  <path id="Path_30" data-name="Path 30" class="cls-5" d="M502.05,435.6c-.37-.75-20.646-32.641-26.138-47.184s-18.7-21.216-24.924-23.294c-2.221-.74-6.186-2.027-10.368-3.378-7.527-2.441-15.75-5.079-15.75-5.079H398.9s-8.991,3.015-18.545,6.359l-.01.007c-8.8,3.091-18.075,6.463-21.206,8.027-6.53,3.261-17.508,26.559-19.736,29.23s-19.342,34.4-21.81,46.591c-1.918,9.468,54.288,37.21,55.825,40.762,1.778-1.974,9.965-9.824,9.965-9.824s-2.618-1.647-6.313-4.072c15.057.687,51.847-.614,57.126-.347a27.385,27.385,0,0,0,3.4-.07h-.007c1.634,1.191,12.172,10.495,12.172,10.495s25.962-10.778,37.907-22.847C504.631,443.833,503.917,439.378,502.05,435.6ZM354.41,456.7c-5.566-6.676-13.223-10.718-11.3-13.68s18.251-31.161,18.251-31.161,8.457,18.542,10.832,28.189,2.191,14.063,1.191,17.061c-.9,2.695-1.618,4.525-2.431,12.532C364.3,465.1,356.958,459.76,354.41,456.7Zm114.8-3.188c-2.184,2.481-10.818,7.967-18.582,12.479-.59-5.383-1.481-13.846-1.577-16.888-.15-4.6,1.781-17.808,4.155-22.857s4.005-18.839,4.005-18.839,19.659,26.709,22.777,29.527S476.581,445.137,469.215,453.511Z" transform="translate(-278.975 -280.544)"/>
  <g id="Group_4" data-name="Group 4" transform="translate(111.707 4.558)">
    <path id="Path_31" data-name="Path 31" class="cls-2" d="M363.779,335.394s20.306,3.2,17.211,34.969-21.016,29.17-22.21,29.133-17.991.58-19.3-38.207C339.478,361.289,338.908,332.606,363.779,335.394Z" transform="translate(-339.477 -335.203)"/>
  </g>
  <g id="Group_5" data-name="Group 5" transform="translate(152.353 29.7)">
    <path id="Path_32" data-name="Path 32" class="cls-2" d="M352.848,343.789s2.218-2.375,3.038.03-3.031,13.129-3.171,13.626c0,0-.407.937-.94.42S352.848,343.789,352.848,343.789Z" transform="translate(-351.665 -342.742)"/>
  </g>
  <g id="Group_6" data-name="Group 6" transform="translate(109.084 29.261)">
    <path id="Path_33" data-name="Path 33" class="cls-2" d="M341.861,343.693s-2.178-2.418-3.038-.027,2.745,13.183,2.9,13.686c0,0,.39.944.934.437S341.861,343.693,341.861,343.693Z" transform="translate(-338.69 -342.61)"/>
  </g>
  <g id="Group_7" data-name="Group 7" transform="translate(109.363 0)">
    <path id="Path_34" data-name="Path 34" class="cls-6" d="M382.934,369.455l-2.9,3.889s.08-8.524-.387-9.858-1.174-5.416-1.567-6.38-17.438-5.739-32.5,1.391c0,0,.664,6.129-.78,6.673s-.737,9.981-.737,9.981l-2.388-2.7s-3.662-24.444-2.755-26.989,3.782-17.868,34.676-8.774c0,0,9.631-2.041,11.565,4.605S382.934,369.455,382.934,369.455Z" transform="translate(-338.774 -333.836)"/>
  </g>
  <path id="Path_35" data-name="Path 35" class="cls-7" d="M381.333,425.837s-31.087-18.632-44.663-21.563c-12.829-2.768-17.508-7.57-17.508-7.57s20.4,0,33.975,9.648C362.358,412.9,381.333,425.837,381.333,425.837Z" transform="translate(-275.201 -187.05)"/>
  <path id="Path_36" data-name="Path 36" class="cls-7" d="M346.085,438.823s54.068-28.393,76.138-34.549c12.646-3.528,17.508-7.57,17.508-7.57s-33.422,3.268-53.751,15.507C376.3,418.047,346.085,438.823,346.085,438.823Z" transform="translate(-212.34 -187.05)"/>
  <path id="Path_37" data-name="Path 37" class="cls-2" d="M389.643,431.187c-3.568,1.421-7.247,2.344-9.578,3.075-3.562,1.114-31.828,2-37.614,3.115s-17.361,2.895-22.037-1.557,2.895-14.02,9.347-16.468,30.047-3.118,34.275-3.565,9.791-2,12.466-1.11c.844.28,4.572-.814,9.284-2.441C385.928,415.056,389.643,431.187,389.643,431.187Z" transform="translate(-275.654 -150.788)"/>
  <path id="Path_38" data-name="Path 38" class="cls-1" d="M346.085,430.37l53.147-15.73-10.5-3.208S346.248,426.829,346.085,430.37Z" transform="translate(-212.34 -152.663)"/>
  <path id="Path_39" data-name="Path 39" class="cls-7" d="M346.085,422.426l24.871-7.591-17.244,10.021Z" transform="translate(-212.34 -144.718)"/>
  <path id="Path_40" data-name="Path 40" class="cls-8" d="M341.746,398.508l-1.12-.654A10.368,10.368,0,0,1,341.746,398.508Z" transform="translate(-225.086 -184.365)"/>
  <path id="Path_41" data-name="Path 41" class="cls-3" d="M380.066,432.742c-3.562,1.114-31.828,2-37.614,3.115s-17.361,2.895-22.037-1.557,2.895-14.02,9.347-16.467,30.047-3.118,34.275-3.565,9.791-2,12.466-1.11C376.5,413.157,369.371,424.058,380.066,432.742Z" transform="translate(-275.654 -149.269)"/>
  <path id="Path_42" data-name="Path 42" class="cls-8" d="M337.752,431.035l-8.187-46.591L435.456,382l-6.82,45.847s-33.8,12.376-45.27,19.589C383.366,447.436,354.369,435.524,337.752,431.035Z" transform="translate(-250.912 -221.382)"/>
  <path id="Path_43" data-name="Path 43" class="cls-9" d="M355.879,396.041c0,3.852-2.655,6.977-5.933,6.977s-5.939-3.125-5.939-6.977,2.658-6.973,5.939-6.973S355.879,392.193,355.879,396.041Z" transform="translate(-217.192 -204.879)"/>
  <path id="Path_44" data-name="Path 44" class="cls-2" d="M378.193,368.395h0c-1.264-2.828-.15-14.3-.15-14.3s-25.858-6.586-25.121-1.551-1.634,15.874-1.634,15.874l-13.863,7.44s14.136,37.957,30.384,33.062,22.38-34.429,22.38-34.429Z" transform="translate(-232.56 -294.592)"/>
  <path id="Path_45" data-name="Path 45" class="cls-10" d="M342.17,353.092a15.448,15.448,0,0,0,11.442,5.426c4.759,0,7.943-1.114,12.686-5.736,0,0-1.828,8.56-12.652,9.374C353.645,362.156,345.751,363.1,342.17,353.092Z" transform="translate(-221.481 -289.601)"/>
</svg>
