<svg xmlns="http://www.w3.org/2000/svg" width="19.432" height="15.791" viewBox="0 0 19.432 15.791">
  <defs>
    <style>
      .cls-1 {
        fill: #55acee;
      }
    </style>
  </defs>
  <g id="twitter_2_" data-name="twitter (2)" transform="translate(0 -0.822)">
    <path id="Path_626" data-name="Path 626" class="cls-1" d="M19.432,2.691a7.971,7.971,0,0,1-2.29.628,4,4,0,0,0,1.753-2.206,7.983,7.983,0,0,1-2.532.967A3.99,3.99,0,0,0,9.57,5.717,11.318,11.318,0,0,1,1.353,1.552,3.991,3.991,0,0,0,2.587,6.874a3.971,3.971,0,0,1-1.806-.5c0,.017,0,.033,0,.05a3.989,3.989,0,0,0,3.2,3.909,4,4,0,0,1-1.8.068A3.991,3.991,0,0,0,5.9,13.172,8,8,0,0,1,.951,14.878,8.11,8.11,0,0,1,0,14.823a11.284,11.284,0,0,0,6.111,1.791A11.265,11.265,0,0,0,17.454,5.271q0-.259-.012-.516a8.1,8.1,0,0,0,1.989-2.064" transform="translate(0 0)"/>
  </g>
</svg>
