<svg xmlns="http://www.w3.org/2000/svg" xmlns:xlink="http://www.w3.org/1999/xlink" width="741.345" height="549.118" viewBox="0 0 741.345 549.118">
  <defs>
    <style>
      .cls-1 {
        fill: url(#linear-gradient);
      }

      .cls-2 {
        fill: #020230;
        opacity: 0.6;
      }

      .cls-3 {
        fill: url(#radial-gradient);
      }

      .cls-4 {
        fill: url(#radial-gradient-2);
      }

      .cls-5 {
        fill: url(#radial-gradient-3);
      }

      .cls-24, .cls-6 {
        fill: #fff;
      }

      .cls-11, .cls-7 {
        opacity: 0.4;
      }

      .cls-11, .cls-12, .cls-8 {
        fill: #06033e;
      }

      .cls-9 {
        fill: url(#radial-gradient-4);
      }

      .cls-10 {
        fill: url(#linear-gradient-5);
      }

      .cls-12, .cls-14, .cls-24 {
        opacity: 0.5;
      }

      .cls-13 {
        fill: url(#radial-gradient-5);
      }

      .cls-15 {
        fill: #e8975b;
      }

      .cls-16 {
        fill: #f8359e;
      }

      .cls-17 {
        fill: url(#radial-gradient-6);
      }

      .cls-18 {
        fill: url(#linear-gradient-7);
      }

      .cls-19 {
        fill: url(#linear-gradient-8);
      }

      .cls-20 {
        fill: url(#linear-gradient-10);
      }

      .cls-21 {
        fill: url(#radial-gradient-7);
      }

      .cls-22 {
        fill: #0c0a78;
      }

      .cls-23 {
        fill: url(#linear-gradient-11);
      }
    </style>
    <linearGradient id="linear-gradient" y1="0.5" x2="1" y2="0.5" gradientUnits="objectBoundingBox">
      <stop offset="0" stop-color="#e39a65"/>
      <stop offset="1" stop-color="#e95f8d"/>
    </linearGradient>
    <radialGradient id="radial-gradient" cx="410.04" cy="78.335" r="349.487" gradientTransform="translate(-11.648 -1.049) scale(1.08 1.08)" gradientUnits="userSpaceOnUse">
      <stop offset="0" stop-color="#e39a65"/>
      <stop offset="0.474" stop-color="#a92ffb"/>
      <stop offset="0.595" stop-color="#881bfa"/>
      <stop offset="0.742" stop-color="#6507fa"/>
      <stop offset="0.802" stop-color="#0d0c6f"/>
    </radialGradient>
    <radialGradient id="radial-gradient-2" cx="-108.85" cy="-38.112" r="719.856" gradientTransform="translate(-115.11 -95.225) scale(0.573 0.573)" gradientUnits="userSpaceOnUse">
      <stop offset="0" stop-color="#e39a65"/>
      <stop offset="0.474" stop-color="#a92ffb"/>
      <stop offset="0.568" stop-color="#881bfa"/>
      <stop offset="0.683" stop-color="#6507fa"/>
      <stop offset="0.738" stop-color="#0d0c6f"/>
    </radialGradient>
    <radialGradient id="radial-gradient-3" cx="-68.353" cy="-106.707" r="641.196" gradientTransform="translate(-96.931 -121.33) scale(0.577 0.577)" gradientUnits="userSpaceOnUse">
      <stop offset="0" stop-color="#e39a65"/>
      <stop offset="0.474" stop-color="#a92ffb"/>
      <stop offset="0.588" stop-color="#881bfa"/>
      <stop offset="0.726" stop-color="#6507fa"/>
      <stop offset="1" stop-color="#3919bb"/>
    </radialGradient>
    <radialGradient id="radial-gradient-4" cx="306.518" cy="155.834" r="350.701" gradientTransform="translate(-3.385 -6.881) scale(1.077 1.077)" xlink:href="#radial-gradient-3"/>
    <linearGradient id="linear-gradient-5" y1="0.5" x2="1" y2="0.5" gradientUnits="objectBoundingBox">
      <stop offset="0" stop-color="#3919bb"/>
      <stop offset="1" stop-color="#6507fa"/>
    </linearGradient>
    <radialGradient id="radial-gradient-5" cx="157.564" cy="61.625" r="546.208" gradientTransform="translate(10.251 3.057) scale(1.077 1.077)" xlink:href="#radial-gradient-3"/>
    <radialGradient id="radial-gradient-6" cx="367.739" cy="307.459" r="206.216" gradientTransform="translate(-75.567 -79.025) scale(1.356 1.395)" gradientUnits="userSpaceOnUse">
      <stop offset="0" stop-color="#e39a65"/>
      <stop offset="0.153" stop-color="#a92ffb"/>
      <stop offset="0.409" stop-color="#3919bb"/>
      <stop offset="0.931" stop-color="#3919bb"/>
    </radialGradient>
    <linearGradient id="linear-gradient-7" y1="0.5" x2="1" y2="0.5" gradientUnits="objectBoundingBox">
      <stop offset="0" stop-color="#e39a65"/>
      <stop offset="0.252" stop-color="#a92ffb"/>
      <stop offset="0.556" stop-color="#3919bb"/>
    </linearGradient>
    <linearGradient id="linear-gradient-8" y1="0.5" x2="1" y2="0.5" gradientUnits="objectBoundingBox">
      <stop offset="0" stop-color="#4f1fec"/>
      <stop offset="1" stop-color="#a92ffb"/>
    </linearGradient>
    <linearGradient id="linear-gradient-10" y1="0.5" x2="1.261" y2="0.5" gradientUnits="objectBoundingBox">
      <stop offset="0" stop-color="#131060"/>
      <stop offset="0.186" stop-color="#140f62"/>
      <stop offset="0.282" stop-color="#190f6a"/>
      <stop offset="0.358" stop-color="#220f77"/>
      <stop offset="0.424" stop-color="#2e0f8a"/>
      <stop offset="0.482" stop-color="#3d0ea3"/>
      <stop offset="0.536" stop-color="#510ec1"/>
      <stop offset="0.585" stop-color="#670de5"/>
      <stop offset="0.607" stop-color="#740df8"/>
      <stop offset="0.618" stop-color="#7a14ef"/>
      <stop offset="0.683" stop-color="#9b3bc2"/>
      <stop offset="0.748" stop-color="#b75c9d"/>
      <stop offset="0.812" stop-color="#cc7680"/>
      <stop offset="0.876" stop-color="#db886b"/>
      <stop offset="0.939" stop-color="#e4935f"/>
      <stop offset="1" stop-color="#e8975b"/>
    </linearGradient>
    <radialGradient id="radial-gradient-7" cx="-107.841" cy="-41.345" r="307.847" gradientTransform="translate(-105.71 -48.763) scale(0.594 0.611)" gradientUnits="userSpaceOnUse">
      <stop offset="0" stop-color="#e39a65"/>
      <stop offset="0.252" stop-color="#a92ffb"/>
      <stop offset="0.736" stop-color="#3919bb"/>
    </radialGradient>
    <linearGradient id="linear-gradient-11" x1="-0.089" y1="0.5" x2="1.209" y2="0.5" xlink:href="#linear-gradient-10"/>
  </defs>
  <g id="Group_177" data-name="Group 177" transform="translate(-741 -518)">
    <g id="Group_176" data-name="Group 176" transform="translate(741 518)">
      <path id="Path_893" data-name="Path 893" class="cls-1" d="M508.627,329.751a11.775,11.775,0,0,1-5.887-1.574L482.9,316.721a3.673,3.673,0,0,1,0-6.366L502.74,298.9a11.8,11.8,0,0,1,11.771,0l19.844,11.456a3.673,3.673,0,0,1,0,6.366l-19.842,11.456A11.764,11.764,0,0,1,508.627,329.751Zm0-29.278a8.629,8.629,0,0,0-4.315,1.15l-19.842,11.458a.528.528,0,0,0,0,.916l19.844,11.456h0a8.65,8.65,0,0,0,8.624,0L532.784,314a.53.53,0,0,0,0-.916l-19.845-11.458A8.626,8.626,0,0,0,508.627,300.473Z" transform="translate(205.15 141.882)"/>
      <path id="Path_894" data-name="Path 894" class="cls-1" d="M482.714,299.922a19.1,19.1,0,0,1-9.561-2.555L439,277.651a5.187,5.187,0,0,1,0-8.988l34.147-19.715a19.165,19.165,0,0,1,19.123,0l34.15,19.715a5.191,5.191,0,0,1,0,8.989l-34.15,19.715A19.126,19.126,0,0,1,482.714,299.922Zm-7.989-5.278a16.039,16.039,0,0,0,15.979,0l34.149-19.715a2.046,2.046,0,0,0,0-3.542L490.7,251.672a16.03,16.03,0,0,0-15.979,0l-34.149,19.715a2.045,2.045,0,0,0,0,3.54Z" transform="translate(174.31 106.701)"/>
      <path id="Path_895" data-name="Path 895" class="cls-1" d="M121.493,318.275a19.107,19.107,0,0,1-9.563-2.553L77.78,296a5.19,5.19,0,0,1,0-8.989L111.929,267.3a19.161,19.161,0,0,1,19.123,0L165.2,287.017a5.187,5.187,0,0,1,0,8.988l-34.147,19.717A19.113,19.113,0,0,1,121.493,318.275Zm0-50.383a15.987,15.987,0,0,0-7.99,2.132L79.353,289.741a2.044,2.044,0,0,0,0,3.54L113.5,313h0a16.03,16.03,0,0,0,15.979,0l34.149-19.715a2.043,2.043,0,0,0,0-3.539l-34.15-19.719A15.986,15.986,0,0,0,121.491,267.892Z" transform="translate(-75.185 119.377)"/>
      <g id="Group_169" data-name="Group 169" transform="translate(107.822 46.861)">
        <path id="Path_896" data-name="Path 896" class="cls-2" d="M407.859,445.918,163.672,304.936c-3.559-2.056-3.113-5.645,1-8.017L321.39,206.435c4.11-2.372,10.327-2.631,13.886-.575L579.464,346.842c3.559,2.054,3.113,5.644-1,8.017L421.744,445.342C417.636,447.714,411.417,447.972,407.859,445.918Z" transform="translate(-123.55 30.887)"/>
        <path id="Path_897" data-name="Path 897" class="cls-1" d="M428.862,480.131a15.612,15.612,0,0,1-7.684-1.8h0l-278.691-160.9c-2.276-1.314-3.53-3.209-3.53-5.336,0-2.443,1.7-4.827,4.666-6.54L333.6,194.251c5.211-3.009,12.866-3.3,17.431-.661l278.689,160.9c2.277,1.312,3.53,3.207,3.53,5.334,0,2.443-1.7,4.825-4.668,6.538l-189.971,111.3A19.934,19.934,0,0,1,428.862,480.131Zm-85.48-285.183a16.958,16.958,0,0,0-8.2,2.024L145.21,308.273c-1.948,1.124-3.1,2.55-3.1,3.818a3.326,3.326,0,0,0,1.954,2.612L422.752,475.6h0c3.557,2.058,10.1,1.757,14.271-.656L627,363.647c1.948-1.124,3.1-2.55,3.1-3.819a3.325,3.325,0,0,0-1.954-2.61l-278.689-160.9A12.46,12.46,0,0,0,343.383,194.948Z" transform="translate(-138.959 22.126)"/>
        <path id="Path_898" data-name="Path 898" class="cls-3" d="M572.836,206.635,329.609,66.208a6.3,6.3,0,0,0-4.964-.713h0l0,0-.022.007-4.5,1.569,1.586.375a7.883,7.883,0,0,0-1.486,2.781l-55,178.591c-1.363,4.428.634,9.808,4.458,12.017L512.9,401.263a7.132,7.132,0,0,0,1.789.732l-.6,1.312,4.3-1.511-.01,0a6.88,6.88,0,0,0,3.914-4.55l55-178.59C578.657,214.223,576.66,208.843,572.836,206.635Z" transform="translate(-52.051 -65.264)"/>
        <path id="Path_899" data-name="Path 899" class="cls-4" d="M575.659,325.127l.086.1L335.5,186.526c-3.534-2.041-9.708-1.785-13.788.571L166.49,276.714l-5.175-1.976L162.769,282l.007,0a4.346,4.346,0,0,0,2.33,2.906L407.571,424.89c3.534,2.041,9.706,1.784,13.788-.571l155.617-89.845a6.219,6.219,0,0,0,3.3-3.843l.01.01,1.484-7.067Z" transform="translate(-123.518 17.54)"/>
        <path id="Path_900" data-name="Path 900" class="cls-5" d="M407.859,421.807,163.672,280.825c-3.559-2.054-3.113-5.644,1-8.016L321.39,182.325c4.11-2.372,10.327-2.631,13.886-.575L579.464,322.732c3.559,2.054,3.113,5.643-1,8.016L421.744,421.232C417.636,423.6,411.417,423.862,407.859,421.807Z" transform="translate(-123.55 14.234)"/>
        <path id="Path_901" data-name="Path 901" class="cls-6" d="M578.45,289.617,421.728,380.1c-4.108,2.374-10.327,2.631-13.886.577L163.655,239.694a4.556,4.556,0,0,1-2.22-2.533c-.472,1.637.218,3.278,2.22,4.433L407.842,382.578c3.559,2.054,9.777,1.8,13.886-.577L578.45,291.519c2.71-1.566,3.791-3.652,3.217-5.485A6.464,6.464,0,0,1,578.45,289.617Z" transform="translate(-123.533 53.465)"/>
        <g id="Group_165" data-name="Group 165" class="cls-7" transform="translate(147.905 227.425)">
          <path id="Path_902" data-name="Path 902" class="cls-8" d="M235.131,231.249l-8.244-4.759c-.661-.382-.578-1.05.186-1.491l9.73-5.618a2.872,2.872,0,0,1,2.583-.107l8.244,4.759c.663.382.578,1.05-.186,1.491l-9.73,5.618A2.872,2.872,0,0,1,235.131,231.249Z" transform="translate(-226.441 -186.493)"/>
          <path id="Path_903" data-name="Path 903" class="cls-8" d="M242.663,235.6l-8.246-4.761c-.661-.382-.578-1.048.186-1.49l9.732-5.618a2.869,2.869,0,0,1,2.582-.108l8.244,4.761c.663.382.58,1.048-.184,1.49l-9.732,5.618A2.864,2.864,0,0,1,242.663,235.6Z" transform="translate(-221.24 -183.49)"/>
          <path id="Path_904" data-name="Path 904" class="cls-8" d="M250.193,239.944l-8.244-4.759c-.663-.382-.58-1.05.184-1.491l9.732-5.618a2.869,2.869,0,0,1,2.582-.106l8.246,4.759c.661.382.578,1.05-.186,1.491l-9.732,5.618A2.869,2.869,0,0,1,250.193,239.944Z" transform="translate(-216.039 -180.488)"/>
          <path id="Path_905" data-name="Path 905" class="cls-8" d="M260.608,235.986l-8.246-4.759c-.661-.382-.578-1.05.186-1.491l8.169-4.717a2.869,2.869,0,0,1,2.582-.107l8.244,4.759c.663.382.58,1.05-.184,1.491l-8.169,4.717A2.869,2.869,0,0,1,260.608,235.986Z" transform="translate(-208.846 -182.599)"/>
          <path id="Path_906" data-name="Path 906" class="cls-8" d="M268.138,240.332l-8.244-4.759c-.663-.382-.58-1.05.184-1.491l8.169-4.715a2.869,2.869,0,0,1,2.582-.106l8.244,4.759c.663.382.58,1.05-.184,1.491l-8.169,4.715A2.864,2.864,0,0,1,268.138,240.332Z" transform="translate(-203.645 -179.596)"/>
          <path id="Path_907" data-name="Path 907" class="cls-8" d="M275.667,244.68l-8.244-4.759c-.663-.382-.578-1.05.186-1.491l8.168-4.715a2.873,2.873,0,0,1,2.583-.108l8.244,4.761c.661.38.578,1.048-.186,1.49l-8.168,4.717A2.872,2.872,0,0,1,275.667,244.68Z" transform="translate(-198.443 -176.593)"/>
          <path id="Path_908" data-name="Path 908" class="cls-8" d="M283.2,249.029l-8.244-4.759c-.661-.382-.578-1.05.186-1.491l8.168-4.717a2.872,2.872,0,0,1,2.583-.107l8.244,4.759c.663.382.578,1.05-.186,1.491l-8.168,4.715A2.873,2.873,0,0,1,283.2,249.029Z" transform="translate(-193.242 -173.59)"/>
          <path id="Path_909" data-name="Path 909" class="cls-8" d="M290.729,253.375l-8.244-4.759c-.663-.382-.58-1.05.184-1.491l8.169-4.715a2.863,2.863,0,0,1,2.582-.107l8.244,4.759c.663.382.58,1.05-.184,1.491l-8.169,4.715A2.869,2.869,0,0,1,290.729,253.375Z" transform="translate(-188.041 -170.588)"/>
          <path id="Path_910" data-name="Path 910" class="cls-8" d="M298.259,257.724l-8.244-4.759c-.663-.382-.58-1.05.184-1.491l8.169-4.717a2.869,2.869,0,0,1,2.582-.106l8.244,4.759c.663.382.58,1.05-.184,1.491l-8.169,4.717A2.869,2.869,0,0,1,298.259,257.724Z" transform="translate(-182.84 -167.585)"/>
          <path id="Path_911" data-name="Path 911" class="cls-8" d="M305.788,262.072l-8.244-4.761c-.661-.382-.578-1.05.186-1.491L305.9,251.1a2.872,2.872,0,0,1,2.583-.107l8.244,4.759c.661.382.578,1.05-.186,1.491l-8.168,4.715A2.873,2.873,0,0,1,305.788,262.072Z" transform="translate(-177.639 -164.582)"/>
          <path id="Path_912" data-name="Path 912" class="cls-8" d="M313.318,266.418l-8.244-4.759c-.661-.382-.578-1.05.186-1.491l8.168-4.715a2.873,2.873,0,0,1,2.583-.108l8.244,4.761c.661.382.578,1.048-.186,1.49l-8.168,4.717A2.872,2.872,0,0,1,313.318,266.418Z" transform="translate(-172.438 -161.579)"/>
          <path id="Path_913" data-name="Path 913" class="cls-8" d="M320.85,270.766l-8.246-4.759c-.661-.384-.578-1.05.186-1.491l8.169-4.717a2.869,2.869,0,0,1,2.582-.106l8.244,4.759c.663.382.58,1.05-.184,1.491l-8.169,4.717A2.869,2.869,0,0,1,320.85,270.766Z" transform="translate(-167.237 -158.576)"/>
          <path id="Path_914" data-name="Path 914" class="cls-8" d="M328.38,275.113l-8.244-4.759c-.663-.382-.58-1.05.184-1.491l8.169-4.715a2.87,2.87,0,0,1,2.582-.108l8.246,4.761c.661.382.578,1.05-.186,1.491l-8.169,4.715A2.869,2.869,0,0,1,328.38,275.113Z" transform="translate(-162.036 -155.573)"/>
          <path id="Path_915" data-name="Path 915" class="cls-8" d="M271.7,233.928l-8.244-4.761c-.663-.382-.58-1.05.184-1.491l8.169-4.715a2.869,2.869,0,0,1,2.582-.107l8.246,4.759c.661.382.578,1.05-.186,1.491l-8.169,4.715A2.869,2.869,0,0,1,271.7,233.928Z" transform="translate(-201.182 -184.021)"/>
          <path id="Path_916" data-name="Path 916" class="cls-8" d="M264.059,229.514l-8.244-4.759c-.661-.382-.578-1.05.186-1.491l8.168-4.715a2.867,2.867,0,0,1,2.583-.108L275,223.2c.661.384.578,1.05-.186,1.491l-8.168,4.717A2.872,2.872,0,0,1,264.059,229.514Z" transform="translate(-206.461 -187.069)"/>
          <path id="Path_917" data-name="Path 917" class="cls-8" d="M260.29,227.338l-17.756-10.251c-.661-.382-.578-1.05.186-1.491l8.168-4.715a2.873,2.873,0,0,1,2.583-.108l17.756,10.252c.661.382.578,1.05-.186,1.491l-8.168,4.715A2.872,2.872,0,0,1,260.29,227.338Z" transform="translate(-215.634 -192.365)"/>
          <path id="Path_918" data-name="Path 918" class="cls-8" d="M264.274,221.175l-14.41-8.32c-.661-.382-.578-1.05.186-1.491l8.169-4.715a2.869,2.869,0,0,1,2.582-.108l14.41,8.32c.661.382.578,1.05-.186,1.491l-8.168,4.715A2.873,2.873,0,0,1,264.274,221.175Z" transform="translate(-210.571 -195.288)"/>
          <path id="Path_919" data-name="Path 919" class="cls-8" d="M279.232,238.274l-8.244-4.759c-.661-.382-.578-1.05.186-1.491l8.168-4.715a2.873,2.873,0,0,1,2.583-.108l8.244,4.761c.661.382.578,1.05-.186,1.49l-8.168,4.717A2.872,2.872,0,0,1,279.232,238.274Z" transform="translate(-195.981 -181.018)"/>
          <path id="Path_920" data-name="Path 920" class="cls-8" d="M286.764,242.623l-8.246-4.759c-.661-.384-.578-1.05.186-1.491l8.168-4.717a2.872,2.872,0,0,1,2.583-.107l8.244,4.759c.663.382.58,1.05-.186,1.491l-8.168,4.717A2.869,2.869,0,0,1,286.764,242.623Z" transform="translate(-190.78 -178.015)"/>
          <path id="Path_921" data-name="Path 921" class="cls-8" d="M294.294,246.969l-8.244-4.759c-.663-.382-.58-1.05.184-1.491L294.4,236a2.875,2.875,0,0,1,2.582-.108l8.244,4.761c.663.382.58,1.05-.184,1.491l-8.169,4.715A2.863,2.863,0,0,1,294.294,246.969Z" transform="translate(-185.579 -175.012)"/>
          <path id="Path_922" data-name="Path 922" class="cls-8" d="M301.824,251.318l-8.244-4.759c-.663-.382-.58-1.05.186-1.491l8.168-4.717a2.869,2.869,0,0,1,2.582-.107L312.761,245c.661.382.578,1.05-.186,1.491l-8.168,4.717A2.873,2.873,0,0,1,301.824,251.318Z" transform="translate(-180.378 -172.009)"/>
          <path id="Path_923" data-name="Path 923" class="cls-8" d="M309.353,255.666l-8.244-4.761c-.661-.382-.578-1.048.186-1.491l8.168-4.715a2.872,2.872,0,0,1,2.583-.107l8.244,4.759c.661.382.578,1.05-.186,1.491l-8.168,4.715A2.873,2.873,0,0,1,309.353,255.666Z" transform="translate(-175.176 -169.006)"/>
          <path id="Path_924" data-name="Path 924" class="cls-8" d="M316.883,260.012l-8.244-4.759c-.661-.382-.578-1.05.186-1.491l8.168-4.715a2.873,2.873,0,0,1,2.583-.108l8.244,4.761c.663.382.58,1.05-.186,1.491l-8.168,4.715A2.872,2.872,0,0,1,316.883,260.012Z" transform="translate(-169.975 -166.003)"/>
          <path id="Path_925" data-name="Path 925" class="cls-8" d="M324.415,264.361l-8.244-4.759c-.663-.382-.58-1.05.184-1.491l8.169-4.717a2.869,2.869,0,0,1,2.582-.107l8.244,4.759c.663.382.58,1.05-.184,1.491L327,264.252A2.864,2.864,0,0,1,324.415,264.361Z" transform="translate(-164.774 -163.001)"/>
          <path id="Path_926" data-name="Path 926" class="cls-8" d="M331.945,268.707l-8.244-4.759c-.663-.382-.58-1.05.186-1.491l8.168-4.715a2.864,2.864,0,0,1,2.582-.107l8.246,4.759c.661.382.578,1.05-.186,1.491l-8.169,4.715A2.863,2.863,0,0,1,331.945,268.707Z" transform="translate(-159.573 -159.998)"/>
          <path id="Path_927" data-name="Path 927" class="cls-8" d="M339.474,273.055,331.23,268.3c-.661-.382-.578-1.05.186-1.491l8.168-4.715a2.872,2.872,0,0,1,2.583-.108l8.244,4.759c.661.382.578,1.05-.186,1.491l-8.168,4.717A2.872,2.872,0,0,1,339.474,273.055Z" transform="translate(-154.372 -156.995)"/>
          <path id="Path_928" data-name="Path 928" class="cls-8" d="M356.842,283.082,338.854,272.7c-.661-.384-.578-1.05.186-1.491l8.168-4.717a2.872,2.872,0,0,1,2.583-.106l17.987,10.386c.663.38.578,1.048-.186,1.49l-8.168,4.717A2.872,2.872,0,0,1,356.842,283.082Z" transform="translate(-149.106 -153.955)"/>
          <path id="Path_929" data-name="Path 929" class="cls-8" d="M370.357,273.957l-15.182-8.766c-.663-.382-.58-1.05.186-1.491l8.168-4.715a2.872,2.872,0,0,1,2.583-.106l15.182,8.765c.661.382.578,1.05-.186,1.491l-8.169,4.717A2.869,2.869,0,0,1,370.357,273.957Z" transform="translate(-137.834 -159.139)"/>
          <path id="Path_930" data-name="Path 930" class="cls-8" d="M292.419,237.425l-8.244-4.761c-.661-.382-.578-1.048.186-1.491l8.168-4.715a2.872,2.872,0,0,1,2.583-.107l8.244,4.759c.661.382.578,1.05-.186,1.491L295,237.316A2.873,2.873,0,0,1,292.419,237.425Z" transform="translate(-186.873 -181.605)"/>
          <path id="Path_931" data-name="Path 931" class="cls-8" d="M284.7,232.969l-8.244-4.759c-.663-.384-.58-1.05.184-1.491L284.813,222a2.869,2.869,0,0,1,2.582-.107l8.244,4.759c.663.382.58,1.05-.184,1.491l-8.169,4.715A2.864,2.864,0,0,1,284.7,232.969Z" transform="translate(-192.203 -184.683)"/>
          <path id="Path_932" data-name="Path 932" class="cls-8" d="M276.984,228.512l-8.244-4.759c-.661-.382-.578-1.05.186-1.491l8.168-4.717a2.878,2.878,0,0,1,2.583-.107l8.244,4.759c.661.382.578,1.05-.186,1.491l-8.168,4.717A2.873,2.873,0,0,1,276.984,228.512Z" transform="translate(-197.533 -187.76)"/>
          <path id="Path_933" data-name="Path 933" class="cls-8" d="M269.268,224.056l-8.246-4.759c-.661-.382-.578-1.05.186-1.491l8.169-4.715a2.869,2.869,0,0,1,2.582-.108l8.244,4.761c.663.382.58,1.05-.184,1.491l-8.169,4.715A2.869,2.869,0,0,1,269.268,224.056Z" transform="translate(-202.864 -190.838)"/>
          <path id="Path_934" data-name="Path 934" class="cls-8" d="M299.951,241.771l-8.245-4.759c-.661-.382-.578-1.05.186-1.491l8.169-4.715a2.869,2.869,0,0,1,2.582-.108l8.244,4.761c.663.382.58,1.048-.186,1.49l-8.168,4.717A2.869,2.869,0,0,1,299.951,241.771Z" transform="translate(-181.672 -178.602)"/>
          <path id="Path_935" data-name="Path 935" class="cls-8" d="M307.481,246.12l-8.244-4.759c-.663-.382-.58-1.05.184-1.491l8.169-4.717a2.869,2.869,0,0,1,2.582-.107l8.244,4.759c.663.382.58,1.05-.184,1.491l-8.169,4.715A2.864,2.864,0,0,1,307.481,246.12Z" transform="translate(-176.471 -175.6)"/>
          <path id="Path_936" data-name="Path 936" class="cls-8" d="M315.01,250.466l-8.244-4.759c-.663-.382-.578-1.05.186-1.491l8.168-4.715a2.867,2.867,0,0,1,2.583-.107l8.244,4.759c.661.382.578,1.05-.186,1.491l-8.168,4.715A2.872,2.872,0,0,1,315.01,250.466Z" transform="translate(-171.269 -172.597)"/>
          <path id="Path_937" data-name="Path 937" class="cls-8" d="M322.54,254.815l-8.244-4.759c-.661-.382-.578-1.05.186-1.491l8.168-4.717a2.872,2.872,0,0,1,2.583-.107l8.244,4.759c.661.382.578,1.05-.186,1.491l-8.168,4.717A2.872,2.872,0,0,1,322.54,254.815Z" transform="translate(-166.068 -169.594)"/>
          <path id="Path_938" data-name="Path 938" class="cls-8" d="M330.072,259.163l-8.246-4.761c-.661-.382-.578-1.05.186-1.489l8.169-4.717a2.869,2.869,0,0,1,2.582-.107l8.244,4.759c.663.382.58,1.05-.184,1.491l-8.169,4.715A2.869,2.869,0,0,1,330.072,259.163Z" transform="translate(-160.867 -166.591)"/>
          <path id="Path_939" data-name="Path 939" class="cls-8" d="M337.6,263.509l-8.244-4.759c-.663-.382-.58-1.05.184-1.491l8.169-4.715a2.869,2.869,0,0,1,2.582-.108l8.244,4.761c.663.382.58,1.048-.184,1.49l-8.169,4.717A2.869,2.869,0,0,1,337.6,263.509Z" transform="translate(-155.666 -163.588)"/>
          <path id="Path_940" data-name="Path 940" class="cls-8" d="M345.131,267.857l-8.244-4.759c-.663-.384-.578-1.05.186-1.491l8.168-4.717a2.872,2.872,0,0,1,2.583-.106l8.244,4.759c.661.382.578,1.05-.186,1.491l-8.168,4.715A2.867,2.867,0,0,1,345.131,267.857Z" transform="translate(-150.465 -160.585)"/>
          <path id="Path_941" data-name="Path 941" class="cls-8" d="M352.661,272.2l-8.244-4.759c-.661-.382-.578-1.05.186-1.491l8.168-4.715a2.878,2.878,0,0,1,2.583-.108l8.244,4.761c.663.382.578,1.05-.186,1.491l-8.168,4.715A2.873,2.873,0,0,1,352.661,272.2Z" transform="translate(-145.264 -157.582)"/>
          <path id="Path_942" data-name="Path 942" class="cls-8" d="M360.193,276.553l-8.244-4.759c-.663-.382-.58-1.05.184-1.491l8.169-4.717a2.869,2.869,0,0,1,2.582-.107l8.244,4.759c.663.382.58,1.05-.184,1.491l-8.169,4.717A2.869,2.869,0,0,1,360.193,276.553Z" transform="translate(-140.063 -154.58)"/>
          <path id="Path_943" data-name="Path 943" class="cls-8" d="M288.454,226.67l-8.244-4.759c-.661-.382-.578-1.05.186-1.491l8.168-4.715a2.867,2.867,0,0,1,2.583-.108l8.244,4.759c.661.384.578,1.05-.186,1.491l-8.168,4.717A2.872,2.872,0,0,1,288.454,226.67Z" transform="translate(-189.611 -189.033)"/>
          <path id="Path_944" data-name="Path 944" class="cls-8" d="M280.961,222.344l-8.244-4.759c-.661-.382-.578-1.05.186-1.491l8.168-4.715a2.867,2.867,0,0,1,2.583-.108l8.244,4.759c.663.384.578,1.05-.186,1.491l-8.168,4.717A2.872,2.872,0,0,1,280.961,222.344Z" transform="translate(-194.787 -192.021)"/>
          <path id="Path_945" data-name="Path 945" class="cls-8" d="M273.47,218.018l-8.246-4.759c-.661-.382-.578-1.05.186-1.491l8.169-4.715a2.864,2.864,0,0,1,2.582-.108l8.244,4.759c.663.384.58,1.05-.184,1.491l-8.169,4.717A2.869,2.869,0,0,1,273.47,218.018Z" transform="translate(-199.962 -195.009)"/>
          <path id="Path_946" data-name="Path 946" class="cls-8" d="M265.977,213.692l-8.244-4.759c-.663-.382-.58-1.05.184-1.491l8.169-4.715a2.864,2.864,0,0,1,2.582-.108l8.244,4.759c.663.384.58,1.05-.184,1.491l-8.169,4.717A2.869,2.869,0,0,1,265.977,213.692Z" transform="translate(-205.137 -197.997)"/>
          <path id="Path_947" data-name="Path 947" class="cls-8" d="M273.682,207.955l-8.244-4.759c-.663-.384-.58-1.05.184-1.491l2.7-1.559a2.867,2.867,0,0,1,2.583-.108l8.244,4.759c.661.382.578,1.05-.186,1.491l-2.7,1.559A2.869,2.869,0,0,1,273.682,207.955Z" transform="translate(-199.815 -199.779)"/>
          <path id="Path_948" data-name="Path 948" class="cls-8" d="M283.46,213.6l-8.244-4.759c-.663-.382-.58-1.05.184-1.491l2.7-1.559a2.867,2.867,0,0,1,2.583-.107l8.244,4.759c.663.382.578,1.05-.186,1.491l-2.7,1.559A2.869,2.869,0,0,1,283.46,213.6Z" transform="translate(-193.062 -195.88)"/>
          <path id="Path_949" data-name="Path 949" class="cls-8" d="M290.92,217.908l-8.244-4.759c-.661-.382-.578-1.05.186-1.491l2.7-1.559a2.867,2.867,0,0,1,2.583-.107l8.244,4.759c.661.382.578,1.05-.186,1.491l-2.7,1.559A2.872,2.872,0,0,1,290.92,217.908Z" transform="translate(-187.908 -192.905)"/>
          <path id="Path_950" data-name="Path 950" class="cls-8" d="M298.383,222.216l-8.244-4.759c-.663-.382-.58-1.05.184-1.491l2.7-1.559a2.869,2.869,0,0,1,2.582-.108l8.244,4.761c.663.382.58,1.05-.184,1.491l-2.7,1.559A2.869,2.869,0,0,1,298.383,222.216Z" transform="translate(-182.755 -189.929)"/>
          <path id="Path_951" data-name="Path 951" class="cls-8" d="M305.843,226.524l-8.244-4.759c-.661-.382-.578-1.05.186-1.491l2.7-1.559a2.872,2.872,0,0,1,2.583-.108l8.244,4.761c.661.382.578,1.05-.186,1.491l-2.7,1.559A2.872,2.872,0,0,1,305.843,226.524Z" transform="translate(-177.601 -186.954)"/>
          <path id="Path_952" data-name="Path 952" class="cls-8" d="M347.5,250.575l-8.244-4.761c-.661-.382-.578-1.05.186-1.491l2.7-1.559a2.869,2.869,0,0,1,2.582-.107l8.245,4.759c.661.382.578,1.05-.186,1.491l-2.7,1.559A2.873,2.873,0,0,1,347.5,250.575Z" transform="translate(-148.828 -170.342)"/>
          <path id="Path_953" data-name="Path 953" class="cls-8" d="M354.963,254.881l-8.244-4.759c-.663-.382-.58-1.05.184-1.491l2.7-1.559a2.869,2.869,0,0,1,2.582-.107l8.244,4.759c.663.382.58,1.05-.184,1.491l-2.7,1.559A2.864,2.864,0,0,1,354.963,254.881Z" transform="translate(-143.675 -167.367)"/>
          <path id="Path_954" data-name="Path 954" class="cls-8" d="M362.423,259.191l-8.244-4.761c-.661-.382-.578-1.05.186-1.491l2.7-1.559a2.872,2.872,0,0,1,2.583-.107l8.244,4.759c.661.382.578,1.05-.186,1.491l-2.7,1.559A2.878,2.878,0,0,1,362.423,259.191Z" transform="translate(-138.521 -164.391)"/>
          <path id="Path_955" data-name="Path 955" class="cls-8" d="M369.886,263.5l-8.244-4.759c-.663-.382-.58-1.05.186-1.491l2.7-1.559a2.869,2.869,0,0,1,2.582-.107l8.244,4.759c.663.382.58,1.05-.184,1.491l-2.7,1.559A2.867,2.867,0,0,1,369.886,263.5Z" transform="translate(-133.368 -161.415)"/>
          <path id="Path_956" data-name="Path 956" class="cls-8" d="M295.984,231.019l-8.244-4.761c-.661-.382-.578-1.048.186-1.491l8.168-4.715a2.872,2.872,0,0,1,2.583-.106l8.244,4.759c.663.382.578,1.05-.186,1.491l-8.168,4.715A2.873,2.873,0,0,1,295.984,231.019Z" transform="translate(-184.41 -186.03)"/>
          <path id="Path_957" data-name="Path 957" class="cls-8" d="M303.516,235.365l-8.244-4.759c-.663-.382-.58-1.05.184-1.491l8.169-4.715a2.869,2.869,0,0,1,2.582-.108l8.244,4.761c.663.382.58,1.05-.184,1.49l-8.169,4.717A2.869,2.869,0,0,1,303.516,235.365Z" transform="translate(-179.209 -183.027)"/>
          <path id="Path_958" data-name="Path 958" class="cls-8" d="M311.046,239.714l-8.244-4.759c-.663-.382-.58-1.05.184-1.491l8.169-4.717a2.869,2.869,0,0,1,2.582-.107l8.245,4.759c.661.382.578,1.05-.186,1.491l-8.169,4.717A2.869,2.869,0,0,1,311.046,239.714Z" transform="translate(-174.008 -180.024)"/>
          <path id="Path_959" data-name="Path 959" class="cls-8" d="M318.575,244.06l-8.244-4.759c-.661-.382-.578-1.05.186-1.491l8.168-4.715a2.872,2.872,0,0,1,2.583-.107l8.244,4.759c.661.382.578,1.05-.186,1.491l-8.168,4.715A2.867,2.867,0,0,1,318.575,244.06Z" transform="translate(-168.807 -177.021)"/>
          <path id="Path_960" data-name="Path 960" class="cls-8" d="M326.105,248.408l-8.244-4.759c-.661-.382-.578-1.05.186-1.491l8.168-4.717a2.878,2.878,0,0,1,2.583-.107l8.244,4.759c.663.382.578,1.05-.186,1.491l-8.168,4.717A2.872,2.872,0,0,1,326.105,248.408Z" transform="translate(-163.606 -174.018)"/>
          <path id="Path_961" data-name="Path 961" class="cls-8" d="M333.637,252.757,325.393,248c-.663-.382-.58-1.048.184-1.49l8.169-4.717a2.869,2.869,0,0,1,2.582-.107l8.244,4.759c.663.382.58,1.05-.184,1.491l-8.169,4.715A2.869,2.869,0,0,1,333.637,252.757Z" transform="translate(-158.405 -171.015)"/>
          <path id="Path_962" data-name="Path 962" class="cls-8" d="M341.167,257.1l-8.244-4.759c-.663-.382-.58-1.05.184-1.491l8.169-4.715a2.869,2.869,0,0,1,2.582-.108l8.246,4.761c.661.382.578,1.048-.186,1.491L343.748,257A2.869,2.869,0,0,1,341.167,257.1Z" transform="translate(-153.204 -168.013)"/>
          <path id="Path_963" data-name="Path 963" class="cls-8" d="M348.7,261.452l-8.244-4.759c-.661-.382-.578-1.05.186-1.491l8.168-4.717a2.872,2.872,0,0,1,2.583-.107l8.244,4.759c.661.382.578,1.05-.186,1.491l-8.168,4.717A2.872,2.872,0,0,1,348.7,261.452Z" transform="translate(-148.002 -165.01)"/>
          <path id="Path_964" data-name="Path 964" class="cls-8" d="M356.228,265.8l-8.246-4.759c-.661-.382-.578-1.05.186-1.491l8.169-4.715a2.869,2.869,0,0,1,2.582-.107l8.244,4.759c.663.382.58,1.05-.186,1.491l-8.168,4.715A2.869,2.869,0,0,1,356.228,265.8Z" transform="translate(-142.801 -162.007)"/>
          <path id="Path_965" data-name="Path 965" class="cls-8" d="M259.485,235.336,235.2,221.319c-.663-.382-.58-1.05.186-1.491l8.168-4.715a2.867,2.867,0,0,1,2.583-.107l24.278,14.018c.663.382.58,1.05-.184,1.491l-8.169,4.715A2.869,2.869,0,0,1,259.485,235.336Z" transform="translate(-220.697 -189.441)"/>
          <path id="Path_966" data-name="Path 966" class="cls-8" d="M352,288.749l-24.28-14.018c-.663-.384-.578-1.05.186-1.491l8.168-4.717a2.872,2.872,0,0,1,2.583-.106l24.278,14.017c.663.382.58,1.05-.184,1.491l-8.169,4.715A2.869,2.869,0,0,1,352,288.749Z" transform="translate(-156.8 -152.55)"/>
          <path id="Path_967" data-name="Path 967" class="cls-8" d="M315.329,277.552l-8.244-4.761c-.661-.382-.578-1.05.186-1.491l9.73-5.618a2.872,2.872,0,0,1,2.583-.106l8.244,4.759c.661.382.578,1.05-.186,1.491l-9.73,5.618A2.873,2.873,0,0,1,315.329,277.552Z" transform="translate(-171.049 -154.513)"/>
          <path id="Path_968" data-name="Path 968" class="cls-8" d="M262.663,247.144l-13.184-7.612c-.663-.382-.578-1.05.186-1.491l9.73-5.618a2.867,2.867,0,0,1,2.583-.107l13.184,7.612c.663.382.578,1.05-.186,1.491l-9.73,5.618A2.872,2.872,0,0,1,262.663,247.144Z" transform="translate(-210.838 -177.485)"/>
          <path id="Path_969" data-name="Path 969" class="cls-8" d="M310.093,274.527l-13.186-7.612c-.661-.382-.578-1.05.186-1.491l9.732-5.618a2.869,2.869,0,0,1,2.582-.107l13.184,7.612c.663.382.58,1.05-.184,1.491l-9.732,5.618A2.864,2.864,0,0,1,310.093,274.527Z" transform="translate(-178.079 -158.571)"/>
          <path id="Path_970" data-name="Path 970" class="cls-8" d="M273.528,253.417,260.344,245.8c-.663-.382-.58-1.05.184-1.49l9.732-5.618a2.864,2.864,0,0,1,2.582-.108l13.186,7.613c.661.382.578,1.048-.186,1.491l-9.732,5.616A2.869,2.869,0,0,1,273.528,253.417Z" transform="translate(-203.334 -173.152)"/>
          <path id="Path_971" data-name="Path 971" class="cls-8" d="M272.712,238.514l57.323,33.1a.784.784,0,0,1,0,1.486l-9.923,5.73a2.847,2.847,0,0,1-2.577,0l-57.323-33.1Z" transform="translate(-203.115 -173.026)"/>
          <path id="Path_972" data-name="Path 972" class="cls-8" d="M335.528,280.522l9.184,5.3c.543.313.473.861-.152,1.222l-3.982,2.3a2.354,2.354,0,0,1-2.117.088l-9.182-5.3c-.543-.313-.475-.861.152-1.222l3.98-2.3A2.354,2.354,0,0,1,335.528,280.522Z" transform="translate(-155.665 -144.157)"/>
          <path id="Path_973" data-name="Path 973" class="cls-8" d="M327.935,276.138l9.184,5.3c.543.314.475.861-.152,1.222l-3.98,2.3a2.359,2.359,0,0,1-2.117.088l-9.184-5.3c-.543-.314-.475-.861.152-1.222l3.98-2.3A2.359,2.359,0,0,1,327.935,276.138Z" transform="translate(-160.909 -147.184)"/>
          <path id="Path_974" data-name="Path 974" class="cls-8" d="M320.4,271.791l9.184,5.3c.543.313.473.861-.152,1.222l-3.982,2.3a2.354,2.354,0,0,1-2.117.088l-9.182-5.3c-.543-.313-.475-.861.152-1.222l3.98-2.3A2.354,2.354,0,0,1,320.4,271.791Z" transform="translate(-166.11 -150.187)"/>
          <path id="Path_975" data-name="Path 975" class="cls-8" d="M332.094,273.739l9.182,5.3c.543.313.475.861-.152,1.221l-3.98,2.3a2.354,2.354,0,0,1-2.117.088l-9.184-5.3c-.543-.313-.473-.861.152-1.222l3.982-2.3A2.348,2.348,0,0,1,332.094,273.739Z" transform="translate(-158.037 -148.843)"/>
        </g>
        <g id="Group_166" data-name="Group 166" class="cls-7" transform="translate(147.905 227.425)">
          <path id="Path_976" data-name="Path 976" class="cls-8" d="M235.131,231.249l-8.244-4.759c-.661-.382-.578-1.05.186-1.491l9.73-5.618a2.872,2.872,0,0,1,2.583-.107l8.244,4.759c.663.382.578,1.05-.186,1.491l-9.73,5.618A2.872,2.872,0,0,1,235.131,231.249Z" transform="translate(-226.441 -186.493)"/>
          <path id="Path_977" data-name="Path 977" class="cls-8" d="M242.663,235.6l-8.246-4.761c-.661-.382-.578-1.048.186-1.49l9.732-5.618a2.869,2.869,0,0,1,2.582-.108l8.244,4.761c.663.382.58,1.048-.184,1.49l-9.732,5.618A2.864,2.864,0,0,1,242.663,235.6Z" transform="translate(-221.24 -183.49)"/>
          <path id="Path_978" data-name="Path 978" class="cls-8" d="M250.193,239.944l-8.244-4.759c-.663-.382-.58-1.05.184-1.491l9.732-5.618a2.869,2.869,0,0,1,2.582-.106l8.246,4.759c.661.382.578,1.05-.186,1.491l-9.732,5.618A2.869,2.869,0,0,1,250.193,239.944Z" transform="translate(-216.039 -180.488)"/>
          <path id="Path_979" data-name="Path 979" class="cls-8" d="M260.608,235.986l-8.246-4.759c-.661-.382-.578-1.05.186-1.491l8.169-4.717a2.869,2.869,0,0,1,2.582-.107l8.244,4.759c.663.382.58,1.05-.184,1.491l-8.169,4.717A2.869,2.869,0,0,1,260.608,235.986Z" transform="translate(-208.846 -182.599)"/>
          <path id="Path_980" data-name="Path 980" class="cls-8" d="M268.138,240.332l-8.244-4.759c-.663-.382-.58-1.05.184-1.491l8.169-4.715a2.869,2.869,0,0,1,2.582-.106l8.244,4.759c.663.382.58,1.05-.184,1.491l-8.169,4.715A2.864,2.864,0,0,1,268.138,240.332Z" transform="translate(-203.645 -179.596)"/>
          <path id="Path_981" data-name="Path 981" class="cls-8" d="M275.667,244.68l-8.244-4.759c-.663-.382-.578-1.05.186-1.491l8.168-4.715a2.873,2.873,0,0,1,2.583-.108l8.244,4.761c.661.38.578,1.048-.186,1.49l-8.168,4.717A2.872,2.872,0,0,1,275.667,244.68Z" transform="translate(-198.443 -176.593)"/>
          <path id="Path_982" data-name="Path 982" class="cls-8" d="M283.2,249.029l-8.244-4.759c-.661-.382-.578-1.05.186-1.491l8.168-4.717a2.872,2.872,0,0,1,2.583-.107l8.244,4.759c.663.382.578,1.05-.186,1.491l-8.168,4.715A2.873,2.873,0,0,1,283.2,249.029Z" transform="translate(-193.242 -173.59)"/>
          <path id="Path_983" data-name="Path 983" class="cls-8" d="M290.729,253.375l-8.244-4.759c-.663-.382-.58-1.05.184-1.491l8.169-4.715a2.863,2.863,0,0,1,2.582-.107l8.244,4.759c.663.382.58,1.05-.184,1.491l-8.169,4.715A2.869,2.869,0,0,1,290.729,253.375Z" transform="translate(-188.041 -170.588)"/>
          <path id="Path_984" data-name="Path 984" class="cls-8" d="M298.259,257.724l-8.244-4.759c-.663-.382-.58-1.05.184-1.491l8.169-4.717a2.869,2.869,0,0,1,2.582-.106l8.244,4.759c.663.382.58,1.05-.184,1.491l-8.169,4.717A2.869,2.869,0,0,1,298.259,257.724Z" transform="translate(-182.84 -167.585)"/>
          <path id="Path_985" data-name="Path 985" class="cls-8" d="M305.788,262.072l-8.244-4.761c-.661-.382-.578-1.05.186-1.491L305.9,251.1a2.872,2.872,0,0,1,2.583-.107l8.244,4.759c.661.382.578,1.05-.186,1.491l-8.168,4.715A2.873,2.873,0,0,1,305.788,262.072Z" transform="translate(-177.639 -164.582)"/>
          <path id="Path_986" data-name="Path 986" class="cls-8" d="M313.318,266.418l-8.244-4.759c-.661-.382-.578-1.05.186-1.491l8.168-4.715a2.873,2.873,0,0,1,2.583-.108l8.244,4.761c.661.382.578,1.048-.186,1.49l-8.168,4.717A2.872,2.872,0,0,1,313.318,266.418Z" transform="translate(-172.438 -161.579)"/>
          <path id="Path_987" data-name="Path 987" class="cls-8" d="M320.85,270.766l-8.246-4.759c-.661-.384-.578-1.05.186-1.491l8.169-4.717a2.869,2.869,0,0,1,2.582-.106l8.244,4.759c.663.382.58,1.05-.184,1.491l-8.169,4.717A2.869,2.869,0,0,1,320.85,270.766Z" transform="translate(-167.237 -158.576)"/>
          <path id="Path_988" data-name="Path 988" class="cls-8" d="M328.38,275.113l-8.244-4.759c-.663-.382-.58-1.05.184-1.491l8.169-4.715a2.87,2.87,0,0,1,2.582-.108l8.246,4.761c.661.382.578,1.05-.186,1.491l-8.169,4.715A2.869,2.869,0,0,1,328.38,275.113Z" transform="translate(-162.036 -155.573)"/>
          <path id="Path_989" data-name="Path 989" class="cls-8" d="M271.7,233.928l-8.244-4.761c-.663-.382-.58-1.05.184-1.491l8.169-4.715a2.869,2.869,0,0,1,2.582-.107l8.246,4.759c.661.382.578,1.05-.186,1.491l-8.169,4.715A2.869,2.869,0,0,1,271.7,233.928Z" transform="translate(-201.182 -184.021)"/>
          <path id="Path_990" data-name="Path 990" class="cls-8" d="M264.059,229.514l-8.244-4.759c-.661-.382-.578-1.05.186-1.491l8.168-4.715a2.867,2.867,0,0,1,2.583-.108L275,223.2c.661.384.578,1.05-.186,1.491l-8.168,4.717A2.872,2.872,0,0,1,264.059,229.514Z" transform="translate(-206.461 -187.069)"/>
          <path id="Path_991" data-name="Path 991" class="cls-8" d="M260.29,227.338l-17.756-10.251c-.661-.382-.578-1.05.186-1.491l8.168-4.715a2.873,2.873,0,0,1,2.583-.108l17.756,10.252c.661.382.578,1.05-.186,1.491l-8.168,4.715A2.872,2.872,0,0,1,260.29,227.338Z" transform="translate(-215.634 -192.365)"/>
          <path id="Path_992" data-name="Path 992" class="cls-8" d="M264.274,221.175l-14.41-8.32c-.661-.382-.578-1.05.186-1.491l8.169-4.715a2.869,2.869,0,0,1,2.582-.108l14.41,8.32c.661.382.578,1.05-.186,1.491l-8.168,4.715A2.873,2.873,0,0,1,264.274,221.175Z" transform="translate(-210.571 -195.288)"/>
          <path id="Path_993" data-name="Path 993" class="cls-8" d="M279.232,238.274l-8.244-4.759c-.661-.382-.578-1.05.186-1.491l8.168-4.715a2.873,2.873,0,0,1,2.583-.108l8.244,4.761c.661.382.578,1.05-.186,1.49l-8.168,4.717A2.872,2.872,0,0,1,279.232,238.274Z" transform="translate(-195.981 -181.018)"/>
          <path id="Path_994" data-name="Path 994" class="cls-8" d="M286.764,242.623l-8.246-4.759c-.661-.384-.578-1.05.186-1.491l8.168-4.717a2.872,2.872,0,0,1,2.583-.107l8.244,4.759c.663.382.58,1.05-.186,1.491l-8.168,4.717A2.869,2.869,0,0,1,286.764,242.623Z" transform="translate(-190.78 -178.015)"/>
          <path id="Path_995" data-name="Path 995" class="cls-8" d="M294.294,246.969l-8.244-4.759c-.663-.382-.58-1.05.184-1.491L294.4,236a2.875,2.875,0,0,1,2.582-.108l8.244,4.761c.663.382.58,1.05-.184,1.491l-8.169,4.715A2.863,2.863,0,0,1,294.294,246.969Z" transform="translate(-185.579 -175.012)"/>
          <path id="Path_996" data-name="Path 996" class="cls-8" d="M301.824,251.318l-8.244-4.759c-.663-.382-.58-1.05.186-1.491l8.168-4.717a2.869,2.869,0,0,1,2.582-.107L312.761,245c.661.382.578,1.05-.186,1.491l-8.168,4.717A2.873,2.873,0,0,1,301.824,251.318Z" transform="translate(-180.378 -172.009)"/>
          <path id="Path_997" data-name="Path 997" class="cls-8" d="M309.353,255.666l-8.244-4.761c-.661-.382-.578-1.048.186-1.491l8.168-4.715a2.872,2.872,0,0,1,2.583-.107l8.244,4.759c.661.382.578,1.05-.186,1.491l-8.168,4.715A2.873,2.873,0,0,1,309.353,255.666Z" transform="translate(-175.176 -169.006)"/>
          <path id="Path_998" data-name="Path 998" class="cls-8" d="M316.883,260.012l-8.244-4.759c-.661-.382-.578-1.05.186-1.491l8.168-4.715a2.873,2.873,0,0,1,2.583-.108l8.244,4.761c.663.382.58,1.05-.186,1.491l-8.168,4.715A2.872,2.872,0,0,1,316.883,260.012Z" transform="translate(-169.975 -166.003)"/>
          <path id="Path_999" data-name="Path 999" class="cls-8" d="M324.415,264.361l-8.244-4.759c-.663-.382-.58-1.05.184-1.491l8.169-4.717a2.869,2.869,0,0,1,2.582-.107l8.244,4.759c.663.382.58,1.05-.184,1.491L327,264.252A2.864,2.864,0,0,1,324.415,264.361Z" transform="translate(-164.774 -163.001)"/>
          <path id="Path_1000" data-name="Path 1000" class="cls-8" d="M331.945,268.707l-8.244-4.759c-.663-.382-.58-1.05.186-1.491l8.168-4.715a2.864,2.864,0,0,1,2.582-.107l8.246,4.759c.661.382.578,1.05-.186,1.491l-8.169,4.715A2.863,2.863,0,0,1,331.945,268.707Z" transform="translate(-159.573 -159.998)"/>
          <path id="Path_1001" data-name="Path 1001" class="cls-8" d="M339.474,273.055,331.23,268.3c-.661-.382-.578-1.05.186-1.491l8.168-4.715a2.872,2.872,0,0,1,2.583-.108l8.244,4.759c.661.382.578,1.05-.186,1.491l-8.168,4.717A2.872,2.872,0,0,1,339.474,273.055Z" transform="translate(-154.372 -156.995)"/>
          <path id="Path_1002" data-name="Path 1002" class="cls-8" d="M356.842,283.082,338.854,272.7c-.661-.384-.578-1.05.186-1.491l8.168-4.717a2.872,2.872,0,0,1,2.583-.106l17.987,10.386c.663.38.578,1.048-.186,1.49l-8.168,4.717A2.872,2.872,0,0,1,356.842,283.082Z" transform="translate(-149.106 -153.955)"/>
          <path id="Path_1003" data-name="Path 1003" class="cls-8" d="M370.357,273.957l-15.182-8.766c-.663-.382-.58-1.05.186-1.491l8.168-4.715a2.872,2.872,0,0,1,2.583-.106l15.182,8.765c.661.382.578,1.05-.186,1.491l-8.169,4.717A2.869,2.869,0,0,1,370.357,273.957Z" transform="translate(-137.834 -159.139)"/>
          <path id="Path_1004" data-name="Path 1004" class="cls-8" d="M292.419,237.425l-8.244-4.761c-.661-.382-.578-1.048.186-1.491l8.168-4.715a2.872,2.872,0,0,1,2.583-.107l8.244,4.759c.661.382.578,1.05-.186,1.491L295,237.316A2.873,2.873,0,0,1,292.419,237.425Z" transform="translate(-186.873 -181.605)"/>
          <path id="Path_1005" data-name="Path 1005" class="cls-8" d="M284.7,232.969l-8.244-4.759c-.663-.384-.58-1.05.184-1.491L284.813,222a2.869,2.869,0,0,1,2.582-.107l8.244,4.759c.663.382.58,1.05-.184,1.491l-8.169,4.715A2.864,2.864,0,0,1,284.7,232.969Z" transform="translate(-192.203 -184.683)"/>
          <path id="Path_1006" data-name="Path 1006" class="cls-8" d="M276.984,228.512l-8.244-4.759c-.661-.382-.578-1.05.186-1.491l8.168-4.717a2.878,2.878,0,0,1,2.583-.107l8.244,4.759c.661.382.578,1.05-.186,1.491l-8.168,4.717A2.873,2.873,0,0,1,276.984,228.512Z" transform="translate(-197.533 -187.76)"/>
          <path id="Path_1007" data-name="Path 1007" class="cls-8" d="M269.268,224.056l-8.246-4.759c-.661-.382-.578-1.05.186-1.491l8.169-4.715a2.869,2.869,0,0,1,2.582-.108l8.244,4.761c.663.382.58,1.05-.184,1.491l-8.169,4.715A2.869,2.869,0,0,1,269.268,224.056Z" transform="translate(-202.864 -190.838)"/>
          <path id="Path_1008" data-name="Path 1008" class="cls-8" d="M299.951,241.771l-8.245-4.759c-.661-.382-.578-1.05.186-1.491l8.169-4.715a2.869,2.869,0,0,1,2.582-.108l8.244,4.761c.663.382.58,1.048-.186,1.49l-8.168,4.717A2.869,2.869,0,0,1,299.951,241.771Z" transform="translate(-181.672 -178.602)"/>
          <path id="Path_1009" data-name="Path 1009" class="cls-8" d="M307.481,246.12l-8.244-4.759c-.663-.382-.58-1.05.184-1.491l8.169-4.717a2.869,2.869,0,0,1,2.582-.107l8.244,4.759c.663.382.58,1.05-.184,1.491l-8.169,4.715A2.864,2.864,0,0,1,307.481,246.12Z" transform="translate(-176.471 -175.6)"/>
          <path id="Path_1010" data-name="Path 1010" class="cls-8" d="M315.01,250.466l-8.244-4.759c-.663-.382-.578-1.05.186-1.491l8.168-4.715a2.867,2.867,0,0,1,2.583-.107l8.244,4.759c.661.382.578,1.05-.186,1.491l-8.168,4.715A2.872,2.872,0,0,1,315.01,250.466Z" transform="translate(-171.269 -172.597)"/>
          <path id="Path_1011" data-name="Path 1011" class="cls-8" d="M322.54,254.815l-8.244-4.759c-.661-.382-.578-1.05.186-1.491l8.168-4.717a2.872,2.872,0,0,1,2.583-.107l8.244,4.759c.661.382.578,1.05-.186,1.491l-8.168,4.717A2.872,2.872,0,0,1,322.54,254.815Z" transform="translate(-166.068 -169.594)"/>
          <path id="Path_1012" data-name="Path 1012" class="cls-8" d="M330.072,259.163l-8.246-4.761c-.661-.382-.578-1.05.186-1.489l8.169-4.717a2.869,2.869,0,0,1,2.582-.107l8.244,4.759c.663.382.58,1.05-.184,1.491l-8.169,4.715A2.869,2.869,0,0,1,330.072,259.163Z" transform="translate(-160.867 -166.591)"/>
          <path id="Path_1013" data-name="Path 1013" class="cls-8" d="M337.6,263.509l-8.244-4.759c-.663-.382-.58-1.05.184-1.491l8.169-4.715a2.869,2.869,0,0,1,2.582-.108l8.244,4.761c.663.382.58,1.048-.184,1.49l-8.169,4.717A2.869,2.869,0,0,1,337.6,263.509Z" transform="translate(-155.666 -163.588)"/>
          <path id="Path_1014" data-name="Path 1014" class="cls-8" d="M345.131,267.857l-8.244-4.759c-.663-.384-.578-1.05.186-1.491l8.168-4.717a2.872,2.872,0,0,1,2.583-.106l8.244,4.759c.661.382.578,1.05-.186,1.491l-8.168,4.715A2.867,2.867,0,0,1,345.131,267.857Z" transform="translate(-150.465 -160.585)"/>
          <path id="Path_1015" data-name="Path 1015" class="cls-8" d="M352.661,272.2l-8.244-4.759c-.661-.382-.578-1.05.186-1.491l8.168-4.715a2.878,2.878,0,0,1,2.583-.108l8.244,4.761c.663.382.578,1.05-.186,1.491l-8.168,4.715A2.873,2.873,0,0,1,352.661,272.2Z" transform="translate(-145.264 -157.582)"/>
          <path id="Path_1016" data-name="Path 1016" class="cls-8" d="M360.193,276.553l-8.244-4.759c-.663-.382-.58-1.05.184-1.491l8.169-4.717a2.869,2.869,0,0,1,2.582-.107l8.244,4.759c.663.382.58,1.05-.184,1.491l-8.169,4.717A2.869,2.869,0,0,1,360.193,276.553Z" transform="translate(-140.063 -154.58)"/>
          <path id="Path_1017" data-name="Path 1017" class="cls-8" d="M288.454,226.67l-8.244-4.759c-.661-.382-.578-1.05.186-1.491l8.168-4.715a2.867,2.867,0,0,1,2.583-.108l8.244,4.759c.661.384.578,1.05-.186,1.491l-8.168,4.717A2.872,2.872,0,0,1,288.454,226.67Z" transform="translate(-189.611 -189.033)"/>
          <path id="Path_1018" data-name="Path 1018" class="cls-8" d="M280.961,222.344l-8.244-4.759c-.661-.382-.578-1.05.186-1.491l8.168-4.715a2.867,2.867,0,0,1,2.583-.108l8.244,4.759c.663.384.578,1.05-.186,1.491l-8.168,4.717A2.872,2.872,0,0,1,280.961,222.344Z" transform="translate(-194.787 -192.021)"/>
          <path id="Path_1019" data-name="Path 1019" class="cls-8" d="M273.47,218.018l-8.246-4.759c-.661-.382-.578-1.05.186-1.491l8.169-4.715a2.864,2.864,0,0,1,2.582-.108l8.244,4.759c.663.384.58,1.05-.184,1.491l-8.169,4.717A2.869,2.869,0,0,1,273.47,218.018Z" transform="translate(-199.962 -195.009)"/>
          <path id="Path_1020" data-name="Path 1020" class="cls-8" d="M265.977,213.692l-8.244-4.759c-.663-.382-.58-1.05.184-1.491l8.169-4.715a2.864,2.864,0,0,1,2.582-.108l8.244,4.759c.663.384.58,1.05-.184,1.491l-8.169,4.717A2.869,2.869,0,0,1,265.977,213.692Z" transform="translate(-205.137 -197.997)"/>
          <path id="Path_1021" data-name="Path 1021" class="cls-8" d="M273.682,207.955l-8.244-4.759c-.663-.384-.58-1.05.184-1.491l2.7-1.559a2.867,2.867,0,0,1,2.583-.108l8.244,4.759c.661.382.578,1.05-.186,1.491l-2.7,1.559A2.869,2.869,0,0,1,273.682,207.955Z" transform="translate(-199.815 -199.779)"/>
          <path id="Path_1022" data-name="Path 1022" class="cls-8" d="M283.46,213.6l-8.244-4.759c-.663-.382-.58-1.05.184-1.491l2.7-1.559a2.867,2.867,0,0,1,2.583-.107l8.244,4.759c.663.382.578,1.05-.186,1.491l-2.7,1.559A2.869,2.869,0,0,1,283.46,213.6Z" transform="translate(-193.062 -195.88)"/>
          <path id="Path_1023" data-name="Path 1023" class="cls-8" d="M290.92,217.908l-8.244-4.759c-.661-.382-.578-1.05.186-1.491l2.7-1.559a2.867,2.867,0,0,1,2.583-.107l8.244,4.759c.661.382.578,1.05-.186,1.491l-2.7,1.559A2.872,2.872,0,0,1,290.92,217.908Z" transform="translate(-187.908 -192.905)"/>
          <path id="Path_1024" data-name="Path 1024" class="cls-8" d="M298.383,222.216l-8.244-4.759c-.663-.382-.58-1.05.184-1.491l2.7-1.559a2.869,2.869,0,0,1,2.582-.108l8.244,4.761c.663.382.58,1.05-.184,1.491l-2.7,1.559A2.869,2.869,0,0,1,298.383,222.216Z" transform="translate(-182.755 -189.929)"/>
          <path id="Path_1025" data-name="Path 1025" class="cls-8" d="M305.843,226.524l-8.244-4.759c-.661-.382-.578-1.05.186-1.491l2.7-1.559a2.872,2.872,0,0,1,2.583-.108l8.244,4.761c.661.382.578,1.05-.186,1.491l-2.7,1.559A2.872,2.872,0,0,1,305.843,226.524Z" transform="translate(-177.601 -186.954)"/>
          <path id="Path_1026" data-name="Path 1026" class="cls-8" d="M347.5,250.575l-8.244-4.761c-.661-.382-.578-1.05.186-1.491l2.7-1.559a2.869,2.869,0,0,1,2.582-.107l8.245,4.759c.661.382.578,1.05-.186,1.491l-2.7,1.559A2.873,2.873,0,0,1,347.5,250.575Z" transform="translate(-148.828 -170.342)"/>
          <path id="Path_1027" data-name="Path 1027" class="cls-8" d="M354.963,254.881l-8.244-4.759c-.663-.382-.58-1.05.184-1.491l2.7-1.559a2.869,2.869,0,0,1,2.582-.107l8.244,4.759c.663.382.58,1.05-.184,1.491l-2.7,1.559A2.864,2.864,0,0,1,354.963,254.881Z" transform="translate(-143.675 -167.367)"/>
          <path id="Path_1028" data-name="Path 1028" class="cls-8" d="M362.423,259.191l-8.244-4.761c-.661-.382-.578-1.05.186-1.491l2.7-1.559a2.872,2.872,0,0,1,2.583-.107l8.244,4.759c.661.382.578,1.05-.186,1.491l-2.7,1.559A2.878,2.878,0,0,1,362.423,259.191Z" transform="translate(-138.521 -164.391)"/>
          <path id="Path_1029" data-name="Path 1029" class="cls-8" d="M369.886,263.5l-8.244-4.759c-.663-.382-.58-1.05.186-1.491l2.7-1.559a2.869,2.869,0,0,1,2.582-.107l8.244,4.759c.663.382.58,1.05-.184,1.491l-2.7,1.559A2.867,2.867,0,0,1,369.886,263.5Z" transform="translate(-133.368 -161.415)"/>
          <path id="Path_1030" data-name="Path 1030" class="cls-8" d="M295.984,231.019l-8.244-4.761c-.661-.382-.578-1.048.186-1.491l8.168-4.715a2.872,2.872,0,0,1,2.583-.106l8.244,4.759c.663.382.578,1.05-.186,1.491l-8.168,4.715A2.873,2.873,0,0,1,295.984,231.019Z" transform="translate(-184.41 -186.03)"/>
          <path id="Path_1031" data-name="Path 1031" class="cls-8" d="M303.516,235.365l-8.244-4.759c-.663-.382-.58-1.05.184-1.491l8.169-4.715a2.869,2.869,0,0,1,2.582-.108l8.244,4.761c.663.382.58,1.05-.184,1.49l-8.169,4.717A2.869,2.869,0,0,1,303.516,235.365Z" transform="translate(-179.209 -183.027)"/>
          <path id="Path_1032" data-name="Path 1032" class="cls-8" d="M311.046,239.714l-8.244-4.759c-.663-.382-.58-1.05.184-1.491l8.169-4.717a2.869,2.869,0,0,1,2.582-.107l8.245,4.759c.661.382.578,1.05-.186,1.491l-8.169,4.717A2.869,2.869,0,0,1,311.046,239.714Z" transform="translate(-174.008 -180.024)"/>
          <path id="Path_1033" data-name="Path 1033" class="cls-8" d="M318.575,244.06l-8.244-4.759c-.661-.382-.578-1.05.186-1.491l8.168-4.715a2.872,2.872,0,0,1,2.583-.107l8.244,4.759c.661.382.578,1.05-.186,1.491l-8.168,4.715A2.867,2.867,0,0,1,318.575,244.06Z" transform="translate(-168.807 -177.021)"/>
          <path id="Path_1034" data-name="Path 1034" class="cls-8" d="M326.105,248.408l-8.244-4.759c-.661-.382-.578-1.05.186-1.491l8.168-4.717a2.878,2.878,0,0,1,2.583-.107l8.244,4.759c.663.382.578,1.05-.186,1.491l-8.168,4.717A2.872,2.872,0,0,1,326.105,248.408Z" transform="translate(-163.606 -174.018)"/>
          <path id="Path_1035" data-name="Path 1035" class="cls-8" d="M333.637,252.757,325.393,248c-.663-.382-.58-1.048.184-1.49l8.169-4.717a2.869,2.869,0,0,1,2.582-.107l8.244,4.759c.663.382.58,1.05-.184,1.491l-8.169,4.715A2.869,2.869,0,0,1,333.637,252.757Z" transform="translate(-158.405 -171.015)"/>
          <path id="Path_1036" data-name="Path 1036" class="cls-8" d="M341.167,257.1l-8.244-4.759c-.663-.382-.58-1.05.184-1.491l8.169-4.715a2.869,2.869,0,0,1,2.582-.108l8.246,4.761c.661.382.578,1.048-.186,1.491L343.748,257A2.869,2.869,0,0,1,341.167,257.1Z" transform="translate(-153.204 -168.013)"/>
          <path id="Path_1037" data-name="Path 1037" class="cls-8" d="M348.7,261.452l-8.244-4.759c-.661-.382-.578-1.05.186-1.491l8.168-4.717a2.872,2.872,0,0,1,2.583-.107l8.244,4.759c.661.382.578,1.05-.186,1.491l-8.168,4.717A2.872,2.872,0,0,1,348.7,261.452Z" transform="translate(-148.002 -165.01)"/>
          <path id="Path_1038" data-name="Path 1038" class="cls-8" d="M356.228,265.8l-8.246-4.759c-.661-.382-.578-1.05.186-1.491l8.169-4.715a2.869,2.869,0,0,1,2.582-.107l8.244,4.759c.663.382.58,1.05-.186,1.491l-8.168,4.715A2.869,2.869,0,0,1,356.228,265.8Z" transform="translate(-142.801 -162.007)"/>
          <path id="Path_1039" data-name="Path 1039" class="cls-8" d="M259.485,235.336,235.2,221.319c-.663-.382-.58-1.05.186-1.491l8.168-4.715a2.867,2.867,0,0,1,2.583-.107l24.278,14.018c.663.382.58,1.05-.184,1.491l-8.169,4.715A2.869,2.869,0,0,1,259.485,235.336Z" transform="translate(-220.697 -189.441)"/>
          <path id="Path_1040" data-name="Path 1040" class="cls-8" d="M352,288.749l-24.28-14.018c-.663-.384-.578-1.05.186-1.491l8.168-4.717a2.872,2.872,0,0,1,2.583-.106l24.278,14.017c.663.382.58,1.05-.184,1.491l-8.169,4.715A2.869,2.869,0,0,1,352,288.749Z" transform="translate(-156.8 -152.55)"/>
          <path id="Path_1041" data-name="Path 1041" class="cls-8" d="M315.329,277.552l-8.244-4.761c-.661-.382-.578-1.05.186-1.491l9.73-5.618a2.872,2.872,0,0,1,2.583-.106l8.244,4.759c.661.382.578,1.05-.186,1.491l-9.73,5.618A2.873,2.873,0,0,1,315.329,277.552Z" transform="translate(-171.049 -154.513)"/>
          <path id="Path_1042" data-name="Path 1042" class="cls-8" d="M262.663,247.144l-13.184-7.612c-.663-.382-.578-1.05.186-1.491l9.73-5.618a2.867,2.867,0,0,1,2.583-.107l13.184,7.612c.663.382.578,1.05-.186,1.491l-9.73,5.618A2.872,2.872,0,0,1,262.663,247.144Z" transform="translate(-210.838 -177.485)"/>
          <path id="Path_1043" data-name="Path 1043" class="cls-8" d="M310.093,274.527l-13.186-7.612c-.661-.382-.578-1.05.186-1.491l9.732-5.618a2.869,2.869,0,0,1,2.582-.107l13.184,7.612c.663.382.58,1.05-.184,1.491l-9.732,5.618A2.864,2.864,0,0,1,310.093,274.527Z" transform="translate(-178.079 -158.571)"/>
          <path id="Path_1044" data-name="Path 1044" class="cls-8" d="M273.528,253.417,260.344,245.8c-.663-.382-.58-1.05.184-1.49l9.732-5.618a2.864,2.864,0,0,1,2.582-.108l13.186,7.613c.661.382.578,1.048-.186,1.491l-9.732,5.616A2.869,2.869,0,0,1,273.528,253.417Z" transform="translate(-203.334 -173.152)"/>
          <path id="Path_1045" data-name="Path 1045" class="cls-8" d="M272.712,238.514l57.323,33.1a.784.784,0,0,1,0,1.486l-9.923,5.73a2.847,2.847,0,0,1-2.577,0l-57.323-33.1Z" transform="translate(-203.115 -173.026)"/>
          <path id="Path_1046" data-name="Path 1046" class="cls-8" d="M335.528,280.522l9.184,5.3c.543.313.473.861-.152,1.222l-3.982,2.3a2.354,2.354,0,0,1-2.117.088l-9.182-5.3c-.543-.313-.475-.861.152-1.222l3.98-2.3A2.354,2.354,0,0,1,335.528,280.522Z" transform="translate(-155.665 -144.157)"/>
          <path id="Path_1047" data-name="Path 1047" class="cls-8" d="M327.935,276.138l9.184,5.3c.543.314.475.861-.152,1.222l-3.98,2.3a2.359,2.359,0,0,1-2.117.088l-9.184-5.3c-.543-.314-.475-.861.152-1.222l3.98-2.3A2.359,2.359,0,0,1,327.935,276.138Z" transform="translate(-160.909 -147.184)"/>
          <path id="Path_1048" data-name="Path 1048" class="cls-8" d="M320.4,271.791l9.184,5.3c.543.313.473.861-.152,1.222l-3.982,2.3a2.354,2.354,0,0,1-2.117.088l-9.182-5.3c-.543-.313-.475-.861.152-1.222l3.98-2.3A2.354,2.354,0,0,1,320.4,271.791Z" transform="translate(-166.11 -150.187)"/>
          <path id="Path_1049" data-name="Path 1049" class="cls-8" d="M332.094,273.739l9.182,5.3c.543.313.475.861-.152,1.221l-3.98,2.3a2.354,2.354,0,0,1-2.117.088l-9.184-5.3c-.543-.313-.473-.861.152-1.222l3.982-2.3A2.348,2.348,0,0,1,332.094,273.739Z" transform="translate(-158.037 -148.843)"/>
        </g>
        <path id="Path_1050" data-name="Path 1050" class="cls-9" d="M510.447,402.12,267.22,261.695c-3.824-2.208-5.819-7.59-4.458-12.017L317.767,71.086c1.363-4.428,5.567-6.229,9.392-4.02L570.385,207.493c3.824,2.208,5.821,7.588,4.458,12.017L519.839,398.1C518.478,402.53,514.271,404.328,510.447,402.12Z" transform="translate(-53.745 -64.671)"/>
        <path id="Path_1051" data-name="Path 1051" class="cls-10" d="M506.019,393.234,270.1,256.915c-3.66-2.113-5.571-7.262-4.267-11.5L318.423,74.684c1.3-4.239,5.327-5.961,8.988-3.848L563.327,207.155c3.66,2.113,5.571,7.263,4.267,11.5l-52.587,170.73C513.7,393.625,509.679,395.348,506.019,393.234Z" transform="translate(-51.609 -62.039)"/>
        <path id="Path_1052" data-name="Path 1052" class="cls-11" d="M506.019,393.234,270.1,256.915c-3.66-2.113-5.571-7.262-4.267-11.5L318.423,74.684c1.3-4.239,5.327-5.961,8.988-3.848L563.327,207.155c3.66,2.113,5.571,7.263,4.267,11.5l-52.587,170.73C513.7,393.625,509.679,395.348,506.019,393.234Z" transform="translate(-51.609 -62.039)"/>
        <path id="Path_1053" data-name="Path 1053" class="cls-11" d="M506.019,393.234,270.1,256.915c-3.66-2.113-5.571-7.262-4.267-11.5L318.423,74.684c1.3-4.239,5.327-5.961,8.988-3.848L563.327,207.155c3.66,2.113,5.571,7.263,4.267,11.5l-52.587,170.73C513.7,393.625,509.679,395.348,506.019,393.234Z" transform="translate(-51.609 -62.039)"/>
        <path id="Path_1054" data-name="Path 1054" class="cls-12" d="M466.787,320.425l-159.7-92.2a7.074,7.074,0,0,1-2.927-7.892l36.115-117.262c.894-2.908,3.655-4.09,6.168-2.641l159.7,92.205a7.073,7.073,0,0,1,2.927,7.891L472.954,317.784C472.058,320.692,469.3,321.876,466.787,320.425Z" transform="translate(-25.052 -41.404)"/>
        <g id="Group_167" data-name="Group 167" transform="translate(257.245 61.234)">
          <path id="Path_1055" data-name="Path 1055" class="cls-13" d="M454.023,322.1l-159.7-92.2A7.076,7.076,0,0,1,291.394,222L327.51,104.742c.894-2.908,3.655-4.09,6.166-2.641l159.7,92.205a7.074,7.074,0,0,1,2.928,7.89L460.191,319.458C459.3,322.366,456.536,323.55,454.023,322.1Z" transform="translate(-291.113 -101.482)"/>
        </g>
        <g id="Group_168" data-name="Group 168" class="cls-14" transform="translate(257.245 61.234)">
          <path id="Path_1056" data-name="Path 1056" class="cls-8" d="M454.023,322.1l-159.7-92.2A7.076,7.076,0,0,1,291.394,222L327.51,104.742c.894-2.908,3.655-4.09,6.166-2.641l159.7,92.205a7.074,7.074,0,0,1,2.928,7.89L460.191,319.458C459.3,322.366,456.536,323.55,454.023,322.1Z" transform="translate(-291.113 -101.482)"/>
        </g>
        <path id="Path_1057" data-name="Path 1057" class="cls-6" d="M477.827,194.306,318.124,102.1a3.976,3.976,0,0,0-4.494.154,4.3,4.3,0,0,1,2.306.59l159.7,92.205a7.074,7.074,0,0,1,2.928,7.89L442.451,320.2a4.818,4.818,0,0,1-1.674,2.487,4.225,4.225,0,0,0,3.862-3.231L480.753,202.2A7.071,7.071,0,0,0,477.827,194.306Z" transform="translate(-18.315 -40.248)"/>
        <path id="Path_1058" data-name="Path 1058" class="cls-11" d="M297.965,316.422a12.016,12.016,0,0,1-5.917-1.388v0L228.063,278.1a4.626,4.626,0,0,1-2.629-3.943c0-1.814,1.287-3.6,3.528-4.891L261.9,250.245c4.026-2.321,9.931-2.55,13.453-.519l63.984,36.942a4.625,4.625,0,0,1,2.631,3.943c0,1.812-1.287,3.6-3.529,4.89L305.5,314.518A15.426,15.426,0,0,1,297.965,316.422Zm-28.5-66.211a13.736,13.736,0,0,0-6.641,1.635l-32.935,19.015c-1.657.957-2.607,2.157-2.607,3.292a2.917,2.917,0,0,0,1.708,2.34l63.984,36.943c2.9,1.672,8.215,1.439,11.6-.521L337.512,293.9c1.657-.955,2.605-2.154,2.605-3.29a2.922,2.922,0,0,0-1.708-2.342l-63.983-36.94A10.151,10.151,0,0,0,269.463,250.211Z" transform="translate(-79.231 61.187)"/>
      </g>
      <g id="Group_171" data-name="Group 171" transform="translate(388.427 146.962)">
        <g id="Group_170" data-name="Group 170" transform="translate(10.587 7.884)">
          <path id="Path_1059" data-name="Path 1059" class="cls-6" d="M343.814,142.2l-9.872-5.7a2.573,2.573,0,0,1-1.1-2.839h0a1.461,1.461,0,0,1,2.22-.925l9.872,5.7a2.572,2.572,0,0,1,1.1,2.839h0A1.462,1.462,0,0,1,343.814,142.2Z" transform="translate(-296.299 -126.808)"/>
          <path id="Path_1060" data-name="Path 1060" class="cls-6" d="M359.64,151.332l-14.559-8.406a2.574,2.574,0,0,1-1.1-2.839h0a1.462,1.462,0,0,1,2.22-.923l14.559,8.4a2.577,2.577,0,0,1,1.1,2.84h0A1.462,1.462,0,0,1,359.64,151.332Z" transform="translate(-288.605 -122.366)"/>
          <path id="Path_1061" data-name="Path 1061" class="cls-6" d="M332.038,168.195l-9.874-5.7a2.58,2.58,0,0,1-1.1-2.84h0a1.462,1.462,0,0,1,2.22-.923l9.874,5.7a2.571,2.571,0,0,1,1.1,2.839h0A1.462,1.462,0,0,1,332.038,168.195Z" transform="translate(-304.433 -108.85)"/>
          <path id="Path_1062" data-name="Path 1062" class="cls-6" d="M346.352,176.46l-14.559-8.406a2.578,2.578,0,0,1-1.1-2.839h0a1.463,1.463,0,0,1,2.22-.925l14.559,8.406a2.573,2.573,0,0,1,1.1,2.839h0A1.462,1.462,0,0,1,346.352,176.46Z" transform="translate(-297.783 -105.01)"/>
          <path id="Path_1063" data-name="Path 1063" class="cls-6" d="M324.808,136.688l-6.168-3.561a2.573,2.573,0,0,1-1.1-2.839h0a1.462,1.462,0,0,1,2.22-.925l6.168,3.562a2.574,2.574,0,0,1,1.1,2.839h0A1.462,1.462,0,0,1,324.808,136.688Z" transform="translate(-306.868 -129.134)"/>
          <path id="Path_1064" data-name="Path 1064" class="cls-6" d="M340.964,151.484,322.119,140.6a2.572,2.572,0,0,1-1.1-2.839h0a1.462,1.462,0,0,1,2.22-.925l18.844,10.881a2.573,2.573,0,0,1,1.1,2.839h0A1.462,1.462,0,0,1,340.964,151.484Z" transform="translate(-304.465 -123.971)"/>
          <path id="Path_1065" data-name="Path 1065" class="cls-6" d="M325.505,153.49l-6.169-3.561a2.578,2.578,0,0,1-1.1-2.839h0a1.462,1.462,0,0,1,2.22-.925l6.169,3.561a2.58,2.58,0,0,1,1.1,2.84h0A1.462,1.462,0,0,1,325.505,153.49Z" transform="translate(-306.387 -117.53)"/>
          <path id="Path_1066" data-name="Path 1066" class="cls-6" d="M348.479,188.621l-16.474-9.512a2.575,2.575,0,0,1-1.1-2.839h0a1.462,1.462,0,0,1,2.22-.925l16.474,9.512a2.576,2.576,0,0,1,1.1,2.839h0A1.462,1.462,0,0,1,348.479,188.621Z" transform="translate(-297.636 -97.375)"/>
          <path id="Path_1067" data-name="Path 1067" class="cls-6" d="M320.514,161.541l-3.96-2.284a2.577,2.577,0,0,1-1.1-2.84h0a1.462,1.462,0,0,1,2.22-.923l3.96,2.286a2.575,2.575,0,0,1,1.1,2.839h0A1.461,1.461,0,0,1,320.514,161.541Z" transform="translate(-308.308 -111.087)"/>
          <path id="Path_1068" data-name="Path 1068" class="cls-6" d="M318.689,171.421l-4.917-2.839a2.571,2.571,0,0,1-1.1-2.839h0a1.461,1.461,0,0,1,2.22-.923l4.917,2.839a2.574,2.574,0,0,1,1.1,2.839h0A1.462,1.462,0,0,1,318.689,171.421Z" transform="translate(-310.23 -104.645)"/>
          <path id="Path_1069" data-name="Path 1069" class="cls-6" d="M333.289,179.851l-12.963-7.485a2.574,2.574,0,0,1-1.1-2.839h0a1.461,1.461,0,0,1,2.22-.923l12.963,7.483a2.575,2.575,0,0,1,1.1,2.839h0A1.461,1.461,0,0,1,333.289,179.851Z" transform="translate(-305.703 -102.032)"/>
          <path id="Path_1070" data-name="Path 1070" class="cls-6" d="M321.7,178.626l-9.319-5.38a2.575,2.575,0,0,1-1.1-2.84h0a1.462,1.462,0,0,1,2.22-.923l9.319,5.381a2.572,2.572,0,0,1,1.1,2.839h0A1.462,1.462,0,0,1,321.7,178.626Z" transform="translate(-311.191 -101.425)"/>
          <path id="Path_1071" data-name="Path 1071" class="cls-6" d="M352.553,191l-5.985-3.456a2.577,2.577,0,0,1-1.1-2.84h0a1.462,1.462,0,0,1,2.22-.923l5.985,3.456a2.573,2.573,0,0,1,1.1,2.839h0A1.462,1.462,0,0,1,352.553,191Z" transform="translate(-287.578 -91.551)"/>
          <path id="Path_1072" data-name="Path 1072" class="cls-6" d="M343.285,163.756l-16.474-9.512a2.574,2.574,0,0,1-1.1-2.839h0a1.461,1.461,0,0,1,2.22-.923l16.474,9.51a2.577,2.577,0,0,1,1.1,2.84h0A1.462,1.462,0,0,1,343.285,163.756Z" transform="translate(-301.224 -114.549)"/>
        </g>
        <path id="Path_1073" data-name="Path 1073" class="cls-15" d="M349.44,161.842l-28.711-16.576a2.575,2.575,0,0,1-1.1-2.84h0a1.462,1.462,0,0,1,2.22-.923l28.711,16.577a2.574,2.574,0,0,1,1.1,2.839h0A1.462,1.462,0,0,1,349.44,161.842Z" transform="translate(-294.839 -112.866)"/>
        <path id="Path_1074" data-name="Path 1074" class="cls-15" d="M334.419,164.1l-16.474-9.512a2.575,2.575,0,0,1-1.1-2.839h0a1.463,1.463,0,0,1,2.22-.925l16.474,9.512a2.576,2.576,0,0,1,1.1,2.839h0A1.461,1.461,0,0,1,334.419,164.1Z" transform="translate(-296.761 -106.424)"/>
        <path id="Path_1075" data-name="Path 1075" class="cls-15" d="M346.39,165.549l-5.985-3.456a2.576,2.576,0,0,1-1.1-2.839h0a1.462,1.462,0,0,1,2.22-.925l5.985,3.456a2.573,2.573,0,0,1,1.1,2.839h0A1.461,1.461,0,0,1,346.39,165.549Z" transform="translate(-281.248 -101.243)"/>
        <path id="Path_1076" data-name="Path 1076" class="cls-15" d="M394.436,171.423l-35.444-20.464a2.575,2.575,0,0,1-1.1-2.84h0a1.462,1.462,0,0,1,2.22-.923l35.444,20.464a2.573,2.573,0,0,1,1.1,2.839h0A1.462,1.462,0,0,1,394.436,171.423Z" transform="translate(-268.41 -108.934)"/>
        <path id="Path_1077" data-name="Path 1077" class="cls-16" d="M334.966,175.352l-19.8-11.432a2.576,2.576,0,0,1-1.1-2.839h0a1.461,1.461,0,0,1,2.22-.925l19.8,11.434a2.574,2.574,0,0,1,1.1,2.839h0A1.462,1.462,0,0,1,334.966,175.352Z" transform="translate(-298.683 -99.982)"/>
        <path id="Path_1078" data-name="Path 1078" class="cls-16" d="M334.59,136.869l-14.559-8.4a2.577,2.577,0,0,1-1.1-2.84h0a1.462,1.462,0,0,1,2.22-.923l14.559,8.4a2.577,2.577,0,0,1,1.1,2.84h0A1.462,1.462,0,0,1,334.59,136.869Z" transform="translate(-295.32 -124.471)"/>
        <path id="Path_1079" data-name="Path 1079" class="cls-15" d="M322.98,184.832,306.119,175.1a2.575,2.575,0,0,1-1.1-2.839h0a1.463,1.463,0,0,1,2.22-.925l16.861,9.735a2.575,2.575,0,0,1,1.1,2.84h0A1.462,1.462,0,0,1,322.98,184.832Z" transform="translate(-304.929 -92.261)"/>
      </g>
      <g id="Group_172" data-name="Group 172" transform="translate(510.346 184.135)">
        <path id="Path_1080" data-name="Path 1080" class="cls-6" d="M385.128,153.544l-7.218-4.168a1.88,1.88,0,0,1-.8-2.074h0a1.068,1.068,0,0,1,1.621-.676l7.218,4.168a1.88,1.88,0,0,1,.8,2.074h0A1.068,1.068,0,0,1,385.128,153.544Z" transform="translate(-377.041 -146.458)"/>
        <path id="Path_1081" data-name="Path 1081" class="cls-6" d="M393.27,158.245l-7.218-4.168a1.881,1.881,0,0,1-.8-2.074h0a1.069,1.069,0,0,1,1.623-.676l7.216,4.168a1.882,1.882,0,0,1,.8,2.074h0A1.07,1.07,0,0,1,393.27,158.245Z" transform="translate(-371.417 -143.211)"/>
        <path id="Path_1082" data-name="Path 1082" class="cls-6" d="M401.412,162.944l-7.218-4.166a1.882,1.882,0,0,1-.8-2.074h0a1.068,1.068,0,0,1,1.623-.676l7.216,4.166a1.885,1.885,0,0,1,.8,2.076h0A1.068,1.068,0,0,1,401.412,162.944Z" transform="translate(-365.794 -139.964)"/>
        <path id="Path_1083" data-name="Path 1083" class="cls-16" d="M402.554,163.61l-.216-.13a1.884,1.884,0,0,1-.8-2.076h0a1.069,1.069,0,0,1,1.623-.675l.216.13a1.884,1.884,0,0,1,.8,2.076h0A1.069,1.069,0,0,1,402.554,163.61Z" transform="translate(-360.17 -136.717)"/>
      </g>
      <path id="Path_1084" data-name="Path 1084" class="cls-1" d="M208.311,242.745a26.412,26.412,0,0,1-13.208-3.528h0L146.758,211.3a6.694,6.694,0,0,1,0-11.595L195.1,171.8a26.483,26.483,0,0,1,26.419,0l48.345,27.912a6.694,6.694,0,0,1,0,11.595l-48.344,27.912A26.419,26.419,0,0,1,208.311,242.745Zm-11.635-6.254a23.349,23.349,0,0,0,23.274,0l48.344-27.912a3.547,3.547,0,0,0,0-6.144l-48.345-27.913a23.34,23.34,0,0,0-23.274,0L148.33,202.433a3.547,3.547,0,0,0,0,6.144Z" transform="translate(-28.062 52.742)"/>
      <g id="Group_175" data-name="Group 175" transform="translate(131.803 78.562)">
        <ellipse id="Ellipse_11" data-name="Ellipse 11" class="cls-2" cx="33.206" cy="19.724" rx="33.206" ry="19.724" transform="translate(14.995 160.067)"/>
        <path id="Path_1085" data-name="Path 1085" class="cls-17" d="M249.406,107.209H154.825l8.8,105.354h0c0,5.852,3.758,11.7,11.275,16.166,15.032,8.929,39.405,8.93,54.439,0,7.517-4.463,11.274-10.315,11.274-16.168Z" transform="translate(-151.981 -67.994)"/>
        <path id="Path_1086" data-name="Path 1086" class="cls-11" d="M249.406,107.209H154.825l1.447,17.333a37.184,37.184,0,0,0,8.766,8.112c18.072,12.335,47.894,14.712,68.242,5.83l-3.146,77.055a15.39,15.39,0,0,1-3.38,9.187c-3.064,3.709-8.966,8.075-20.312,10.542,8.362-.558,16.479-2.727,22.894-6.538,7.517-4.463,11.274-10.315,11.274-16.168l7.055-84.489h0Z" transform="translate(-151.981 -67.994)"/>
        <ellipse id="Ellipse_12" data-name="Ellipse 12" class="cls-11" cx="47.291" cy="28.09" rx="47.291" ry="28.09" transform="translate(2.844 11.126)"/>
        <ellipse id="Ellipse_13" data-name="Ellipse 13" class="cls-11" cx="40.732" cy="24.194" rx="40.732" ry="24.194" transform="translate(9.402 5.12)"/>
        <path id="Path_1087" data-name="Path 1087" class="cls-18" d="M253.369,121.852l0,.008-.007-.086c0-.047-.01-.1-.015-.144l-.908-9.432-.039.1c-.406-7.14-5.185-14.209-14.361-19.658-19.2-11.405-50.332-11.405-69.531,0-9.407,5.588-14.193,12.876-14.383,20.2l-.012-.025-.864,8.4c-.024.218-.052.436-.068.656l-.015.137.01-.005c-.519,8,4.355,16.1,14.641,22.214,19.582,11.63,51.331,11.63,70.913,0C249.085,138.073,253.959,129.905,253.369,121.852Z" transform="translate(-153.143 -83.961)"/>
        <ellipse id="Ellipse_14" data-name="Ellipse 14" class="cls-19" cx="40.732" cy="24.194" rx="40.732" ry="24.194" transform="translate(9.402 5.12)"/>
        <ellipse id="Ellipse_15" data-name="Ellipse 15" class="cls-19" cx="40.732" cy="24.194" rx="40.732" ry="24.194" transform="translate(7.469 5.12)"/>
        <path id="Path_1088" data-name="Path 1088" class="cls-11" d="M175.46,97.733c15.906-9.449,41.7-9.449,57.6,0,.2.12.372.252.57.375a32.444,32.444,0,0,0-5.4-3.98c-15.906-9.448-41.7-9.448-57.6,0-15.7,9.328-15.874,24.368-.57,33.841C159.839,118.6,161.63,105.948,175.46,97.733Z" transform="translate(-149.296 -81.923)"/>
        <path id="Path_1089" data-name="Path 1089" class="cls-20" d="M170.631,98.328c15.908-9.449,41.7-9.449,57.6,0,7.055,4.19,10.973,9.534,11.772,15.008,1-6.871-2.918-13.948-11.772-19.208-15.906-9.448-41.7-9.448-57.6,0-8.852,5.258-12.771,12.335-11.771,19.206C159.658,107.861,163.577,102.518,170.631,98.328Z" transform="translate(-149.299 -81.923)"/>
        <path id="Path_1090" data-name="Path 1090" class="cls-21" d="M238.026,92.919c-19.174-11.62-50.418-11.9-69.787-.632s-19.528,29.831-.353,41.452,50.417,11.9,69.787.632S257.2,104.54,238.026,92.919Zm-6.267,37.518a52.075,52.075,0,0,1-18.522,6.281l-.739-2.5a2.34,2.34,0,0,0-2.23-1.7H195.642a2.34,2.34,0,0,0-2.228,1.7l-.739,2.5a52.088,52.088,0,0,1-18.52-6.281c-15.908-9.449-15.909-24.769,0-34.216s41.7-9.448,57.6,0S247.665,120.989,231.758,130.437Z" transform="translate(-152.821 -84.014)"/>
        <g id="Group_173" data-name="Group 173" transform="translate(0.801 3.329)">
          <path id="Path_1091" data-name="Path 1091" class="cls-6" d="M228.234,93.07c-15.906-9.449-41.7-9.449-57.6,0-8.337,4.95-12.3,11.515-11.894,18,.365-5.89,4.325-11.717,11.894-16.212,15.906-9.448,41.7-9.448,57.6,0,7.571,4.5,11.531,10.323,11.9,16.212C240.532,104.587,236.573,98.022,228.234,93.07Z" transform="translate(-150.1 -85.983)"/>
          <path id="Path_1092" data-name="Path 1092" class="cls-6" d="M237.667,121.074c-19.369,11.272-50.614,10.99-69.787-.632-9.125-5.53-13.86-12.631-14.242-19.771-.377,7.732,4.355,15.57,14.242,21.563,19.172,11.62,50.418,11.9,69.787.632,10.151-5.909,15.015-13.818,14.6-21.681C251.908,108.447,247.047,115.615,237.667,121.074Z" transform="translate(-153.617 -75.838)"/>
        </g>
        <path id="Rectangle_126" data-name="Rectangle 126" class="cls-22" d="M.654,0H10.3a.653.653,0,0,1,.653.653V1.779a.654.654,0,0,1-.654.654H.654A.654.654,0,0,1,0,1.779V.654A.654.654,0,0,1,.654,0Z" transform="translate(44.658 51.573)"/>
        <path id="Path_1093" data-name="Path 1093" class="cls-23" d="M189.4,114.518h-8.743a1.123,1.123,0,0,0-1.1,1.138v.159a1.144,1.144,0,0,0,.059.3,1.1,1.1,0,0,1,1.045-.835H189.4a1.1,1.1,0,0,1,1.047.835,1.216,1.216,0,0,0,.059-.3v-.159A1.123,1.123,0,0,0,189.4,114.518Z" transform="translate(-134.899 -62.946)"/>
        <g id="Group_174" data-name="Group 174" transform="translate(33.189 113.65)">
          <path id="Path_1094" data-name="Path 1094" class="cls-15" d="M189.659,166.638a7.538,7.538,0,0,1-9.245,5.515,7.8,7.8,0,0,1-5.36-9.51c1.072-4.149,4.876-5.324,8.908-4.222S190.731,162.489,189.659,166.638Z" transform="translate(-171.374 -146.541)"/>
          <path id="Path_1095" data-name="Path 1095" class="cls-15" d="M189.464,160.956a3.15,3.15,0,0,1-4.758-.027,3.369,3.369,0,0,1,.081-4.9c1.522-1.53,4.413-2.282,5.7-.923S190.986,159.426,189.464,160.956Z" transform="translate(-165.232 -149.049)"/>
          <path id="Path_1096" data-name="Path 1096" class="cls-15" d="M185.15,156.638a3.222,3.222,0,0,1-3.887,2.825,3.3,3.3,0,0,1-2.7-4.031c.372-2.156,2.3-4.5,4.119-4.166S185.523,154.484,185.15,156.638Z" transform="translate(-168.82 -151.235)"/>
          <path id="Path_1097" data-name="Path 1097" class="cls-15" d="M179.363,155.2a3.335,3.335,0,0,1-1.806,4.529,3.184,3.184,0,0,1-4.382-1.91c-.81-2.022-.406-5.064,1.3-5.787S178.553,153.178,179.363,155.2Z" transform="translate(-172.773 -150.794)"/>
        </g>
      </g>
      <path id="Path_1098" data-name="Path 1098" class="cls-24" d="M190.156,159.824s26.442-8.861,15.737-39.244S174.34,80.936,182.737,56.631c0,0-13.16,19.676-.862,46.3s14.995,23.563,14.851,36.294a22.972,22.972,0,0,1-12.391,20.6Z" transform="translate(-5.121 -24.366)"/>
      <path id="Path_1099" data-name="Path 1099" class="cls-24" d="M186.1,74.039S183.348,55.864,200.4,37.547c0,0-15.076,33.674-10.144,50.3C190.253,87.845,186.264,77.278,186.1,74.039Z" transform="translate(1.311 -37.547)"/>
    </g>
  </g>
</svg>
